<svg width="1440" height="139" viewBox="0 0 1440 139" fill="none" xmlns="http://www.w3.org/2000/svg">
<rect width="1440" height="139" fill="#667AFB"/>
<g clip-path="url(#clip0_6_476)">
<path d="M1039 54C1140.31 54 1241.62 54 1346 54C1346 68.85 1346 83.7 1346 99C1244.69 99 1143.38 99 1039 99C1039 84.15 1039 69.3 1039 54Z" fill="#667AFB"/>
<path d="M1039 54C1055.25 54 1071.5 54 1088.25 54C1089.18 56.494 1090.06 58.8742 1090.81 61.4094C1090.99 61.993 1091.16 62.5766 1091.34 63.1779C1091.52 63.7862 1091.7 64.3944 1091.88 65.0211C1092.07 65.6543 1092.25 66.2875 1092.45 66.9399C1093.54 70.6599 1094.58 74.386 1095.55 78.1393C1096.41 81.3613 1097.43 84.5406 1098.44 87.7209C1099.6 91.4714 1100.45 95.1423 1101.34 99C1080.77 99 1060.2 99 1039 99C1039 84.15 1039 69.3 1039 54Z" fill="#667AFB"/>
<path d="M1072.53 54C1077.72 54 1082.9 54 1088.25 54C1089.18 56.494 1090.06 58.8742 1090.81 61.4094C1091.07 62.2848 1091.07 62.2848 1091.34 63.1779C1091.52 63.7862 1091.7 64.3944 1091.88 65.0211C1092.07 65.6543 1092.25 66.2875 1092.45 66.9399C1093.54 70.6599 1094.58 74.386 1095.55 78.1393C1096.41 81.3613 1097.43 84.5406 1098.44 87.7209C1099.6 91.4714 1100.45 95.1423 1101.34 99C1094.43 99 1087.51 99 1080.39 99C1081.57 92.5247 1081.57 92.5247 1082.34 90.2784C1082.5 89.8012 1082.66 89.324 1082.83 88.8323C1083 88.3564 1083.16 87.8806 1083.33 87.3903C1083.5 86.8921 1083.67 86.394 1083.85 85.8808C1084.26 84.6712 1084.68 83.4629 1085.1 82.2558C1084.64 82.3206 1084.17 82.3853 1083.69 82.452C1081.96 82.2558 1081.96 82.2558 1080.58 81.1194C1078.67 78.5089 1078.06 75.2619 1077.24 72.1831C1077.07 71.5327 1076.89 70.8822 1076.7 70.212C1076.35 68.9069 1075.99 67.6008 1075.64 66.294C1075.2 64.6739 1074.76 63.0582 1074.3 61.4441C1074.17 61.0086 1074.05 60.573 1073.92 60.1242C1073.81 59.7221 1073.69 59.3199 1073.58 58.9055C1072.53 55.2119 1072.53 55.2119 1072.53 54Z" fill="#667AFB"/>
<path d="M1088.25 54C1093.26 54 1098.27 54 1103.44 54C1105.51 60.4513 1107.46 66.9195 1109.3 73.4379C1110.08 76.1622 1110.87 78.8822 1111.66 81.6017C1111.81 82.1185 1111.96 82.6353 1112.11 83.1678C1112.79 85.4901 1113.48 87.8081 1114.21 90.1128C1114.33 90.4786 1114.44 90.8443 1114.56 91.2212C1115.24 92.8608 1116.18 93.7692 1117.58 94.814C1119.25 95.2744 1119.25 95.2744 1120.73 95.3372C1120.73 96.5459 1120.73 97.7547 1120.73 99C1114.33 99 1107.93 99 1101.34 99C1099.58 93.7141 1099.58 93.7141 1098.89 91.19C1098.74 90.6433 1098.59 90.0966 1098.43 89.5334C1098.13 88.4161 1097.82 87.2987 1097.52 86.1813C1096.76 83.4542 1095.97 80.7579 1095.05 78.08C1093.75 74.2399 1092.75 70.3297 1091.73 66.4069C1090.82 62.9819 1089.81 59.6279 1088.64 56.2831C1088.25 55.0465 1088.25 55.0465 1088.25 54Z" fill="#ECE9E9"/>
<path d="M1052.62 54C1059.19 54 1065.76 54 1072.53 54C1073.05 55.7915 1073.57 57.583 1074.1 59.4288C1074.8 61.8064 1075.5 64.1823 1076.2 66.5581C1076.38 67.1867 1076.57 67.8153 1076.76 68.4629C1077.31 70.3261 1077.86 72.1869 1078.42 74.0472C1078.68 74.9263 1078.68 74.9263 1078.94 75.8232C1079.11 76.3683 1079.28 76.9134 1079.45 77.475C1079.59 77.9568 1079.73 78.4386 1079.88 78.935C1080.41 80.2272 1080.86 80.8844 1081.96 81.7326C1083.59 82.1129 1083.59 82.1129 1085.1 82.2558C1083.6 87.8579 1081.99 93.4267 1080.39 99C1077.1 99 1073.82 99 1070.43 99C1068.55 93.5299 1066.9 88.0375 1065.36 82.4627C1063.66 76.2938 1061.95 70.1233 1059.96 64.04C1059.82 63.6038 1059.68 63.1677 1059.53 62.7183C1058.73 60.3203 1058.73 60.3203 1056.81 58.7093C1055.74 58.4731 1055.74 58.4731 1054.62 58.3823C1053.96 58.3175 1053.3 58.2528 1052.62 58.186C1052.62 56.8047 1052.62 55.4233 1052.62 54Z" fill="#ECE9E9"/>
<path d="M1136.44 62.3721C1139.38 62.3721 1142.32 62.3721 1145.35 62.3721C1145.75 63.4311 1146.15 64.49 1146.56 65.5811C1146.94 66.6152 1147.34 67.649 1147.73 68.6828C1147.99 69.3971 1148.26 70.1117 1148.53 70.8264C1148.92 71.8584 1149.31 72.8895 1149.7 73.9205C1149.93 74.5398 1150.16 75.1591 1150.41 75.7971C1151.08 77.4776 1151.85 79.0778 1152.68 80.686C1154.97 74.6289 1157.09 68.5687 1158.97 62.3721C1161.91 62.3721 1164.85 62.3721 1167.88 62.3721C1167.88 62.7174 1167.88 63.0628 1167.88 63.4186C1167.01 63.7639 1166.15 64.1093 1165.26 64.4651C1165.46 69.8949 1165.89 75.2608 1166.57 80.6533C1166.64 81.2017 1166.7 81.7501 1166.77 82.3151C1167.14 85.2042 1167.14 85.2042 1167.88 88.0116C1168.74 88.1843 1169.61 88.357 1170.5 88.5349C1170.5 89.0529 1170.5 89.5709 1170.5 90.1046C1166.17 90.1046 1161.85 90.1046 1157.4 90.1046C1157.4 89.5866 1157.4 89.0686 1157.4 88.5349C1158.61 88.3622 1159.82 88.1895 1161.07 88.0116C1160.85 85.6555 1160.64 83.2996 1160.42 80.9439C1160.35 80.1426 1160.28 79.3412 1160.21 78.5397C1160.1 77.3875 1160 76.2355 1159.89 75.0835C1159.86 74.7254 1159.83 74.3672 1159.79 73.9982C1159.65 72.4717 1159.46 71.1591 1158.97 69.6977C1158.75 70.3378 1158.53 70.9779 1158.3 71.6374C1156.15 77.8191 1153.92 83.9709 1151.64 90.1046C1150.94 90.1046 1150.25 90.1046 1149.54 90.1046C1148.58 87.6299 1147.62 85.1537 1146.66 82.6761C1146.33 81.8342 1146.01 80.9928 1145.68 80.1518C1145.21 78.9397 1144.74 77.7261 1144.27 76.5122C1144.13 76.1393 1143.98 75.7663 1143.83 75.3821C1143.04 73.317 1142.49 71.3833 1142.21 69.1744C1141.86 69.1744 1141.51 69.1744 1141.16 69.1744C1140.76 75.2769 1140.42 81.3811 1140.11 87.4883C1141.15 87.8337 1142.19 88.179 1143.25 88.5349C1143.25 89.0529 1143.25 89.5709 1143.25 90.1046C1140.14 90.1046 1137.03 90.1046 1133.82 90.1046C1133.82 89.5866 1133.82 89.0686 1133.82 88.5349C1135.12 88.2759 1135.12 88.2759 1136.44 88.0116C1137.21 84.3968 1137.84 80.7806 1138.34 77.1213C1138.41 76.6218 1138.48 76.1222 1138.55 75.6075C1139.04 71.865 1139.26 68.2414 1139.06 64.4651C1137.77 63.9471 1137.77 63.9471 1136.44 63.4186C1136.44 63.0732 1136.44 62.7279 1136.44 62.3721Z" fill="#ECE9E9"/>
<path d="M1306.71 69.2725C1308.48 70.3429 1308.96 70.9927 1309.85 72.8372C1310.08 74.4791 1310.08 74.4791 1310.12 76.2976C1310.14 76.9502 1310.16 77.6028 1310.18 78.2752C1310.19 79.2905 1310.19 79.2905 1310.21 80.3263C1310.23 81.0133 1310.25 81.7003 1310.27 82.4081C1310.31 84.1015 1310.35 85.7947 1310.38 87.4884C1311.07 87.661 1311.76 87.8337 1312.47 88.0116C1311.95 89.5814 1311.95 89.5814 1310.9 90.1046C1309.3 90.3208 1307.78 90.3709 1306.18 90.1046C1304.84 88.7965 1304.84 88.7965 1304.09 87.4884C1303.78 87.8229 1303.46 88.1575 1303.14 88.5022C1301.26 90.2734 1299.35 90.3227 1296.88 90.2784C1295.71 90.1046 1295.71 90.1046 1294.1 89.0908C1292.93 87.2417 1292.63 86.0993 1292.77 83.9359C1293.25 82.1749 1294.11 81.3751 1295.56 80.312C1298.17 78.8427 1301.07 77.5465 1304.09 77.5465C1304.03 76.5214 1303.96 75.4968 1303.89 74.4724C1303.86 73.9017 1303.82 73.3311 1303.78 72.7432C1303.71 71.1992 1303.71 71.1992 1302.52 70.2209C1300.63 70.3901 1300.63 70.3901 1298.85 70.7442C1299.37 71.5212 1299.37 71.5212 1299.9 72.3139C1299.66 75.1628 1299.66 75.1628 1298.33 76.5C1296.75 76.6635 1296.75 76.6635 1295.18 76.5C1293.95 74.6551 1293.79 73.9621 1294.13 71.7907C1297.57 68.3625 1302.11 67.5354 1306.71 69.2725Z" fill="#ECE9E9"/>
<path d="M1184.7 69.064C1186.09 69.9697 1186.86 70.9324 1187.78 72.314C1187.95 73.9332 1187.95 73.9332 1188 75.9011C1188.01 76.2473 1188.02 76.5935 1188.03 76.9502C1188.06 78.0537 1188.09 79.1572 1188.11 80.2609C1188.13 81.01 1188.15 81.7591 1188.17 82.5082C1188.22 84.3426 1188.27 86.177 1188.31 88.0116C1189.61 87.7526 1189.61 87.7526 1190.93 87.4884C1190.21 89.1425 1189.89 89.5776 1188.31 90.6279C1186.71 90.8764 1185.65 90.942 1184.26 90.0413C1183.49 89.396 1182.75 88.7062 1182.02 88.0116C1181.61 88.357 1181.2 88.7023 1180.78 89.0581C1178.55 90.5444 1176.23 90.5261 1173.64 90.1047C1172.09 89.2351 1171.71 88.6053 1171.24 86.9161C1170.89 84.9557 1170.84 83.6933 1171.68 81.8634C1174.8 79.3122 1178.53 77.8141 1182.55 77.5465C1182.5 76.6194 1182.44 75.6929 1182.38 74.7667C1182.35 74.2507 1182.32 73.7347 1182.29 73.2031C1182.12 71.7909 1182.12 71.7909 1181.33 70.8096C1180.36 70.027 1180.36 70.027 1178.52 70.3844C1177.95 70.5032 1177.37 70.6219 1176.78 70.7442C1177.3 71.5212 1177.3 71.5212 1177.83 72.314C1177.96 73.9164 1177.96 73.9164 1177.83 75.4535C1176.78 76.5 1176.78 76.5 1175.24 76.6635C1173.64 76.5 1173.64 76.5 1172.62 75.944C1171.7 74.2527 1172.08 73.0739 1172.59 71.2674C1175.65 68.2117 1180.64 67.5514 1184.7 69.064Z" fill="#ECE9E9"/>
<path d="M1278.94 63.4186C1279.47 63.9419 1279.47 63.9419 1279.52 65.3665C1279.51 65.9432 1279.5 66.5199 1279.5 67.1141C1279.49 67.6922 1279.49 68.2702 1279.48 68.8658C1279.48 69.313 1279.47 69.7602 1279.47 70.2209C1278.95 70.2209 1278.43 70.2209 1277.89 70.2209C1277.68 69.6598 1277.46 69.0986 1277.24 68.5204C1276.5 66.8045 1275.7 65.6593 1274.23 64.4651C1272.27 63.8123 1270.5 63.6111 1268.46 63.9419C1265.63 65.6482 1264.6 67.5599 1263.75 70.7442C1263.53 72.3864 1263.5 73.9946 1263.52 75.6497C1263.52 76.0858 1263.53 76.5219 1263.53 76.9713C1263.64 81.015 1264.4 84.0778 1266.93 87.2922C1269.34 88.4206 1271.62 88.4523 1274.23 88.0116C1276.87 86.2722 1277.83 83.5429 1278.94 80.6861C1279.46 80.6861 1279.98 80.6861 1280.51 80.6861C1280.53 81.6998 1280.54 82.7137 1280.55 83.7275C1280.55 84.292 1280.56 84.8566 1280.56 85.4383C1280.51 86.9651 1280.51 86.9651 1279.99 88.5349C1276.92 89.9988 1274.23 90.3934 1270.85 90.3663C1270.42 90.3629 1269.98 90.3595 1269.52 90.3561C1265.54 90.2381 1262.98 89.421 1260.19 86.5114C1257.3 82.9943 1256.68 79.4348 1256.78 74.9609C1257.23 70.5148 1259.33 66.8499 1262.7 63.9419C1267.41 60.6256 1273.93 60.9647 1278.94 63.4186Z" fill="#ECE9E9"/>
<path d="M1235.62 69.5341C1237.41 70.542 1238.4 71.3781 1239.13 73.3604C1239.13 74.7418 1239.13 76.1232 1239.13 77.5465C1234.98 77.5465 1230.83 77.5465 1226.55 77.5465C1227.3 82.5723 1227.3 82.5723 1230.22 85.9186C1232.42 86.7143 1233.96 86.6258 1236.11 85.7551C1236.59 85.4637 1237.06 85.1723 1237.55 84.8721C1238.25 84.5232 1238.95 84.1744 1239.65 83.8256C1238.53 86.8793 1237.43 88.5976 1234.41 90.1046C1231.39 90.3586 1228.58 90.5232 1225.77 89.3197C1222.77 86.3248 1221.67 84.2518 1221.51 79.9011C1221.65 75.9431 1222.5 73.7311 1225.28 70.9792C1228.38 68.2283 1231.9 67.8333 1235.62 69.5341Z" fill="#ECE9E9"/>
<path d="M1204.55 69.6977C1204.9 69.8704 1205.24 70.043 1205.6 70.2209C1205.6 71.775 1205.6 73.3291 1205.6 74.9302C1205.08 74.9302 1204.56 74.9302 1204.03 74.9302C1203.51 73.9934 1203 73.0566 1202.49 72.1198C1201.98 71.1805 1201.98 71.1805 1200.88 70.7442C1200.08 70.7078 1199.27 70.7 1198.46 70.7115C1198.03 70.7162 1197.6 70.7209 1197.16 70.7258C1196.83 70.7319 1196.51 70.7379 1196.17 70.7442C1195.95 72.8202 1195.95 72.8202 1196.73 74.6604C1198.44 76.0019 1200.44 76.8118 1202.4 77.707C1204.3 78.6072 1205.66 79.3228 1206.65 81.2093C1207.1 83.706 1207.01 85.811 1205.73 88.0116C1203.41 90.0691 1201.69 90.2589 1198.59 90.2682C1197.92 90.277 1197.24 90.2857 1196.55 90.2948C1194.5 90.0949 1193.22 89.5694 1191.45 88.5349C1191.45 86.6355 1191.45 84.7361 1191.45 82.7791C1191.97 82.7791 1192.49 82.7791 1193.02 82.7791C1193.15 83.0631 1193.28 83.347 1193.41 83.6396C1194.72 86.6185 1194.72 86.6185 1197.21 88.5349C1199.09 88.7531 1199.09 88.7531 1200.88 88.5349C1202.08 87.5505 1202.08 87.5505 1202.13 85.9513C1202.1 84.3371 1202.1 84.3371 1201.07 83.5558C1199.66 82.6664 1198.21 81.9958 1196.69 81.3074C1194.07 80.0147 1192.58 79.2146 1191.45 76.5C1191.11 74.4258 1191.35 73.5596 1192.34 71.6926C1195.56 67.7712 1200.03 67.7778 1204.55 69.6977Z" fill="#ECE9E9"/>
<path d="M1325.63 69.4361C1326.38 69.8246 1326.38 69.8246 1327.14 70.2209C1327.14 71.775 1327.14 73.3291 1327.14 74.9302C1326.62 74.9302 1326.1 74.9302 1325.57 74.9302C1325.21 74.1856 1325.21 74.1856 1324.85 73.4259C1324.1 71.7891 1324.1 71.7891 1322.95 70.7442C1321.53 70.5728 1320.2 70.6757 1318.76 70.7442C1318.08 71.3211 1318.08 71.3211 1318 72.7391C1318.06 74.502 1318.06 74.502 1319.51 75.5189C1320.89 76.3116 1322.34 76.9231 1323.8 77.5465C1325.64 78.3346 1326.94 79.0737 1328.19 80.6861C1328.82 82.5799 1328.88 83.9262 1328.71 85.9186C1327.61 88.0065 1326.75 89.2991 1324.52 90.1047C1323.11 90.2187 1321.77 90.2746 1320.36 90.2682C1319.99 90.2766 1319.63 90.285 1319.25 90.2937C1316.92 90.2959 1315.28 90.1102 1313.52 88.5349C1313.26 87.237 1313.26 87.237 1313.36 85.8205C1313.38 85.349 1313.4 84.8775 1313.43 84.3918C1313.46 84.0323 1313.49 83.6727 1313.52 83.3023C1314.04 83.3023 1314.56 83.3023 1315.09 83.3023C1315.22 83.5924 1315.36 83.8824 1315.49 84.1812C1315.67 84.5603 1315.85 84.9394 1316.04 85.3299C1316.22 85.7063 1316.39 86.0827 1316.57 86.4705C1317.18 87.6482 1317.18 87.6482 1318.76 88.5349C1321.55 88.7362 1321.55 88.7362 1324 87.4884C1324.3 85.9409 1324.3 85.9409 1324 84.3488C1322.57 83.0434 1321.13 82.4279 1319.31 81.798C1316.96 80.9003 1315.65 79.9869 1314.04 78.0698C1313.87 77.8971 1313.7 77.7244 1313.52 77.5465C1313.32 74.6523 1313.37 72.6816 1315.09 70.2209C1318.18 67.9666 1322.18 67.9676 1325.63 69.4361Z" fill="#ECE9E9"/>
<path d="M1342.92 69.436C1343.67 69.8246 1343.67 69.8246 1344.43 70.2209C1344.43 71.775 1344.43 73.3291 1344.43 74.9302C1342.45 74.2717 1342.28 73.5567 1341.29 71.7907C1340.36 70.6551 1340.36 70.6551 1339.24 70.6236C1337.22 70.4629 1337.22 70.4629 1335.52 71.2674C1335.22 72.7704 1335.22 72.7704 1335.52 74.407C1337.23 75.8957 1339.01 76.6627 1341.09 77.5465C1343.32 78.4985 1344.89 79.5123 1346 81.7326C1346.21 84.4641 1345.95 86.2322 1344.43 88.5349C1342.26 90.2244 1340.28 90.345 1337.62 90.3009C1337.25 90.3069 1336.89 90.313 1336.51 90.3193C1334.2 90.3062 1332.56 90.0939 1330.81 88.5349C1330.55 87.237 1330.55 87.237 1330.64 85.8205C1330.67 85.349 1330.69 84.8775 1330.72 84.3918C1330.75 84.0322 1330.78 83.6727 1330.81 83.3023C1331.33 83.3023 1331.84 83.3023 1332.38 83.3023C1332.51 83.5924 1332.64 83.8824 1332.78 84.1812C1332.96 84.5603 1333.14 84.9394 1333.33 85.3299C1333.5 85.7063 1333.68 86.0827 1333.86 86.4705C1334.47 87.6482 1334.47 87.6482 1336.05 88.5349C1338.84 88.7361 1338.84 88.7361 1341.29 87.4884C1341.59 85.9409 1341.59 85.9409 1341.29 84.3488C1339.86 83.0434 1338.41 82.4279 1336.6 81.798C1334.25 80.9003 1332.94 79.9868 1331.33 78.0698C1331.16 77.8971 1330.99 77.7244 1330.81 77.5465C1330.57 75.3488 1330.59 73.4 1331.4 71.3328C1334.36 67.9828 1338.96 67.7502 1342.92 69.436Z" fill="#ECE9E9"/>
<path d="M1248.56 68.6512C1248.73 69.8599 1248.9 71.0686 1249.08 72.314C1249.35 71.8067 1249.62 71.2995 1249.9 70.7769C1251.18 69.1744 1251.18 69.1744 1253.07 68.6512C1253.66 68.6512 1254.24 68.6512 1254.84 68.6512C1255.89 69.6977 1255.89 69.6977 1256.05 71.2348C1255.89 72.8372 1255.89 72.8372 1255.27 73.8183C1253.98 74.6169 1253.19 74.5891 1251.7 74.407C1250.49 73.8837 1250.49 73.8837 1249.6 73.3605C1249.09 75.0748 1249.02 76.6193 1249.03 78.405C1249.03 79.2448 1249.03 79.2448 1249.03 80.1015C1249.04 80.6829 1249.04 81.2643 1249.05 81.8634C1249.05 82.4529 1249.05 83.0424 1249.05 83.6498C1249.06 85.1038 1249.07 86.5577 1249.08 88.0116C1249.94 88.1843 1250.81 88.357 1251.7 88.5349C1251.7 89.0529 1251.7 89.5709 1251.7 90.1047C1247.9 90.1047 1244.09 90.1047 1240.17 90.1047C1240.17 89.5866 1240.17 89.0686 1240.17 88.5349C1241.21 88.2759 1241.21 88.2759 1242.27 88.0116C1242.31 85.8698 1242.34 83.7281 1242.36 81.5859C1242.36 80.857 1242.37 80.1282 1242.39 79.3994C1242.41 78.3526 1242.42 77.3057 1242.42 76.2588C1242.43 75.6286 1242.44 74.9983 1242.45 74.349C1242.36 73.6007 1242.36 73.6007 1242.27 72.8372C1241.75 72.4919 1241.23 72.1465 1240.7 71.7907C1240.7 71.4454 1240.7 71.1 1240.7 70.7442C1241.61 70.3912 1242.53 70.0433 1243.45 69.6977C1243.96 69.5034 1244.47 69.3092 1245 69.109C1246.46 68.6512 1246.46 68.6512 1248.56 68.6512Z" fill="#ECE9E9"/>
<path d="M1213.98 63.9418C1214.5 63.9418 1215.02 63.9418 1215.55 63.9418C1215.55 65.6686 1215.55 67.3953 1215.55 69.1744C1217.28 69.1744 1219.01 69.1744 1220.79 69.1744C1220.79 69.6924 1220.79 70.2104 1220.79 70.7442C1219.06 70.7442 1217.33 70.7442 1215.55 70.7442C1215.61 72.9703 1215.68 75.1963 1215.75 77.4222C1215.77 78.18 1215.79 78.9378 1215.81 79.6956C1215.84 80.7828 1215.88 81.8698 1215.91 82.9569C1215.93 83.6118 1215.95 84.2667 1215.97 84.9414C1215.91 86.3876 1215.91 86.3876 1216.6 86.9651C1218.36 87.0417 1219.63 87.0027 1221.31 86.4418C1221.13 87.7982 1220.92 88.4144 1219.91 89.3749C1217.62 90.7448 1214.98 90.5002 1212.41 90.1046C1211.04 88.8969 1210.58 88.028 1209.79 86.4418C1209.74 85.2639 1209.73 84.0846 1209.74 82.9058C1209.74 82.3854 1209.74 82.3854 1209.74 81.8544C1209.74 80.7455 1209.75 79.6365 1209.76 78.5276C1209.76 77.7761 1209.76 77.0246 1209.76 76.2731C1209.77 74.4301 1209.78 72.5871 1209.79 70.7442C1209.1 70.7442 1208.41 70.7442 1207.69 70.7442C1208.3 68.9355 1208.72 68.6886 1210.25 67.6373C1211.49 66.78 1212.35 66.1194 1213.23 64.8882C1213.48 64.5759 1213.72 64.2636 1213.98 63.9418Z" fill="#ECE9E9"/>
<path d="M1289.42 61.8488C1289.59 70.4825 1289.77 79.1163 1289.94 88.0116C1290.64 88.1843 1291.33 88.357 1292.04 88.5349C1292.04 89.0529 1292.04 89.5709 1292.04 90.1046C1288.58 90.1046 1285.12 90.1046 1281.56 90.1046C1281.56 89.5866 1281.56 89.0686 1281.56 88.5349C1282.6 88.2759 1282.6 88.2759 1283.66 88.0116C1283.83 80.5866 1284 73.1616 1284.18 65.5116C1283.49 65.3389 1282.8 65.1663 1282.09 64.9884C1282.09 64.4703 1282.09 63.9523 1282.09 63.4186C1282.91 63.1533 1283.74 62.8926 1284.57 62.6337C1285.27 62.4152 1285.27 62.4152 1285.97 62.1922C1287.32 61.8488 1287.32 61.8488 1289.42 61.8488Z" fill="#ECE9E9"/>
<path d="M1180.45 78.593C1179.58 79.5098 1178.84 80.1839 1177.73 80.8168C1176.59 81.7282 1176.59 81.7282 1176.55 83.5639C1176.65 85.3232 1176.65 85.3232 1177.37 86.4091C1178.77 87.1979 1179.93 87.0697 1181.5 86.9651C1181.5 87.4831 1181.5 88.0011 1181.5 88.5349C1179.5 90.3293 1177.42 90.3796 1174.85 90.2804C1173.64 90.1046 1173.64 90.1046 1172.3 89.3524C1171.19 87.3748 1170.87 85.5619 1171.02 83.3023C1172.27 80.5611 1174.92 79.6844 1177.54 78.499C1178.88 78.0697 1178.88 78.0697 1180.45 78.593Z" fill="#ECE9E9"/>
<path d="M1039 95.3372C1044.71 95.3372 1050.41 95.3372 1056.29 95.3372C1056.29 96.5459 1056.29 97.7547 1056.29 99C1050.58 99 1044.88 99 1039 99C1039 97.7913 1039 96.5826 1039 95.3372Z" fill="#ECE9E9"/>
<path d="M1300.95 79.1163C1300.6 79.4616 1300.25 79.807 1299.9 80.1628C1298.48 82.293 1298.6 83.3952 1298.85 85.9186C1299.8 87.103 1299.8 87.103 1301.17 87.0305C1301.62 87.0089 1302.06 86.9873 1302.52 86.9651C1303.04 86.9651 1303.55 86.9651 1304.09 86.9651C1302.19 89.516 1302.19 89.516 1300.42 90.1046C1297.95 90.4286 1296.25 90.4458 1294.1 89.0908C1292.93 87.2429 1292.64 86.1009 1292.76 83.94C1293.36 81.7966 1294.92 80.7666 1296.75 79.6395C1299 78.468 1299 78.468 1300.95 79.1163Z" fill="#ECE9E9"/>
<path d="M1182.55 78.593C1182.55 81.1831 1182.55 83.7733 1182.55 86.4419C1180.27 87.5762 1179.67 87.6313 1177.31 86.9651C1176 85.012 1175.98 84.043 1176.26 81.7326C1177.92 79.9756 1180.05 78.593 1182.55 78.593Z" fill="#667AFB"/>
<path d="M1231.04 69.8939C1232.84 70.221 1232.84 70.221 1233.85 71.3002C1234.41 72.8372 1234.41 72.8372 1234.41 76.5C1231.82 76.5 1229.22 76.5 1226.55 76.5C1227.41 70.5303 1227.41 70.5303 1231.04 69.8939Z" fill="#667AFB"/>
<path d="M1304.09 78.593C1304.13 79.8797 1304.16 81.165 1304.19 82.452C1304.21 83.0004 1304.21 83.0004 1304.23 83.5599C1304.24 84.6227 1304.24 84.6227 1304.09 86.4419C1302.4 87.5695 1301.86 87.7335 1299.9 87.4884C1298.95 86.9651 1298.95 86.9651 1298.33 85.9186C1298.12 84.3019 1297.99 83.2765 1298.33 81.7326C1299.73 80.2117 1301.89 78.593 1304.09 78.593Z" fill="#667AFB"/>
<path d="M1180.29 68.6184C1181.21 68.6255 1181.21 68.6255 1182.16 68.6327C1182.63 68.6388 1183.11 68.6449 1183.59 68.6511C1183.59 68.8238 1183.59 68.9965 1183.59 69.1744C1182.73 69.1744 1181.86 69.1744 1180.97 69.1744C1180.8 69.5197 1180.63 69.8651 1180.45 70.2209C1179.23 70.434 1178.01 70.6104 1176.78 70.7442C1177.3 71.5212 1177.3 71.5212 1177.83 72.3139C1177.96 73.9164 1177.96 73.9164 1177.83 75.4535C1176.78 76.5 1176.78 76.5 1175.24 76.6635C1173.64 76.5 1173.64 76.5 1172.62 75.944C1171.7 74.2527 1172.08 73.0739 1172.59 71.2674C1175.01 68.8505 1176.96 68.5856 1180.29 68.6184Z" fill="#ECE9E9"/>
<path d="M1191.45 82.7791C1191.97 82.7791 1192.49 82.7791 1193.02 82.7791C1193.21 83.205 1193.21 83.205 1193.41 83.6396C1194.74 86.5793 1194.74 86.5793 1197.21 88.5349C1198.6 88.9086 1198.6 88.9086 1199.83 89.0581C1197.87 90.3634 1196.92 90.3014 1194.6 90.1046C1192.79 89.3198 1192.79 89.3198 1191.45 88.5349C1191.45 86.6354 1191.45 84.736 1191.45 82.7791Z" fill="#ECE9E9"/>
<path d="M1323.18 68.7493C1325.04 69.1744 1325.04 69.1744 1327.14 70.2209C1327.14 71.775 1327.14 73.329 1327.14 74.9302C1326.62 74.9302 1326.1 74.9302 1325.57 74.9302C1325.33 74.4338 1325.09 73.9373 1324.85 73.4258C1324.1 71.789 1324.1 71.789 1322.95 70.7442C1321.91 70.5361 1320.86 70.3581 1319.81 70.2209C1320.86 68.6728 1321.26 68.6445 1323.18 68.7493Z" fill="#ECE9E9"/>
<path d="M1199.31 68.6512C1200.06 68.7111 1200.82 68.7779 1201.57 68.8474C1202.2 68.902 1202.2 68.902 1202.84 68.9578C1204.03 69.1744 1204.03 69.1744 1205.6 70.221C1205.75 71.3533 1205.75 71.3533 1205.7 72.641C1205.68 73.0686 1205.67 73.4963 1205.65 73.9369C1205.63 74.2647 1205.62 74.5925 1205.6 74.9303C1205.08 74.9303 1204.56 74.9303 1204.03 74.9303C1203.53 74.0105 1203.04 73.0907 1202.54 72.1709C1201.91 71.1079 1201.91 71.1079 1200.36 70.221C1200.36 69.8756 1200.36 69.5303 1200.36 69.1744C1200.01 69.0018 1199.67 68.8291 1199.31 68.6512Z" fill="#ECE9E9"/>
<path d="M1340.47 68.7493C1342.33 69.1744 1342.33 69.1744 1344.43 70.2209C1344.43 71.775 1344.43 73.329 1344.43 74.9302C1342.45 74.2717 1342.28 73.5567 1341.28 71.7907C1339.94 70.4483 1338.94 70.4614 1337.09 70.2209C1338.15 68.6728 1338.54 68.6445 1340.47 68.7493Z" fill="#ECE9E9"/>
<path d="M1176.78 68.6512C1179.03 68.6512 1181.28 68.6512 1183.59 68.6512C1183.59 68.8239 1183.59 68.9965 1183.59 69.1744C1182.73 69.1744 1181.87 69.1744 1180.97 69.1744C1180.8 69.5198 1180.63 69.8651 1180.45 70.221C1179.06 70.5315 1177.68 70.6093 1176.26 70.7442C1176.43 70.0535 1176.61 69.3628 1176.78 68.6512Z" fill="#ECE9E9"/>
</g>
<g clip-path="url(#clip1_6_476)">
<path d="M403 15C476.26 15 549.52 15 625 15C625 53.28 625 91.56 625 131C551.74 131 478.48 131 403 131C403 92.72 403 54.44 403 15Z" fill="#667AFB"/>
<path d="M487.783 55.4474C489.655 55.4474 491.527 55.4474 493.456 55.4474C493.456 66.2766 493.456 77.1058 493.456 88.2632C491.584 88.2632 489.712 88.2632 487.783 88.2632C487.783 87.558 487.783 86.8529 487.783 86.1263C487.546 86.3089 487.309 86.4915 487.064 86.6796C484.097 88.8172 480.853 89.022 477.343 88.5201C474.297 87.9893 471.953 86.0139 470.155 83.5781C469.563 82.7051 469.233 81.9799 469.079 80.9369C468.978 80.9369 468.876 80.9369 468.772 80.9369C467.662 77.5429 467.824 73.6055 469.372 70.3856C470.339 68.5165 472.058 66.3999 474.061 65.6165C474.188 65.585 474.314 65.5535 474.445 65.5211C474.445 65.4203 474.445 65.3196 474.445 65.2158C474.77 65.0676 475.096 64.9217 475.422 64.777C475.604 64.6955 475.785 64.6141 475.972 64.5302C477.212 64.034 478.467 63.9433 479.792 63.9566C479.939 63.9575 480.087 63.9584 480.239 63.9594C481.732 63.9801 483.046 64.1174 484.41 64.7579C484.77 64.8836 485.133 65.001 485.496 65.1168C485.79 65.2158 485.79 65.2158 486.097 65.3684C486.097 65.4692 486.097 65.5699 486.097 65.6737C486.258 65.7304 486.258 65.7304 486.422 65.7882C486.863 65.979 486.863 65.979 487.783 66.5895C487.783 62.9126 487.783 59.2357 487.783 55.4474Z" fill="#ECE9E9"/>
<path d="M540.515 65.8555C540.936 66.2242 541.269 66.5946 541.597 67.0474C541.597 67.1481 541.597 67.2488 541.597 67.3526C541.702 67.2641 541.808 67.1756 541.917 67.0843C544.913 64.6053 544.913 64.6053 546.503 64.6053C546.503 64.5045 546.503 64.4038 546.503 64.3C548.568 63.864 550.571 63.864 552.635 64.3C552.635 64.4007 552.635 64.5015 552.635 64.6053C552.838 64.6286 552.838 64.6286 553.044 64.6524C554.54 64.961 555.866 66.2058 556.732 67.4158C557.915 69.2806 558.206 71.3232 558.19 73.5001C558.19 73.6611 558.19 73.8222 558.19 73.9881C558.189 74.5133 558.187 75.0385 558.185 75.5637C558.184 75.9307 558.184 76.2977 558.183 76.6646C558.182 77.6251 558.179 78.5857 558.176 79.5462C558.173 80.5284 558.171 81.5107 558.17 82.493C558.166 84.4164 558.161 86.3398 558.155 88.2632C556.283 88.2632 554.411 88.2632 552.482 88.2632C552.479 87.5735 552.479 87.5735 552.475 86.8698C552.468 85.348 552.457 83.8262 552.446 82.3044C552.439 81.3821 552.433 80.4597 552.429 79.5373C552.425 78.6466 552.419 77.756 552.411 76.8653C552.408 76.526 552.407 76.1868 552.406 75.8476C552.404 75.3711 552.4 74.8948 552.395 74.4184C552.395 74.2792 552.395 74.14 552.396 73.9966C552.376 72.6321 552.004 71.3092 551.102 70.2526C549.863 69.262 548.668 69.2449 547.116 69.3368C546.122 69.5076 545.305 69.9277 544.663 70.7105C543.803 72.119 543.569 73.3024 543.558 74.9209C543.557 75.0655 543.555 75.21 543.554 75.3589C543.549 75.8346 543.545 76.3103 543.541 76.786C543.538 77.1166 543.535 77.4472 543.532 77.7779C543.523 78.6466 543.516 79.5152 543.508 80.3839C543.5 81.271 543.492 82.158 543.483 83.0451C543.467 84.7844 543.452 86.5238 543.436 88.2632C541.565 88.2632 539.693 88.2632 537.764 88.2632C537.759 87.6373 537.759 87.6373 537.755 86.9989C537.744 85.6117 537.732 84.2246 537.72 82.8374C537.712 81.9974 537.705 81.1573 537.699 80.3173C537.693 79.5048 537.686 78.6923 537.678 77.8798C537.675 77.5717 537.673 77.2636 537.671 76.9554C537.809 73.2849 537.809 73.2849 536.281 70.1352C535.28 69.1938 534.13 69.2835 532.803 69.2939C531.676 69.3806 530.982 69.8656 530.251 70.7105C530.185 70.7855 530.119 70.8605 530.051 70.9377C528.707 72.6007 528.952 74.8522 528.946 76.8605C528.944 77.19 528.941 77.5196 528.938 77.8491C528.931 78.7115 528.926 79.5739 528.922 80.4363C528.918 81.3183 528.911 82.2003 528.904 83.0823C528.89 84.8093 528.88 86.5362 528.872 88.2632C527 88.2632 525.128 88.2632 523.199 88.2632C523.199 80.4057 523.199 72.5482 523.199 64.4526C525.071 64.4526 526.943 64.4526 528.872 64.4526C528.872 65.2082 528.872 65.9637 528.872 66.7421C529.045 66.5847 529.219 66.4273 529.399 66.2651C532.645 63.4585 537.1 63.1203 540.515 65.8555Z" fill="#ECE9E9"/>
<path d="M516.76 66.7421C518.105 68.0329 519.262 69.4534 519.731 71.2782C519.82 71.6048 519.933 71.892 520.075 72.1987C520.834 73.9833 520.439 76.2749 520.439 78.0369C514.317 78.0369 508.196 78.0369 501.888 78.0369C501.964 78.9435 501.964 78.9435 502.041 79.8685C502.143 79.8685 502.244 79.8685 502.348 79.8685C502.452 80.1187 502.452 80.1187 502.559 80.374C503.299 81.8319 504.472 82.9943 506.028 83.5316C508.467 84.3108 511.085 83.8934 513.313 82.7696C513.737 82.5485 514.12 82.3367 514.496 82.0399C514.767 81.8527 514.767 81.8527 515.342 81.9004C515.506 81.935 515.67 81.9696 515.84 82.0053C515.84 82.106 515.84 82.2068 515.84 82.3106C515.938 82.3464 516.037 82.3822 516.139 82.4191C516.766 82.6828 517.358 83.0016 517.957 83.3217C518.139 83.418 518.139 83.418 518.324 83.5161C518.62 83.6736 518.917 83.8314 519.213 83.9895C519.213 84.4474 519.213 84.4474 519.004 84.6829C517.107 86.2762 515.262 87.4266 512.927 88.2632C512.796 88.3108 512.665 88.3584 512.53 88.4075C511.228 88.8634 510.015 88.8943 508.644 88.8833C508.399 88.8822 508.399 88.8822 508.149 88.8812C507.748 88.8794 507.348 88.8769 506.948 88.8737C506.948 88.773 506.948 88.6722 506.948 88.5685C506.827 88.5645 506.706 88.5606 506.582 88.5565C505.296 88.4899 504.174 88.2301 502.961 87.8053C502.961 87.7046 502.961 87.6038 502.961 87.5C502.8 87.4764 502.8 87.4764 502.636 87.4523C502.135 87.3331 501.728 87.1306 501.275 86.8895C501.275 86.7888 501.275 86.688 501.275 86.5842C501.164 86.5496 501.054 86.515 500.939 86.4793C500.412 86.2343 500.14 85.94 499.742 85.5158C499.646 85.4275 499.551 85.3391 499.453 85.2481C498.657 84.502 498.111 83.7252 497.595 82.7684C497.539 82.6681 497.482 82.5678 497.424 82.4644C496.383 80.5275 496.19 78.6753 496.196 76.5201C496.196 76.3313 496.195 76.1425 496.195 75.948C496.197 73.4383 496.197 73.4383 496.675 72.5421C496.72 72.3564 496.764 72.1707 496.81 71.9793C497.388 69.5975 498.937 67.6051 500.882 66.1698C500.977 66.0995 501.072 66.0293 501.17 65.9569C505.827 62.6266 512.449 63.1521 516.76 66.7421Z" fill="#ECE9E9"/>
<path d="M558.768 64.4526C560.691 64.4526 562.613 64.4526 564.594 64.4526C565.092 65.75 565.092 65.75 565.245 66.151C565.464 66.7156 565.692 67.2616 565.975 67.7974C566.353 68.5284 566.589 69.2987 566.836 70.0809C566.927 70.367 567.018 70.6528 567.11 70.9383C567.15 71.0632 567.189 71.1881 567.23 71.3168C567.341 71.6539 567.341 71.6539 567.66 71.9316C567.764 72.186 567.859 72.4443 567.948 72.7043C568.181 73.3664 568.441 74.0037 568.733 74.642C568.953 75.1318 569.15 75.6294 569.348 76.1284C569.444 76.3697 569.542 76.6103 569.643 76.8498C570.053 77.8352 570.387 78.8412 570.71 79.858C570.748 79.9732 570.785 80.0884 570.824 80.2071C570.857 80.3109 570.89 80.4146 570.924 80.5216C571.027 80.8172 571.027 80.8172 571.34 81.0895C571.34 81.2406 571.34 81.3917 571.34 81.5474C571.441 81.5474 571.542 81.5474 571.646 81.5474C571.664 81.4677 571.682 81.388 571.701 81.3059C572.025 80.0959 572.498 78.9055 573.023 77.7691C573.203 77.3754 573.369 76.9771 573.534 76.5773C573.751 76.0556 573.971 75.5363 574.201 75.0206C574.717 73.867 575.202 72.7122 575.626 71.5218C575.833 70.9522 576.086 70.4642 576.399 69.9474C576.506 69.6576 576.605 69.3648 576.696 69.0697C576.875 68.5185 577.058 67.9843 577.3 67.4576C577.749 66.4707 578.141 65.4587 578.546 64.4526C580.519 64.4526 582.492 64.4526 584.525 64.4526C584.525 64.5534 584.525 64.6541 584.525 64.7579C584.424 64.7579 584.322 64.7579 584.218 64.7579C584.194 64.8468 584.17 64.9358 584.145 65.0274C583.88 65.9532 583.544 66.8268 583.158 67.7092C583.019 68.0496 582.915 68.3678 582.838 68.7263C582.737 68.7263 582.636 68.7263 582.532 68.7263C582.48 68.9294 582.48 68.9294 582.426 69.1365C582.067 70.378 581.58 71.5697 580.979 72.7138C580.604 73.4363 580.38 74.126 580.188 74.9139C580.03 75.4581 579.759 75.8732 579.465 76.3579C579.342 76.6544 579.234 76.9542 579.125 77.2564C578.861 77.9683 578.572 78.68 578.153 79.3151C577.926 79.7269 577.827 80.0823 577.712 80.5362C577.556 81.1373 577.373 81.6175 577.039 82.1472C576.445 83.1919 576.018 84.3635 575.607 85.4896C575.357 86.1372 575.073 86.7713 574.797 87.4082C574.578 87.9139 574.367 88.4217 574.157 88.9309C573.946 89.4398 573.725 89.9324 573.467 90.4191C573.17 90.9867 573.003 91.5677 572.844 92.1863C572.706 92.5764 572.512 92.8207 572.26 93.1474C572.121 93.425 571.987 93.7051 571.857 93.9868C571.091 95.5349 570.025 96.8819 568.733 98.0316C568.616 98.1363 568.499 98.2409 568.379 98.3488C566.549 99.6516 563.774 99.2979 561.681 99.2526C561.681 97.5905 561.681 95.9283 561.681 94.2158C563.214 94.1967 563.214 94.1967 563.69 94.1978C564.746 94.1655 565.382 93.8978 566.127 93.1474C566.436 92.7677 566.436 92.7677 566.635 92.3747C566.738 92.1879 566.738 92.1879 566.844 91.9973C566.911 91.8731 566.978 91.749 567.047 91.6211C567.124 91.4995 567.202 91.3779 567.282 91.2526C567.534 90.8105 567.687 90.3784 567.842 89.8944C567.895 89.7313 567.948 89.5682 568.002 89.4001C568.041 89.2768 568.08 89.1534 568.12 89.0263C568.221 89.0263 568.323 89.0263 568.427 89.0263C568.351 88.3463 568.351 88.3463 568.273 87.6526C568.172 87.6526 568.071 87.6526 567.967 87.6526C567.92 87.5214 567.874 87.3902 567.826 87.255C567.009 84.897 567.009 84.897 565.979 82.6283C565.445 81.5598 565.035 80.4595 564.708 79.3133C564.556 78.8319 564.352 78.3837 564.139 77.9265C563.974 77.5637 563.828 77.1967 563.684 76.8253C563.481 76.3107 563.254 75.8255 562.994 75.3372C562.571 74.5185 562.297 73.6636 562.02 72.7883C561.765 72.0306 561.461 71.3088 561.077 70.6056C560.747 69.9584 560.534 69.2869 560.311 68.5969C559.915 67.4302 559.402 66.3048 558.875 65.1913C558.768 64.9105 558.768 64.9105 558.768 64.4526Z" fill="#ECE9E9"/>
<path d="M443.475 64.4526C445.398 64.4526 447.32 64.4526 449.301 64.4526C449.303 64.8931 449.306 65.3336 449.308 65.7875C449.316 67.2466 449.326 68.7056 449.337 70.1647C449.344 71.0489 449.35 71.933 449.354 72.8173C449.358 73.6714 449.364 74.5254 449.372 75.3795C449.375 75.7045 449.376 76.0296 449.377 76.3546C449.379 76.8117 449.383 77.2686 449.388 77.7255C449.388 77.8585 449.388 77.9915 449.387 78.1284C449.4 78.9591 449.542 79.6592 449.816 80.4446C449.914 80.7842 449.914 80.7842 449.914 81.3947C450.016 81.3947 450.117 81.3947 450.221 81.3947C450.43 81.6456 450.633 81.9008 450.834 82.1579C451.411 82.815 451.411 82.815 452.214 83.0737C452.214 83.1744 452.214 83.2752 452.214 83.379C454.145 83.6928 455.928 83.7953 457.58 82.6158C458.534 81.7538 459.351 80.7249 459.441 79.4023C459.442 79.2903 459.443 79.1783 459.444 79.0629C459.446 78.9337 459.447 78.8044 459.449 78.6712C459.45 78.5307 459.45 78.3902 459.451 78.2454C459.453 78.0964 459.454 77.9475 459.456 77.794C459.461 77.3018 459.465 76.8096 459.468 76.3174C459.472 75.976 459.475 75.6347 459.478 75.2934C459.487 74.3951 459.494 73.4968 459.501 72.5985C459.509 71.6818 459.518 70.7651 459.526 69.8484C459.543 68.0498 459.558 66.2512 459.573 64.4526C461.496 64.4526 463.418 64.4526 465.399 64.4526C465.403 66.5861 465.405 68.7196 465.407 70.853C465.408 71.8437 465.409 72.8343 465.411 73.8249C465.412 74.7809 465.413 75.7369 465.414 76.6929C465.414 77.0577 465.415 77.4225 465.415 77.7872C465.416 78.298 465.417 78.8089 465.417 79.3197C465.417 79.4705 465.418 79.6214 465.418 79.7768C465.417 80.4865 465.394 81.1545 465.246 81.8526C465.145 81.8526 465.043 81.8526 464.939 81.8526C464.916 82.0415 464.916 82.0415 464.891 82.2342C464.694 83.2357 464.387 83.9735 463.713 84.7526C463.667 84.85 463.621 84.9474 463.574 85.0478C462.993 86.1394 461.554 86.9409 460.493 87.5C460.059 87.6061 460.059 87.6061 459.727 87.6526C459.676 87.8037 459.625 87.9548 459.573 88.1105C459.094 88.25 459.094 88.25 458.5 88.3586C457.837 88.429 457.837 88.429 457.273 88.7211C456.23 88.9322 455.172 88.9017 454.111 88.9023C453.925 88.9042 453.739 88.906 453.547 88.908C453.368 88.9083 453.188 88.9086 453.003 88.9089C452.76 88.9098 452.76 88.9098 452.511 88.9108C452.045 88.8724 451.718 88.758 451.294 88.5684C450.998 88.4944 450.701 88.4246 450.403 88.3586C448.092 87.7912 446.06 86.2711 444.826 84.2435C444.702 83.9895 444.702 83.9895 444.702 83.6842C444.6 83.6842 444.499 83.6842 444.395 83.6842C444.365 83.5811 444.336 83.478 444.305 83.3718C444.265 83.2356 444.225 83.0995 444.184 82.9592C444.145 82.8246 444.106 82.6901 444.066 82.5514C443.951 82.1663 443.951 82.1663 443.776 81.8693C443.359 80.9593 443.454 79.8646 443.458 78.8865C443.458 78.73 443.458 78.5736 443.458 78.4123C443.458 77.8978 443.459 77.3834 443.46 76.8689C443.46 76.5111 443.461 76.1533 443.461 75.7955C443.461 74.8558 443.463 73.9161 443.465 72.9764C443.466 72.0167 443.467 71.057 443.468 70.0973C443.469 68.2158 443.472 66.3342 443.475 64.4526Z" fill="#ECE9E9"/>
<path d="M480.543 69.1603C482.96 69.0921 484.431 69.7544 486.25 71.321C487.342 72.3616 488.089 73.7391 488.126 75.2561C488.18 78.0031 487.747 79.7377 485.847 81.8001C485.108 82.5269 484.393 82.9948 483.337 83.0737C483.337 83.1744 483.337 83.2751 483.337 83.3789C480.879 83.9 478.943 83.741 476.744 82.4631C476.129 82.0466 475.64 81.5437 475.211 80.9368C475.211 80.8361 475.211 80.7354 475.211 80.6316C475.11 80.6316 475.009 80.6316 474.905 80.6316C474.445 79.773 474.445 79.773 474.445 79.2579C474.344 79.2579 474.242 79.2579 474.138 79.2579C473.874 78.1691 473.792 77.1512 473.812 76.0335C473.814 75.8875 473.815 75.7416 473.817 75.5911C473.82 75.2362 473.825 74.8812 473.831 74.5263C473.933 74.5263 474.034 74.5263 474.138 74.5263C474.148 74.4356 474.157 74.3449 474.167 74.2514C474.429 72.4892 475.381 71.2982 476.78 70.2341C478.017 69.3975 479.077 69.2208 480.543 69.1603Z" fill="#667AFB"/>
<path d="M454.974 46.9C455.34 47.083 455.34 47.083 455.692 47.3102C456.215 47.6368 456.739 47.9464 457.283 48.2355C458.022 48.6323 458.745 49.0505 459.468 49.4757C460.312 49.9723 461.157 50.4675 462.007 50.9543C462.263 51.1009 462.263 51.1009 462.523 51.2506C462.941 51.4921 462.941 51.4921 463.406 51.6316C463.406 51.7323 463.406 51.833 463.406 51.9368C463.536 51.9746 463.665 52.0124 463.799 52.0513C464.326 52.2421 464.326 52.2421 465.399 52.8526C465.399 54.9177 465.399 56.9828 465.399 59.1105C464.538 58.939 464.538 58.939 464.075 58.6359C463.975 58.5714 463.874 58.5068 463.77 58.4403C463.666 58.3719 463.562 58.3034 463.454 58.2329C462.544 57.65 461.633 57.1169 460.646 56.6684C460.646 56.5677 460.646 56.4669 460.646 56.3632C460.504 56.3222 460.362 56.2813 460.215 56.2391C459.744 56.0642 459.599 55.9457 459.267 55.6C458.944 55.4909 458.944 55.4909 458.653 55.4474C458.653 55.3466 458.653 55.2459 458.653 55.1421C458.542 55.1248 458.43 55.1075 458.315 55.0897C457.871 54.9858 457.565 54.8367 457.173 54.6073C456.976 54.4944 456.976 54.4944 456.774 54.3792C456.5 54.2202 456.227 54.0604 455.954 53.8999C454.993 53.3372 454.993 53.3372 453.901 53.3105C453.589 53.4535 453.282 53.605 452.981 53.7684C452.879 53.7684 452.778 53.7684 452.674 53.7684C452.674 53.8692 452.674 53.9699 452.674 54.0737C452.256 54.2969 451.837 54.5193 451.419 54.7414C451.301 54.8044 451.183 54.8674 451.062 54.9322C450.581 55.1867 450.121 55.4279 449.61 55.6155C449.508 55.6607 449.406 55.706 449.301 55.7526C449.251 55.9037 449.2 56.0548 449.148 56.2105C448.898 56.3248 448.648 56.4371 448.392 56.5369C447.811 56.7774 447.271 57.096 446.723 57.403C446.602 57.4702 446.481 57.5375 446.357 57.6068C445.577 58.042 444.807 58.4902 444.05 58.9639C443.782 59.1105 443.782 59.1105 443.475 59.1105C443.475 57.0454 443.475 54.9803 443.475 52.8526C443.93 52.6008 444.386 52.3489 444.855 52.0895C445.309 51.8298 445.763 51.5693 446.216 51.3072C446.473 51.1586 446.73 51.0099 446.988 50.8613C447.117 50.7862 447.247 50.7111 447.381 50.6338C447.749 50.4214 448.118 50.2095 448.486 49.9979C448.662 49.897 448.662 49.897 448.841 49.794C449.078 49.658 449.314 49.5223 449.551 49.3869C450.235 48.9948 450.911 48.5925 451.582 48.1795C451.733 48.0873 451.885 47.9951 452.041 47.9001C452.336 47.7202 452.63 47.5383 452.922 47.3541C454.177 46.5932 454.177 46.5932 454.974 46.9Z" fill="#ECE9E9"/>
<path d="M513.126 70.2353C514.251 71.2762 514.424 72.1029 514.613 73.6105C510.465 73.6105 506.316 73.6105 502.041 73.6105C502.387 71.8919 502.387 71.8919 502.961 71.1684C503.051 71.047 503.141 70.9256 503.233 70.8006C505.763 67.8711 510.261 67.8928 513.126 70.2353Z" fill="#667AFB"/>
<path d="M476.744 70.2526C476.846 70.303 476.947 70.3534 477.051 70.4053C476.444 71.0097 475.837 71.6141 475.211 72.2368C475.211 71.6007 475.555 71.2994 475.978 70.8632C476.228 70.653 476.482 70.4469 476.744 70.2526Z" fill="#ECE9E9"/>
<path d="M545.276 69.9474C545.377 69.9474 545.479 69.9474 545.583 69.9474C545.362 70.4611 545.072 70.7885 544.663 71.1684C544.562 71.1181 544.461 71.0677 544.356 71.0158C544.502 70.8368 544.649 70.659 544.797 70.4816C544.879 70.3824 544.961 70.2833 545.045 70.1811C545.159 70.0654 545.159 70.0654 545.276 69.9474Z" fill="#ECE9E9"/>
<path d="M555.088 65.6737C555.453 65.7214 555.453 65.7214 555.855 65.8263C555.956 65.9774 556.057 66.1285 556.162 66.2842C556.06 66.385 555.959 66.4857 555.855 66.5895C555.602 66.2873 555.349 65.9851 555.088 65.6737Z" fill="#ECE9E9"/>
<path d="M452.521 47.6631C452.622 47.7135 452.723 47.7639 452.827 47.8158C452.525 48.2008 452.372 48.2726 451.879 48.3786C451.665 48.4022 451.665 48.4022 451.448 48.4263C452.176 47.8349 452.176 47.8349 452.521 47.6631Z" fill="#ECE9E9"/>
</g>
<path d="M285.945 61.652C286.451 62.0755 286.852 62.4433 287.221 62.9915C287.439 62.1322 287.656 61.2729 287.88 60.3876C289.944 60.3876 292.008 60.3876 294.134 60.3876C294.134 68.7655 294.134 77.1434 294.134 85.7752C292.07 85.7752 290.006 85.7752 287.88 85.7752C287.662 85.077 287.445 84.3789 287.221 83.6595C286.761 83.6595 286.663 83.8536 286.337 84.1681C284.057 86.1744 281.19 86.439 278.267 86.2971C275.78 86.1011 273.453 84.9261 271.585 83.3341C271.476 83.2495 271.367 83.165 271.255 83.0779C268.817 81.1258 267.359 78.0812 266.976 75.0343C266.632 71.0333 267.592 67.46 270.162 64.3067C273.866 60.092 281.11 57.8858 285.945 61.652ZM275.237 68.84C274.041 70.2548 273.451 72.0097 273.595 73.8525C273.877 75.7149 274.761 77.3033 276.289 78.4429C278.014 79.5818 279.778 80.1154 281.862 79.825C283.713 79.4349 285.337 78.4718 286.429 76.9465C286.588 76.6917 286.743 76.434 286.892 76.1735C286.961 76.0551 287.029 75.9368 287.1 75.8149C287.835 74.3151 287.809 72.3723 287.293 70.803C286.395 68.7466 284.722 67.3746 282.662 66.5584C279.799 65.7709 277.203 66.7391 275.237 68.84Z" fill="#ECE9E9"/>
<path d="M245.497 62.5032C245.747 62.7165 245.994 62.9334 246.238 63.1541C246.354 63.2559 246.47 63.3576 246.59 63.4625C248.79 65.4973 250.194 68.6228 250.382 71.5937C250.473 74.3517 250.473 74.3517 250.188 75.197C248.432 75.202 246.677 75.2053 244.921 75.2071C244.791 75.2073 244.661 75.2074 244.527 75.2076C239.938 75.2119 235.354 75.1606 230.766 75.0342C230.969 75.4532 231.174 75.871 231.38 76.2885C231.466 76.4652 231.466 76.4652 231.553 76.6455C232.276 78.1032 233.34 78.9765 234.857 79.5954C237.175 80.3044 239.443 80.1625 241.661 79.1841C242.425 78.7804 243.37 78.265 243.769 77.4753C244.571 77.5454 245.016 77.938 245.59 78.4518C246.592 79.3212 247.63 80.116 248.707 80.8929C247.643 83.179 245.192 84.5128 242.946 85.4497C239.191 86.8203 235.054 86.589 231.425 84.9614C228.076 83.346 225.991 80.5914 224.612 77.2452C223.699 74.479 223.866 71.0895 224.841 68.3619C224.899 68.1915 224.956 68.0212 225.016 67.8457C226.103 64.9634 228.334 62.5829 231.095 61.2013C235.798 59.0971 241.339 59.3142 245.497 62.5032ZM232.021 68.4534C231.579 68.9931 231.095 69.5963 231.095 70.3147C235.169 70.3147 239.243 70.3147 243.44 70.3147C243.208 68.9422 242.571 68.1381 241.464 67.2977C238.39 65.1514 234.518 65.712 232.021 68.4534Z" fill="#ECE9E9"/>
<path d="M152.42 62.6659C155.353 64.9672 157.066 68.1291 157.523 71.7794C157.741 75.6574 156.629 78.9817 154.118 81.9711C151.677 84.5573 148.324 86.1323 144.753 86.3244C140.669 86.4533 137.322 85.3028 134.22 82.6449C132.586 81.1279 131.411 79.2475 130.694 77.1499C130.616 76.9249 130.616 76.9249 130.536 76.6954C129.542 73.2699 130.143 69.5837 131.836 66.4999C132.264 65.7539 132.743 65.0905 133.328 64.4561C133.446 64.3248 133.563 64.1934 133.685 64.0581C138.575 58.8994 146.774 58.5119 152.42 62.6659ZM138.449 68.6899C137.304 70.1355 136.566 71.866 136.784 73.7323C137.139 75.575 137.959 77.2894 139.502 78.4327C141.181 79.5397 142.944 80.1358 144.983 79.8351C146.666 79.437 148.438 78.5608 149.458 77.1499C150.561 75.321 151.149 73.5935 150.662 71.4463C150.035 69.6236 148.904 68.0638 147.173 67.1292C144.122 65.7254 140.796 66.2063 138.449 68.6899Z" fill="#ECE9E9"/>
<path d="M159.663 60.3876C161.889 60.3876 164.116 60.3876 166.411 60.3876C166.413 60.8573 166.416 61.3269 166.418 61.8108C166.426 63.3666 166.437 64.9222 166.45 66.4779C166.457 67.4207 166.463 68.3634 166.468 69.3062C166.472 70.2169 166.479 71.1275 166.487 72.0381C166.49 72.3847 166.492 72.7313 166.493 73.0779C166.494 73.5652 166.499 74.0523 166.504 74.5396C166.504 74.6814 166.504 74.8231 166.504 74.9692C166.525 76.3789 166.836 77.7034 167.748 78.8167C168.867 79.8537 170.259 80.1251 171.741 80.1034C173.254 80.0185 174.44 79.5228 175.505 78.4416C176.887 76.6407 176.715 74.4183 176.716 72.2753C176.718 71.9315 176.721 71.5876 176.724 71.2438C176.731 70.3449 176.735 69.446 176.737 68.547C176.741 67.4652 176.749 66.3834 176.757 65.3016C176.769 63.6636 176.774 62.0257 176.78 60.3876C179.061 60.3876 181.343 60.3876 183.693 60.3876C183.693 68.7655 183.693 77.1434 183.693 85.7752C181.412 85.7752 179.13 85.7752 176.78 85.7752C176.726 85.0233 176.671 84.2714 176.615 83.4968C176.486 83.6646 176.358 83.8324 176.225 84.0053C174.993 85.4165 173.027 86.1999 171.184 86.4261C168.232 86.5873 165.285 86.3824 162.934 84.3836C160.887 82.4415 159.687 79.9257 159.623 77.1006C159.622 76.7889 159.623 76.4771 159.625 76.1654C159.625 75.9937 159.625 75.8221 159.625 75.6452C159.625 75.0834 159.628 74.5217 159.63 73.9599C159.631 73.5682 159.631 73.1764 159.632 72.7847C159.633 71.7579 159.636 70.7311 159.64 69.7043C159.643 68.6548 159.645 67.6053 159.646 66.5558C159.65 64.4997 159.656 62.4437 159.663 60.3876Z" fill="#ECE9E9"/>
<path d="M219.636 62.1574C220.704 63.0571 221.649 63.9105 222.043 65.2698C219.391 66.7002 219.391 66.7002 218.908 66.959C218.577 67.1383 218.248 67.3206 217.921 67.5054C217.761 67.5946 217.602 67.6839 217.438 67.7758C217.294 67.857 217.151 67.9383 217.004 68.022C216.611 68.1991 216.611 68.1991 215.953 68.1991C215.719 67.943 215.719 67.943 215.5 67.599C214.755 66.5503 213.772 65.9931 212.497 65.758C211.345 65.6623 210.403 65.7168 209.369 66.2463C208.953 66.7072 208.876 66.9323 208.876 67.5482C209.09 68.184 209.341 68.4194 209.863 68.8501C210.369 69.086 210.892 69.2478 211.427 69.4095C211.578 69.4574 211.729 69.5054 211.885 69.5547C212.963 69.8924 214.051 70.197 215.14 70.4979C217.65 71.1937 220.335 72.1387 221.791 74.4399C222.785 76.2884 223.02 78.3428 222.496 80.3844C221.859 82.3695 220.752 83.7918 218.924 84.8693C216.703 85.9967 214.431 86.3263 211.962 86.3142C211.67 86.313 211.67 86.313 211.372 86.3118C208.077 86.2683 204.884 85.503 202.415 83.212C201.571 82.331 200.755 81.2773 200.481 80.0792C200.633 80.0021 200.785 79.9249 200.942 79.8454C201.506 79.5588 202.07 79.2717 202.634 78.9846C202.878 78.8605 203.122 78.7364 203.366 78.6124C203.718 78.4341 204.068 78.2555 204.419 78.0768C204.528 78.0215 204.637 77.9662 204.75 77.9093C205.21 77.6743 205.646 77.4345 206.077 77.1499C206.519 77.1805 206.685 77.2567 206.981 77.5847C207.057 77.6963 207.132 77.8079 207.209 77.9229C208.069 79.1097 209.151 79.8197 210.58 80.1759C211.969 80.3869 213.532 80.4268 214.801 79.7538C215.188 79.4298 215.287 79.2907 215.439 78.7976C215.464 78.1711 215.364 77.9587 214.965 77.4754C214.3 76.9902 213.683 76.687 212.898 76.4379C212.794 76.4046 212.689 76.3712 212.582 76.3368C211.648 76.0426 210.704 75.784 209.76 75.5225C207.798 74.976 205.977 74.3744 204.267 73.2441C204.048 73.1031 204.048 73.1031 203.825 72.9593C202.321 71.513 201.616 69.7536 201.561 67.6906C201.629 65.6255 202.295 63.8771 203.721 62.3678C207.883 58.5164 215.273 58.8611 219.636 62.1574Z" fill="#ECE9E9"/>
<path d="M125.901 62.4829C127.097 63.3896 128.314 64.4376 129.048 65.758C129.048 65.8654 129.048 65.9728 129.048 66.0835C128.466 66.4164 127.884 66.7492 127.301 67.0818C127.104 67.1946 126.907 67.3074 126.709 67.4203C125.574 68.0693 124.437 68.7144 123.288 69.3383C123.162 69.1738 123.036 69.0094 122.907 68.8399C121.631 67.3838 119.826 66.6225 117.924 66.3473C116.067 66.2551 114.159 67.0306 112.754 68.1991C111.463 69.5996 110.548 71.3147 110.614 73.2441C110.854 75.2265 111.553 76.7816 113.03 78.1556C114.507 79.2999 116.217 79.829 118.082 79.7436C120.159 79.4829 121.799 78.576 123.086 76.942C123.152 76.8495 123.219 76.757 123.288 76.6617C123.981 76.757 124.46 76.9929 125.056 77.3514C125.324 77.5114 125.324 77.5114 125.597 77.6747C125.782 77.7868 125.967 77.8989 126.158 78.0144C126.342 78.1247 126.526 78.2349 126.716 78.3485C127.56 78.8553 128.394 79.3711 129.213 79.9165C127.702 82.6836 125.029 84.6578 122.028 85.648C118.069 86.7982 114.11 86.4427 110.455 84.5451C107.39 82.7295 105.186 79.8844 104.216 76.4887C103.56 73.8937 103.673 71.217 104.524 68.6874C104.582 68.5158 104.64 68.3441 104.699 68.1673C105.772 65.3461 107.96 62.9711 110.614 61.5268C110.747 61.4521 110.881 61.3774 111.018 61.3004C115.785 58.7762 121.564 59.5035 125.901 62.4829Z" fill="#ECE9E9"/>
<path d="M267.141 59.7366C267.049 61.1015 266.772 62.4107 266.472 63.7441C266.426 63.9562 266.379 64.1683 266.332 64.3804C266.218 64.8941 266.104 65.4075 265.989 65.9207C265.828 65.9367 265.667 65.9526 265.501 65.9691C263.888 66.1509 262.141 66.3768 261.051 67.7109C260.183 69.162 259.876 70.3154 259.865 71.9741C259.864 72.1235 259.862 72.2728 259.86 72.4266C259.855 72.9189 259.851 73.4111 259.847 73.9033C259.844 74.2451 259.84 74.5869 259.837 74.9288C259.828 75.8274 259.819 76.7261 259.811 77.6248C259.802 78.7036 259.791 79.7823 259.78 80.8611C259.764 82.4991 259.749 84.1371 259.734 85.7751C257.453 85.7751 255.172 85.7751 252.822 85.7751C252.822 77.3972 252.822 69.0193 252.822 60.3876C255.103 60.3876 257.384 60.3876 259.734 60.3876C259.816 61.5153 259.816 61.5153 259.899 62.6659C260.011 62.5518 260.123 62.4377 260.239 62.3201C260.399 62.1638 260.56 62.0078 260.722 61.8522C260.802 61.7721 260.882 61.6919 260.964 61.6094C262.63 60.0509 264.932 59.668 267.141 59.7366Z" fill="#ECE9E9"/>
<path d="M200.646 59.7366C200.366 61.8163 199.919 63.8664 199.494 65.9208C199.323 65.9348 199.152 65.9489 198.976 65.9634C197.262 66.1249 195.836 66.3787 194.577 67.6397C193.155 69.4884 193.304 71.6807 193.304 73.8875C193.301 74.2313 193.298 74.5751 193.295 74.919C193.288 75.8179 193.285 76.7168 193.282 77.6157C193.279 78.6976 193.27 79.7793 193.262 80.8611C193.251 82.4992 193.246 84.1371 193.239 85.7752C190.958 85.7752 188.677 85.7752 186.326 85.7752C186.326 77.3973 186.326 69.0194 186.326 60.3876C188.553 60.3876 190.78 60.3876 193.075 60.3876C193.156 61.596 193.156 61.596 193.239 62.8287C193.395 62.634 193.552 62.4394 193.712 62.2388C195.499 60.2317 198.061 59.6957 200.646 59.7366Z" fill="#ECE9E9"/>
<g clip-path="url(#clip2_6_476)">
<path d="M688 -56C775.45 -56 862.9 -56 953 -56C953 31.45 953 118.9 953 209C865.55 209 778.1 209 688 209C688 121.55 688 34.1 688 -56Z" fill="#667AFB"/>
<path d="M877.272 67.1512C878.043 67.7755 878.671 68.4399 879.245 69.2539C879.331 68.3145 879.416 67.3751 879.504 66.4072C881.895 66.4072 884.286 66.4072 886.75 66.4072C886.75 74.0078 886.75 81.6085 886.75 89.4394C884.359 89.4394 881.968 89.4394 879.504 89.4394C879.419 88.5 879.333 87.5606 879.245 86.5927C879.005 86.9077 878.765 87.2226 878.517 87.547C876.904 89.3635 875.045 89.9841 872.662 90.2158C869.555 90.3198 866.823 89.5318 864.494 87.4166C862.076 84.8368 860.976 81.4612 861.017 77.9718C861.019 77.7352 861.021 77.4986 861.023 77.2549C861.115 73.4506 862.482 70.5266 865.218 67.9053C868.556 65.1949 873.691 64.5879 877.272 67.1512Z" fill="#ECE9E9"/>
<path d="M928.674 67.96C930.912 69.7828 932.148 71.8913 932.814 74.6885C932.876 75.3969 932.876 76.0969 932.863 76.8074C932.863 77.0783 932.863 77.0783 932.862 77.3548C932.855 78.2512 932.775 78.988 932.556 79.8643C926.919 79.8643 921.283 79.8643 915.476 79.8643C916.34 82.6795 916.34 82.6795 918.381 84.0231C919.248 84.3137 919.98 84.3416 920.894 84.3446C921.354 84.3511 921.354 84.3511 921.823 84.3577C922.823 84.2531 923.427 84.0217 924.274 83.4874C924.437 83.2204 924.437 83.2204 924.603 82.9481C925.051 82.4522 925.051 82.4522 925.804 82.3347C926.104 82.3401 926.403 82.3455 926.712 82.3511C927.198 82.3561 927.198 82.3561 927.695 82.3612C928.034 82.3699 928.373 82.3786 928.722 82.3875C929.068 82.3927 929.413 82.3974 929.759 82.4017C930.605 82.4139 931.451 82.4309 932.297 82.4522C932.013 84.9141 930.964 86.3468 929.082 87.9323C925.97 90.1341 921.889 90.6128 918.189 90.0865C914.782 89.4375 911.856 88.0473 909.831 85.121C907.979 81.7717 907.55 77.5796 908.458 73.8576C909.469 70.7716 911.386 68.365 914.288 66.8602C918.868 64.8859 924.535 65.0392 928.674 67.96Z" fill="#ECE9E9"/>
<path d="M834.992 66.1484C837.383 66.1484 839.775 66.1484 842.238 66.1484C842.238 68.9667 842.238 71.7849 842.238 74.6885C845.142 74.6885 848.046 74.6885 851.037 74.6885C851.037 71.8703 851.037 69.0521 851.037 66.1484C853.428 66.1484 855.82 66.1484 858.283 66.1484C858.283 73.9199 858.283 81.6913 858.283 89.6982C855.892 89.6982 853.501 89.6982 851.037 89.6982C851.037 86.9654 851.037 84.2326 851.037 81.417C848.133 81.417 845.23 81.417 842.238 81.417C842.238 84.1498 842.238 86.8826 842.238 89.6982C839.847 89.6982 837.456 89.6982 834.992 89.6982C834.992 81.9268 834.992 74.1554 834.992 66.1484Z" fill="#ECE9E9"/>
<path d="M730.183 66.4073C732.574 66.4073 734.965 66.4073 737.429 66.4073C737.514 69.4817 737.6 72.5561 737.688 75.7237C738.542 74.5281 739.396 73.3325 740.275 72.1006C740.864 71.3148 741.454 70.5324 742.055 69.7554C742.265 69.4814 742.265 69.4814 742.479 69.2019C742.864 68.7005 743.25 68.1996 743.64 67.7012C743.858 67.3551 743.858 67.3551 744.081 67.0021C744.675 66.4073 744.675 66.4073 745.576 66.2604C745.932 66.2606 746.288 66.2678 746.644 66.2809C746.926 66.2837 746.926 66.2837 747.214 66.2865C747.813 66.2937 748.411 66.3099 749.01 66.3264C749.416 66.3329 749.823 66.3388 750.23 66.3441C751.225 66.3583 752.22 66.3807 753.215 66.4073C752.741 67.2258 752.249 67.9733 751.643 68.699C751.417 68.9707 751.417 68.9707 751.187 69.2479C751.029 69.4367 750.871 69.6255 750.708 69.8201C750.38 70.2145 750.053 70.6091 749.725 71.0038C749.568 71.1931 749.411 71.3824 749.249 71.5774C748.555 72.4152 747.873 73.2622 747.2 74.1164C746.876 74.5242 746.545 74.9267 746.209 75.3254C746.039 75.5315 745.869 75.7377 745.694 75.9501C745.541 76.1309 745.389 76.3117 745.232 76.498C744.879 76.9898 744.879 76.9898 745.001 77.5049C745.216 78.1196 745.492 78.5367 745.883 79.0566C746.027 79.25 746.171 79.4435 746.32 79.6428C746.476 79.8493 746.632 80.0559 746.794 80.2687C747.123 80.709 747.452 81.1494 747.781 81.5899C747.951 81.8165 748.122 82.0432 748.297 82.2767C749.288 83.6021 750.264 84.9392 751.243 86.2739C751.834 87.0777 752.425 87.8702 753.059 88.6409C753.474 89.1807 753.474 89.1807 753.474 89.6983C745.72 90.3462 745.72 90.3462 743.766 89.3753C742.809 88.5037 742.356 87.3872 741.873 86.2069C741.284 84.9477 740.414 83.8618 739.596 82.7433C739.284 82.3028 738.973 81.8614 738.664 81.4191C738.532 81.2313 738.399 81.0435 738.263 80.8501C737.946 80.3819 737.946 80.3819 737.688 79.8643C737.602 83.0241 737.517 86.1839 737.429 89.4395C735.037 89.4395 732.646 89.4395 730.183 89.4395C730.183 81.8389 730.183 74.2382 730.183 66.4073Z" fill="#ECE9E9"/>
<path d="M829.617 67.7921C830.552 68.6627 831.22 69.5835 831.628 70.8066C831.628 71.4898 831.628 72.173 831.628 72.8769C829.066 72.8769 826.504 72.8769 823.864 72.8769C823.693 72.3645 823.523 71.8521 823.347 71.3242C822.745 71.0231 822.351 71.0139 821.681 71.0007C821.478 70.994 821.276 70.9873 821.067 70.9805C820.483 71.0232 820.483 71.0232 820.039 71.401C819.637 71.8742 819.637 71.8742 819.707 72.7475C819.885 73.6852 819.885 73.6852 820.601 74.0516C822.052 74.6388 823.557 74.9845 825.076 75.3546C827.505 75.9798 829.733 76.885 831.11 79.0878C832.12 81.211 832.129 83.2337 831.391 85.4403C830.501 87.451 828.971 88.4944 827.015 89.3909C823.306 90.7779 818.823 90.5797 815.192 89.0219C813.306 87.9707 811.547 86.3858 810.925 84.2636C810.839 83.6658 810.754 83.068 810.666 82.4521C813.228 82.4521 815.79 82.4521 818.43 82.4521C818.686 83.3488 818.686 83.3488 818.947 84.2636C819.698 84.4786 820.367 84.5574 821.147 84.5548C821.342 84.5554 821.537 84.5561 821.737 84.5568C822.305 84.5228 822.801 84.4198 823.347 84.2636C823.382 83.8923 823.407 83.52 823.428 83.1476C823.45 82.8369 823.45 82.8369 823.473 82.5198C823.4 81.8902 823.4 81.8902 822.836 81.511C821.842 81.063 820.842 80.7836 819.788 80.5112C819.37 80.3979 818.951 80.2844 818.533 80.1705C817.903 80.0009 817.274 79.8319 816.644 79.663C814.496 79.0261 813.048 77.8568 811.937 75.9136C811.144 74.4027 811.295 72.7335 811.442 71.0654C812.037 69.1654 813.386 67.8393 815.091 66.8772C819.348 64.8273 825.729 64.8627 829.617 67.7921Z" fill="#ECE9E9"/>
<path d="M723.866 67.2837C725.282 68.2467 726.065 69.5586 726.818 71.0654C726.818 71.6632 726.818 72.2611 726.818 72.877C724.256 72.877 721.694 72.877 719.055 72.877C718.798 72.3646 718.542 71.8522 718.278 71.3242C717.469 70.9196 716.576 70.962 715.69 71.0654C715.434 71.2362 715.178 71.407 714.914 71.583C714.759 72.7648 714.759 72.7648 715.22 73.8137C715.826 74.2736 716.363 74.4117 717.1 74.5975C717.378 74.6709 717.657 74.7443 717.945 74.8199C718.528 74.968 719.111 75.1156 719.694 75.2627C721.889 75.8414 724.027 76.5059 725.508 78.3277C725.649 78.4962 725.79 78.6646 725.936 78.8382C727.181 80.5738 727.101 82.7174 726.818 84.7813C726.182 86.6564 724.901 87.9607 723.195 88.9219C719.703 90.6033 715.508 90.7162 711.782 89.7074C709.455 88.8761 707.597 87.4832 706.35 85.3272C705.925 84.4235 705.828 83.6941 705.856 82.711C706.906 82.6725 707.956 82.6444 709.006 82.6257C709.363 82.6179 709.72 82.6073 710.077 82.5938C710.59 82.5749 711.105 82.567 711.619 82.5593C711.928 82.5512 712.237 82.5431 712.555 82.5347C713.361 82.711 713.361 82.711 713.951 83.4735C714.098 83.7343 714.245 83.995 714.396 84.2637C715.524 84.9843 716.504 84.7861 717.761 84.5225C718.307 84.2574 718.307 84.2574 718.537 83.7461C718.666 82.9697 718.666 82.9697 718.537 82.1934C718.002 81.5147 717.54 81.2914 716.709 81.0945C716.505 81.044 716.3 80.9935 716.089 80.9414C715.872 80.8902 715.655 80.839 715.432 80.7862C714.985 80.6739 714.538 80.5607 714.092 80.4466C713.877 80.3915 713.661 80.3365 713.44 80.2798C711.045 79.65 708.762 78.8202 707.296 76.7103C706.319 74.9516 706.411 72.774 706.633 70.8067C706.914 69.9386 707.29 69.3826 707.927 68.7363C708.061 68.5946 708.196 68.4528 708.334 68.3067C712.363 64.4848 719.235 64.8043 723.866 67.2837Z" fill="#ECE9E9"/>
<path d="M767.966 66.1484C770.442 66.1484 772.919 66.1484 775.471 66.1484C775.471 71.6141 775.471 77.0797 775.471 82.7109C778.887 82.7109 782.303 82.7109 785.822 82.7109C785.822 85.0167 785.822 87.3226 785.822 89.6982C779.93 89.6982 774.037 89.6982 767.966 89.6982C767.966 81.9268 767.966 74.1554 767.966 66.1484Z" fill="#ECE9E9"/>
<path d="M789.704 66.1484C792.181 66.1484 794.657 66.1484 797.209 66.1484C797.209 71.6141 797.209 77.0797 797.209 82.7109C800.625 82.7109 804.041 82.7109 807.561 82.7109C807.561 84.9313 807.561 87.1518 807.561 89.4395C801.668 89.4395 795.775 89.4395 789.704 89.4395C789.704 81.7534 789.704 74.0674 789.704 66.1484Z" fill="#ECE9E9"/>
<path d="M906.418 65.8897C906.677 66.1485 906.677 66.1485 906.706 66.7955C906.705 67.0761 906.703 67.3566 906.702 67.6456C906.701 67.9484 906.7 68.2511 906.7 68.563C906.696 69.0411 906.696 69.0411 906.693 69.5289C906.692 69.8487 906.691 70.1684 906.689 70.4979C906.686 71.2909 906.682 72.084 906.677 72.877C906.399 72.8837 906.121 72.8903 905.835 72.8972C902.678 72.9914 902.678 72.9914 900.142 74.7694C898.809 76.8174 898.617 78.7101 898.572 81.0744C898.567 81.3138 898.562 81.5532 898.556 81.7999C898.539 82.5618 898.524 83.3238 898.509 84.0858C898.498 84.6036 898.486 85.1213 898.475 85.639C898.447 86.9058 898.421 88.1727 898.396 89.4395C896.004 89.4395 893.613 89.4395 891.149 89.4395C891.149 81.8389 891.149 74.2382 891.149 66.4073C893.541 66.4073 895.932 66.4073 898.396 66.4073C898.481 67.5175 898.566 68.6277 898.654 69.7715C898.884 69.4513 899.113 69.131 899.35 68.8011C901.172 66.3979 903.427 65.5812 906.418 65.8897Z" fill="#ECE9E9"/>
<path d="M756.579 66.1484C758.97 66.1484 761.362 66.1484 763.825 66.1484C763.825 73.8345 763.825 81.5205 763.825 89.4395C761.434 89.4395 759.043 89.4395 756.579 89.4395C756.579 81.7534 756.579 74.0674 756.579 66.1484Z" fill="#ECE9E9"/>
<path d="M877.381 72.7303C878.472 73.5057 879.08 74.4507 879.504 75.7236C879.542 76.3959 879.564 77.0567 879.569 77.7292C879.574 77.908 879.579 78.0868 879.585 78.271C879.599 80.1306 879.01 81.614 877.692 82.9697C876.067 83.9378 874.389 84.2911 872.513 83.8946C870.877 83.3859 869.98 82.4124 869.143 80.9479C868.381 79.2472 868.298 77.2787 868.871 75.5123C869.632 73.8668 870.499 72.9323 872.064 72.0197C874.026 71.5292 875.612 71.7538 877.381 72.7303Z" fill="#667AFB"/>
<path d="M762.062 54.6809C763.134 55.2648 763.795 55.996 764.343 57.0908C764.529 58.9305 764.476 60.2814 763.308 61.7491C762.017 62.7765 760.958 62.9507 759.319 62.8833C757.956 62.6816 757.303 62.0218 756.498 60.9565C755.818 59.772 755.596 58.701 755.803 57.3496C756.278 56.122 756.943 55.2712 758.099 54.6324C759.515 54.0385 760.664 54.0479 762.062 54.6809Z" fill="#ECE9E9"/>
<path d="M941.403 81.8537C942.575 82.4943 943.257 83.2441 943.684 84.5225C943.819 85.8083 943.832 86.8141 943.247 87.9838C942.403 88.9422 941.538 89.8872 940.218 90.0187C938.642 90.0596 937.661 90.0256 936.438 88.9219C935.33 87.6941 935.048 86.7483 935.072 85.13C935.194 84.0961 935.554 83.5499 936.179 82.7109C937.835 81.4263 939.43 80.941 941.403 81.8537Z" fill="#ECE9E9"/>
<path d="M923.432 71.1201C924.309 71.7536 924.938 72.3641 925.31 73.3946C925.31 73.9924 925.31 74.5902 925.31 75.2061C922.064 75.2061 918.819 75.2061 915.476 75.2061C915.754 73.2563 916.022 72.4875 917.481 71.2272C919.128 70.3844 921.757 70.3813 923.432 71.1201Z" fill="#667AFB"/>
</g>
<defs>
<clipPath id="clip0_6_476">
<rect width="307" height="45" fill="white" transform="translate(1039 54)"/>
</clipPath>
<clipPath id="clip1_6_476">
<rect width="222" height="116" fill="white" transform="translate(403 15)"/>
</clipPath>
<clipPath id="clip2_6_476">
<rect width="265" height="101" fill="white" transform="translate(688 30)"/>
</clipPath>
</defs>
</svg>
