<svg width="86" height="88" viewBox="0 0 86 88" fill="none" xmlns="http://www.w3.org/2000/svg">
<rect y="0.471802" width="86" height="87" rx="43" fill="url(#paint0_linear_7_742)"/>
<path d="M64.2525 37.0968C67.355 37.0968 69.8775 34.5743 69.8775 31.4718C69.8775 28.3693 67.355 25.8468 64.2525 25.8468C61.8125 25.8468 59.75 27.4193 58.9725 29.5968H49.8275C49.585 26.4618 47.5526 24.5968 44.2501 24.5968H41.7501C38.4476 24.5968 36.4175 26.4618 36.1725 29.5968H27.0275C26.25 27.4193 24.19 25.8468 21.7475 25.8468C18.645 25.8468 16.1225 28.3693 16.1225 31.4718C16.1225 34.5743 18.645 37.0968 21.7475 37.0968C24.1875 37.0968 26.25 35.5243 27.0275 33.3468H31.0125C26.6425 36.7468 24.1026 42.3668 23.7301 49.6368C20.5326 49.8418 18.6251 51.8818 18.6251 55.2218V57.7218C18.6251 61.2443 20.7276 63.3468 24.2501 63.3468H26.7501C30.2726 63.3468 32.3751 61.2443 32.3751 57.7218V55.2218C32.3751 51.9393 30.5299 49.9143 27.4324 49.6493C27.7274 44.4568 29.4625 37.2818 36.3625 34.5168C36.98 36.9343 38.8851 38.3468 41.7501 38.3468H44.2501C47.1176 38.3468 49.02 36.9368 49.6375 34.5168C56.5375 37.2818 58.2726 44.4568 58.5676 49.6493C55.4676 49.9118 53.6251 51.9393 53.6251 55.2218V57.7218C53.6251 61.2443 55.7276 63.3468 59.2501 63.3468H61.7501C65.2726 63.3468 67.3751 61.2443 67.3751 57.7218V55.2218C67.3751 51.8818 65.4674 49.8418 62.2699 49.6368C61.8974 42.3668 59.3575 36.7468 54.9875 33.3468H58.9725C59.75 35.5243 61.8125 37.0968 64.2525 37.0968ZM28.6275 55.2218V57.7218C28.6275 59.1943 28.225 59.5968 26.7525 59.5968H24.2525C22.78 59.5968 22.3775 59.1943 22.3775 57.7218V55.2218C22.3775 53.7493 22.78 53.3468 24.2525 53.3468H26.7525C28.225 53.3468 28.6275 53.7493 28.6275 55.2218ZM63.6275 55.2218V57.7218C63.6275 59.1943 63.225 59.5968 61.7525 59.5968H59.2525C57.78 59.5968 57.3775 59.1943 57.3775 57.7218V55.2218C57.3775 53.7493 57.78 53.3468 59.2525 53.3468H61.7525C63.225 53.3468 63.6275 53.7493 63.6275 55.2218ZM64.2525 29.5968C65.2875 29.5968 66.1275 30.4368 66.1275 31.4718C66.1275 32.5068 65.2875 33.3468 64.2525 33.3468C63.2175 33.3468 62.3775 32.5068 62.3775 31.4718C62.3775 30.4368 63.2175 29.5968 64.2525 29.5968ZM21.7525 33.3468C20.7175 33.3468 19.8775 32.5068 19.8775 31.4718C19.8775 30.4368 20.7175 29.5968 21.7525 29.5968C22.7875 29.5968 23.6275 30.4368 23.6275 31.4718C23.6275 32.5068 22.7875 33.3468 21.7525 33.3468ZM46.1275 32.7218C46.1275 34.1943 45.725 34.5968 44.2525 34.5968H41.7525C40.28 34.5968 39.8775 34.1943 39.8775 32.7218V30.2218C39.8775 28.7493 40.28 28.3468 41.7525 28.3468H44.2525C45.725 28.3468 46.1275 28.7493 46.1275 30.2218V32.7218Z" fill="white"/>
<defs>
<linearGradient id="paint0_linear_7_742" x1="43" y1="0.471802" x2="43" y2="112.781" gradientUnits="userSpaceOnUse">
<stop stop-color="#667AFB"/>
<stop offset="1" stop-color="#BDC6FF"/>
</linearGradient>
</defs>
</svg>
