<svg width="141" height="25" viewBox="0 0 141 25" fill="none" xmlns="http://www.w3.org/2000/svg">
<path d="M0.304 24V0.159998H10.352C11.9307 0.159998 13.2747 0.437332 14.384 0.991999C15.5147 1.52533 16.3787 2.29333 16.976 3.296C17.5947 4.27733 17.904 5.472 17.904 6.88C17.904 7.968 17.6053 8.992 17.008 9.952C16.432 10.8907 15.504 11.6693 14.224 12.288V10.272C15.3973 10.72 16.3253 11.2747 17.008 11.936C17.6907 12.5973 18.1707 13.3333 18.448 14.144C18.7253 14.9547 18.864 15.808 18.864 16.704C18.864 18.9867 18.1067 20.7787 16.592 22.08C15.0987 23.36 13.0187 24 10.352 24H0.304ZM4.656 20.16H10.8C11.9307 20.16 12.8267 19.8507 13.488 19.232C14.1707 18.592 14.512 17.7493 14.512 16.704C14.512 15.6587 14.1707 14.816 13.488 14.176C12.8267 13.536 11.9307 13.216 10.8 13.216H4.656V20.16ZM4.656 9.408H10.576C11.472 9.408 12.1867 9.152 12.72 8.64C13.2533 8.10667 13.52 7.424 13.52 6.592C13.52 5.76 13.2533 5.09867 12.72 4.608C12.1867 4.11733 11.472 3.872 10.576 3.872H4.656V9.408ZM22.077 24V6.592H26.013V10.464L25.693 9.888C26.0983 8.58667 26.7277 7.68 27.581 7.168C28.4557 6.656 29.501 6.4 30.717 6.4H31.741V10.112H30.237C29.0423 10.112 28.0823 10.4853 27.357 11.232C26.6317 11.9573 26.269 12.9813 26.269 14.304V24H22.077ZM39.3258 24.384C38.1098 24.384 37.0538 24.1813 36.1578 23.776C35.2618 23.3707 34.5684 22.7947 34.0778 22.048C33.5871 21.28 33.3418 20.3947 33.3418 19.392C33.3418 18.432 33.5551 17.5787 33.9818 16.832C34.4084 16.064 35.0698 15.424 35.9658 14.912C36.8618 14.4 37.9924 14.0373 39.3578 13.824L45.0538 12.896V16.096L40.1578 16.928C39.3258 17.0773 38.7071 17.344 38.3018 17.728C37.8964 18.112 37.6938 18.6133 37.6938 19.232C37.6938 19.8293 37.9178 20.3093 38.3658 20.672C38.8351 21.0133 39.4111 21.184 40.0938 21.184C40.9684 21.184 41.7364 21.0027 42.3978 20.64C43.0804 20.256 43.6031 19.7333 43.9658 19.072C44.3498 18.4107 44.5418 17.6853 44.5418 16.896V12.416C44.5418 11.6693 44.2431 11.0507 43.6458 10.56C43.0698 10.048 42.3018 9.792 41.3418 9.792C40.4458 9.792 39.6458 10.0373 38.9418 10.528C38.2591 10.9973 37.7578 11.6267 37.4378 12.416L34.0138 10.752C34.3551 9.83467 34.8884 9.04533 35.6138 8.384C36.3604 7.70133 37.2351 7.168 38.2378 6.784C39.2404 6.4 40.3284 6.208 41.5017 6.208C42.9311 6.208 44.1898 6.47467 45.2778 7.008C46.3658 7.52 47.2084 8.24533 47.8058 9.184C48.4244 10.1013 48.7338 11.1787 48.7338 12.416V24H44.7658V21.024L45.6618 20.96C45.2138 21.7067 44.6804 22.336 44.0618 22.848C43.4431 23.3387 42.7391 23.7227 41.9498 24C41.1604 24.256 40.2858 24.384 39.3258 24.384ZM52.6083 24V6.592H56.5443V10.016L56.2243 9.408C56.6296 8.36267 57.2909 7.57333 58.2083 7.04C59.1469 6.48533 60.2349 6.208 61.4723 6.208C62.7523 6.208 63.8829 6.48533 64.8643 7.04C65.8669 7.59467 66.6456 8.37333 67.2003 9.376C67.7549 10.3573 68.0323 11.4987 68.0323 12.8V24H63.8403V13.792C63.8403 13.024 63.6909 12.3627 63.3923 11.808C63.0936 11.2533 62.6776 10.8267 62.1443 10.528C61.6323 10.208 61.0243 10.048 60.3203 10.048C59.6376 10.048 59.0296 10.208 58.4963 10.528C57.9629 10.8267 57.5469 11.2533 57.2483 11.808C56.9496 12.3627 56.8003 13.024 56.8003 13.792V24H52.6083ZM71.577 24V6.592H75.769V24H71.577ZM71.577 4.64V0.159998H75.769V4.64H71.577ZM84.9195 24.384C83.7035 24.384 82.6475 24.1813 81.7515 23.776C80.8555 23.3707 80.1622 22.7947 79.6715 22.048C79.1808 21.28 78.9355 20.3947 78.9355 19.392C78.9355 18.432 79.1488 17.5787 79.5755 16.832C80.0022 16.064 80.6635 15.424 81.5595 14.912C82.4555 14.4 83.5862 14.0373 84.9515 13.824L90.6475 12.896V16.096L85.7515 16.928C84.9195 17.0773 84.3008 17.344 83.8955 17.728C83.4902 18.112 83.2875 18.6133 83.2875 19.232C83.2875 19.8293 83.5115 20.3093 83.9595 20.672C84.4288 21.0133 85.0048 21.184 85.6875 21.184C86.5622 21.184 87.3302 21.0027 87.9915 20.64C88.6742 20.256 89.1968 19.7333 89.5595 19.072C89.9435 18.4107 90.1355 17.6853 90.1355 16.896V12.416C90.1355 11.6693 89.8368 11.0507 89.2395 10.56C88.6635 10.048 87.8955 9.792 86.9355 9.792C86.0395 9.792 85.2395 10.0373 84.5355 10.528C83.8528 10.9973 83.3515 11.6267 83.0315 12.416L79.6075 10.752C79.9488 9.83467 80.4822 9.04533 81.2075 8.384C81.9542 7.70133 82.8288 7.168 83.8315 6.784C84.8342 6.4 85.9222 6.208 87.0955 6.208C88.5248 6.208 89.7835 6.47467 90.8715 7.008C91.9595 7.52 92.8022 8.24533 93.3995 9.184C94.0182 10.1013 94.3275 11.1787 94.3275 12.416V24H90.3595V21.024L91.2555 20.96C90.8075 21.7067 90.2742 22.336 89.6555 22.848C89.0368 23.3387 88.3328 23.7227 87.5435 24C86.7542 24.256 85.8795 24.384 84.9195 24.384ZM106.586 24.384C104.858 24.384 103.301 23.9893 101.914 23.2C100.549 22.3893 99.4713 21.3013 98.682 19.936C97.8927 18.5493 97.498 16.992 97.498 15.264C97.498 13.536 97.8927 11.9893 98.682 10.624C99.4713 9.25867 100.549 8.18133 101.914 7.392C103.301 6.60266 104.858 6.208 106.586 6.208C107.823 6.208 108.975 6.432 110.042 6.88C111.109 7.30667 112.026 7.904 112.794 8.672C113.583 9.41867 114.149 10.3147 114.49 11.36L110.81 12.96C110.49 12.0853 109.946 11.3813 109.178 10.848C108.431 10.3147 107.567 10.048 106.586 10.048C105.669 10.048 104.847 10.272 104.122 10.72C103.418 11.168 102.863 11.7867 102.458 12.576C102.053 13.3653 101.85 14.272 101.85 15.296C101.85 16.32 102.053 17.2267 102.458 18.016C102.863 18.8053 103.418 19.424 104.122 19.872C104.847 20.32 105.669 20.544 106.586 20.544C107.589 20.544 108.463 20.2773 109.21 19.744C109.957 19.2107 110.49 18.496 110.81 17.6L114.49 19.264C114.149 20.2453 113.594 21.1307 112.826 21.92C112.058 22.688 111.141 23.296 110.074 23.744C109.007 24.1707 107.845 24.384 106.586 24.384ZM124.295 24.384C122.439 24.384 120.817 23.9467 119.431 23.072C118.065 22.176 117.127 20.9707 116.615 19.456L119.751 17.952C120.199 18.9333 120.817 19.7013 121.607 20.256C122.417 20.8107 123.313 21.088 124.295 21.088C125.063 21.088 125.671 20.9173 126.119 20.576C126.567 20.2347 126.791 19.7867 126.791 19.232C126.791 18.8907 126.695 18.6133 126.503 18.4C126.332 18.1653 126.087 17.9733 125.767 17.824C125.468 17.6533 125.137 17.5147 124.775 17.408L121.927 16.608C120.455 16.1813 119.335 15.5307 118.567 14.656C117.82 13.7813 117.447 12.7467 117.447 11.552C117.447 10.4853 117.713 9.55733 118.247 8.768C118.801 7.95733 119.559 7.328 120.519 6.88C121.5 6.432 122.62 6.208 123.879 6.208C125.521 6.208 126.972 6.60266 128.231 7.392C129.489 8.18133 130.385 9.29067 130.919 10.72L127.719 12.224C127.42 11.4347 126.919 10.8053 126.215 10.336C125.511 9.86667 124.721 9.632 123.847 9.632C123.143 9.632 122.588 9.792 122.183 10.112C121.777 10.432 121.575 10.848 121.575 11.36C121.575 11.68 121.66 11.9573 121.831 12.192C122.001 12.4267 122.236 12.6187 122.535 12.768C122.855 12.9173 123.217 13.056 123.623 13.184L126.407 14.016C127.836 14.4427 128.935 15.0827 129.703 15.936C130.492 16.7893 130.887 17.8347 130.887 19.072C130.887 20.1173 130.609 21.0453 130.055 21.856C129.5 22.6453 128.732 23.264 127.751 23.712C126.769 24.16 125.617 24.384 124.295 24.384ZM136.092 24V19.52H140.316V24H136.092Z" fill="#667AFB"/>
</svg>
