<svg width="88" height="88" viewBox="0 0 88 88" fill="none" xmlns="http://www.w3.org/2000/svg">
<rect x="0.5" y="0.471802" width="87" height="87" rx="43.5" fill="url(#paint0_linear_7_734)"/>
<path d="M58.0625 68.3468H29.9375C23.2875 68.3468 19.625 64.6843 19.625 58.0343V29.9093C19.625 23.2593 23.2875 19.5968 29.9375 19.5968H58.0625C64.7125 19.5968 68.375 23.2593 68.375 29.9093V58.0343C68.375 64.6843 64.7125 68.3468 58.0625 68.3468ZM29.9375 23.3468C25.3375 23.3468 23.375 25.3093 23.375 29.9093V58.0343C23.375 62.6343 25.3375 64.5968 29.9375 64.5968H58.0625C62.6625 64.5968 64.625 62.6343 64.625 58.0343V29.9093C64.625 25.3093 62.6625 23.3468 58.0625 23.3468H29.9375ZM51.5 58.3468C47.9775 58.3468 45.875 56.2443 45.875 52.7218V35.2218C45.875 31.6993 47.9775 29.5968 51.5 29.5968C55.0225 29.5968 57.125 31.6993 57.125 35.2218V52.7218C57.125 56.2443 55.0225 58.3468 51.5 58.3468ZM51.5 33.3468C50.0275 33.3468 49.625 33.7493 49.625 35.2218V52.7218C49.625 54.1943 50.0275 54.5968 51.5 54.5968C52.9725 54.5968 53.375 54.1943 53.375 52.7218V35.2218C53.375 33.7493 52.9725 33.3468 51.5 33.3468ZM36.5 58.3468C32.9775 58.3468 30.875 56.2443 30.875 52.7218V45.2218C30.875 41.6993 32.9775 39.5968 36.5 39.5968C40.0225 39.5968 42.125 41.6993 42.125 45.2218V52.7218C42.125 56.2443 40.0225 58.3468 36.5 58.3468ZM36.5 43.3468C35.0275 43.3468 34.625 43.7493 34.625 45.2218V52.7218C34.625 54.1943 35.0275 54.5968 36.5 54.5968C37.9725 54.5968 38.375 54.1943 38.375 52.7218V45.2218C38.375 43.7493 37.9725 43.3468 36.5 43.3468Z" fill="white"/>
<defs>
<linearGradient id="paint0_linear_7_734" x1="44" y1="0.471802" x2="44" y2="112.781" gradientUnits="userSpaceOnUse">
<stop stop-color="#667AFB"/>
<stop offset="1" stop-color="#BDC6FF"/>
</linearGradient>
</defs>
</svg>
