<svg width="88" height="88" viewBox="0 0 88 88" fill="none" xmlns="http://www.w3.org/2000/svg">
<rect x="0.5" y="0.471802" width="87" height="87" rx="43.5" fill="url(#paint0_linear_7_758)"/>
<path d="M58.0625 19.5968H29.9375C23.2875 19.5968 19.625 23.2593 19.625 29.9093V58.0343C19.625 64.6843 23.2875 68.3468 29.9375 68.3468H58.0625C64.7125 68.3468 68.375 64.6843 68.375 58.0343V29.9093C68.375 23.2593 64.7125 19.5968 58.0625 19.5968ZM64.625 58.0343C64.625 62.6343 62.6625 64.5968 58.0625 64.5968H29.9375C25.3375 64.5968 23.375 62.6343 23.375 58.0343V29.9093C23.375 25.3093 25.3375 23.3468 29.9375 23.3468H58.0625C62.6625 23.3468 64.625 25.3093 64.625 29.9093V58.0343ZM38.38 39.7418L34.1525 43.9718L38.3825 48.2018C39.115 48.9343 39.115 50.1218 38.3825 50.8543C38.0175 51.2193 37.5375 51.4043 37.0575 51.4043C36.5775 51.4043 36.0975 51.2218 35.7325 50.8543L30.1775 45.2993C29.445 44.5668 29.445 43.3793 30.1775 42.6468L35.7325 37.0918C36.465 36.3593 37.6525 36.3593 38.385 37.0918C39.1125 37.8218 39.1125 39.0093 38.38 39.7418ZM57.825 42.6468C58.5575 43.3793 58.5575 44.5668 57.825 45.2993L52.27 50.8543C51.905 51.2193 51.425 51.4043 50.945 51.4043C50.465 51.4043 49.985 51.2218 49.62 50.8543C48.8875 50.1218 48.8875 48.9343 49.62 48.2018L53.85 43.9718L49.62 39.7418C48.8875 39.0093 48.8875 37.8218 49.62 37.0893C50.3525 36.3568 51.54 36.3568 52.2725 37.0893L57.825 42.6468ZM48.32 34.4268L43.32 54.4268C43.1075 55.2793 42.3425 55.8468 41.5025 55.8468C41.3525 55.8468 41.2 55.8293 41.045 55.7893C40.04 55.5393 39.43 54.5193 39.6825 53.5168L44.6825 33.5168C44.9325 32.5118 45.94 31.9018 46.9575 32.1518C47.96 32.4043 48.57 33.4218 48.32 34.4268Z" fill="white"/>
<defs>
<linearGradient id="paint0_linear_7_758" x1="44" y1="0.471802" x2="44" y2="112.781" gradientUnits="userSpaceOnUse">
<stop stop-color="#667AFB"/>
<stop offset="1" stop-color="#BDC6FF"/>
</linearGradient>
</defs>
</svg>
