<svg width="656" height="78" viewBox="0 0 656 78" fill="none" xmlns="http://www.w3.org/2000/svg">
<path d="M621.929 17.8262L624.432 2.00001" stroke="#667AFB" stroke-width="3.06909" stroke-linecap="round"/>
<path d="M635.041 29.6821L652.739 25.0179" stroke="#667AFB" stroke-width="3.06909" stroke-linecap="round"/>
<path d="M628.141 23.9277L645.473 6.94829" stroke="#667AFB" stroke-width="3.06909" stroke-linecap="round"/>
<path d="M2.592 69.7998V42.9798H11.34C14.172 42.9798 16.632 43.5558 18.72 44.7078C20.832 45.8358 22.464 47.4078 23.616 49.4238C24.768 51.4158 25.344 53.7318 25.344 56.3718C25.344 58.9878 24.768 61.3158 23.616 63.3558C22.464 65.3718 20.832 66.9558 18.72 68.1078C16.632 69.2358 14.172 69.7998 11.34 69.7998H2.592ZM7.488 65.4798H11.448C13.272 65.4798 14.844 65.1078 16.164 64.3638C17.508 63.5958 18.552 62.5398 19.296 61.1958C20.04 59.8278 20.412 58.2198 20.412 56.3718C20.412 54.4998 20.04 52.8918 19.296 51.5478C18.552 50.2038 17.508 49.1598 16.164 48.4158C14.844 47.6718 13.272 47.2998 11.448 47.2998H7.488V65.4798ZM38.1324 70.2318C36.1164 70.2318 34.3524 69.7758 32.8404 68.8638C31.3284 67.9518 30.1524 66.7158 29.3124 65.1558C28.4724 63.5958 28.0524 61.8678 28.0524 59.9718C28.0524 58.0038 28.4724 56.2638 29.3124 54.7518C30.1764 53.2158 31.3404 52.0038 32.8044 51.1158C34.2924 50.2278 35.9484 49.7838 37.7724 49.7838C39.3084 49.7838 40.6524 50.0358 41.8044 50.5398C42.9804 51.0438 43.9764 51.7398 44.7924 52.6278C45.6084 53.5158 46.2324 54.5358 46.6644 55.6878C47.0964 56.8158 47.3124 58.0398 47.3124 59.3598C47.3124 59.6958 47.2884 60.0438 47.2404 60.4038C47.2164 60.7638 47.1564 61.0758 47.0604 61.3398H31.9404V57.7398H44.3964L42.1644 59.4318C42.3804 58.3278 42.3204 57.3438 41.9844 56.4798C41.6724 55.6158 41.1444 54.9318 40.4004 54.4278C39.6804 53.9238 38.8044 53.6718 37.7724 53.6718C36.7884 53.6718 35.9124 53.9238 35.1444 54.4278C34.3764 54.9078 33.7884 55.6278 33.3804 56.5878C32.9964 57.5238 32.8524 58.6638 32.9484 60.0078C32.8524 61.2078 33.0084 62.2758 33.4164 63.2118C33.8484 64.1238 34.4724 64.8318 35.2884 65.3358C36.1284 65.8398 37.0884 66.0918 38.1684 66.0918C39.2484 66.0918 40.1604 65.8638 40.9044 65.4078C41.6724 64.9518 42.2724 64.3398 42.7044 63.5718L46.5204 65.4438C46.1364 66.3798 45.5364 67.2078 44.7204 67.9278C43.9044 68.6478 42.9324 69.2118 41.8044 69.6198C40.7004 70.0278 39.4764 70.2318 38.1324 70.2318ZM50.8874 69.7998V50.2158H55.3154V54.0678L54.9554 53.3838C55.4114 52.2078 56.1554 51.3198 57.1874 50.7198C58.2434 50.0958 59.4674 49.7838 60.8594 49.7838C62.2994 49.7838 63.5714 50.0958 64.6754 50.7198C65.8034 51.3438 66.6794 52.2198 67.3034 53.3478C67.9274 54.4518 68.2394 55.7358 68.2394 57.1998V69.7998H63.5234V58.3158C63.5234 57.4518 63.3554 56.7078 63.0194 56.0838C62.6834 55.4598 62.2154 54.9798 61.6154 54.6438C61.0394 54.2838 60.3554 54.1038 59.5634 54.1038C58.7954 54.1038 58.1114 54.2838 57.5114 54.6438C56.9114 54.9798 56.4434 55.4598 56.1074 56.0838C55.7714 56.7078 55.6034 57.4518 55.6034 58.3158V69.7998H50.8874ZM81.7313 77.7198C80.2673 77.7198 78.9113 77.4798 77.6633 76.9998C76.4153 76.5198 75.3353 75.8478 74.4233 74.9838C73.5353 74.1438 72.8873 73.1478 72.4793 71.9958L76.8713 70.3398C77.1593 71.2518 77.7233 71.9838 78.5633 72.5358C79.4273 73.1118 80.4833 73.3998 81.7313 73.3998C82.6913 73.3998 83.5313 73.2198 84.2513 72.8598C84.9953 72.4998 85.5713 71.9718 85.9793 71.2758C86.3873 70.6038 86.5913 69.7878 86.5913 68.8278V64.3638L87.4913 65.4438C86.8193 66.6198 85.9193 67.5078 84.7913 68.1078C83.6633 68.7078 82.3793 69.0078 80.9393 69.0078C79.1153 69.0078 77.4833 68.5878 76.0433 67.7478C74.6033 66.9078 73.4753 65.7558 72.6593 64.2918C71.8433 62.8278 71.4353 61.1838 71.4353 59.3598C71.4353 57.5118 71.8433 55.8678 72.6593 54.4278C73.4753 52.9878 74.5913 51.8598 76.0073 51.0438C77.4233 50.2038 79.0313 49.7838 80.8313 49.7838C82.2953 49.7838 83.5793 50.0958 84.6833 50.7198C85.8113 51.3198 86.7473 52.1958 87.4913 53.3478L86.8433 54.5358V50.2158H91.3073V68.8278C91.3073 70.5318 90.8873 72.0558 90.0473 73.3998C89.2313 74.7438 88.1033 75.7998 86.6633 76.5678C85.2473 77.3358 83.6033 77.7198 81.7313 77.7198ZM81.5153 64.6518C82.5233 64.6518 83.3993 64.4358 84.1433 64.0038C84.9113 63.5478 85.5113 62.9238 85.9433 62.1318C86.3753 61.3398 86.5913 60.4278 86.5913 59.3958C86.5913 58.3878 86.3633 57.4878 85.9073 56.6958C85.4753 55.8798 84.8753 55.2438 84.1073 54.7878C83.3633 54.3318 82.4993 54.1038 81.5153 54.1038C80.5313 54.1038 79.6433 54.3318 78.8513 54.7878C78.0593 55.2438 77.4353 55.8798 76.9793 56.6958C76.5473 57.4878 76.3313 58.3878 76.3313 59.3958C76.3313 60.4038 76.5473 61.3038 76.9793 62.0958C77.4353 62.8878 78.0473 63.5118 78.8153 63.9678C79.6073 64.4238 80.5073 64.6518 81.5153 64.6518ZM101.652 70.2318C100.284 70.2318 99.0956 70.0038 98.0876 69.5478C97.0796 69.0918 96.2996 68.4438 95.7476 67.6038C95.1956 66.7398 94.9196 65.7438 94.9196 64.6158C94.9196 63.5358 95.1596 62.5758 95.6396 61.7358C96.1196 60.8718 96.8636 60.1518 97.8716 59.5758C98.8796 58.9998 100.152 58.5918 101.688 58.3518L108.096 57.3078V60.9078L102.588 61.8438C101.652 62.0118 100.956 62.3118 100.5 62.7438C100.044 63.1758 99.8156 63.7398 99.8156 64.4358C99.8156 65.1078 100.068 65.6478 100.572 66.0558C101.1 66.4398 101.748 66.6318 102.516 66.6318C103.5 66.6318 104.364 66.4278 105.108 66.0198C105.876 65.5878 106.464 64.9998 106.872 64.2558C107.304 63.5118 107.52 62.6958 107.52 61.8078V56.7678C107.52 55.9278 107.184 55.2318 106.512 54.6798C105.864 54.1038 105 53.8158 103.92 53.8158C102.912 53.8158 102.012 54.0918 101.22 54.6438C100.452 55.1718 99.8876 55.8798 99.5276 56.7678L95.6756 54.8958C96.0596 53.8638 96.6596 52.9758 97.4756 52.2318C98.3156 51.4638 99.2996 50.8638 100.428 50.4318C101.556 49.9998 102.78 49.7838 104.1 49.7838C105.708 49.7838 107.124 50.0838 108.348 50.6838C109.572 51.2598 110.52 52.0758 111.192 53.1318C111.888 54.1638 112.236 55.3758 112.236 56.7678V69.7998H107.772V66.4518L108.78 66.3798C108.276 67.2198 107.676 67.9278 106.98 68.5038C106.284 69.0558 105.492 69.4878 104.604 69.7998C103.716 70.0878 102.732 70.2318 101.652 70.2318ZM116.594 69.7998V50.2158H121.022V54.5718L120.662 53.9238C121.118 52.4598 121.826 51.4398 122.786 50.8638C123.77 50.2878 124.946 49.9998 126.314 49.9998H127.466V54.1758H125.774C124.43 54.1758 123.35 54.5958 122.534 55.4358C121.718 56.2518 121.31 57.4038 121.31 58.8918V69.7998H116.594ZM145.89 70.2318C143.946 70.2318 142.194 69.7878 140.634 68.8998C139.098 67.9878 137.886 66.7638 136.998 65.2278C136.11 63.6678 135.666 61.9158 135.666 59.9718C135.666 58.0278 136.11 56.2878 136.998 54.7518C137.886 53.2158 139.098 52.0038 140.634 51.1158C142.194 50.2278 143.946 49.7838 145.89 49.7838C147.282 49.7838 148.578 50.0358 149.778 50.5398C150.978 51.0198 152.01 51.6918 152.874 52.5558C153.762 53.3958 154.398 54.4038 154.782 55.5798L150.642 57.3798C150.282 56.3958 149.67 55.6038 148.806 55.0038C147.966 54.4038 146.994 54.1038 145.89 54.1038C144.858 54.1038 143.934 54.3558 143.118 54.8598C142.326 55.3638 141.702 56.0598 141.246 56.9478C140.79 57.8358 140.562 58.8558 140.562 60.0078C140.562 61.1598 140.79 62.1798 141.246 63.0678C141.702 63.9558 142.326 64.6518 143.118 65.1558C143.934 65.6598 144.858 65.9118 145.89 65.9118C147.018 65.9118 148.002 65.6118 148.842 65.0118C149.682 64.4118 150.282 63.6078 150.642 62.5998L154.782 64.4718C154.398 65.5758 153.774 66.5718 152.91 67.4598C152.046 68.3238 151.014 69.0078 149.814 69.5118C148.614 69.9918 147.306 70.2318 145.89 70.2318ZM167.648 70.2318C165.632 70.2318 163.868 69.7758 162.356 68.8638C160.844 67.9518 159.668 66.7158 158.828 65.1558C157.988 63.5958 157.568 61.8678 157.568 59.9718C157.568 58.0038 157.988 56.2638 158.828 54.7518C159.692 53.2158 160.856 52.0038 162.32 51.1158C163.808 50.2278 165.464 49.7838 167.288 49.7838C168.824 49.7838 170.168 50.0358 171.32 50.5398C172.496 51.0438 173.492 51.7398 174.308 52.6278C175.124 53.5158 175.748 54.5358 176.18 55.6878C176.612 56.8158 176.828 58.0398 176.828 59.3598C176.828 59.6958 176.804 60.0438 176.756 60.4038C176.732 60.7638 176.672 61.0758 176.576 61.3398H161.456V57.7398H173.912L171.68 59.4318C171.896 58.3278 171.836 57.3438 171.5 56.4798C171.188 55.6158 170.66 54.9318 169.916 54.4278C169.196 53.9238 168.32 53.6718 167.288 53.6718C166.304 53.6718 165.428 53.9238 164.66 54.4278C163.892 54.9078 163.304 55.6278 162.896 56.5878C162.512 57.5238 162.368 58.6638 162.464 60.0078C162.368 61.2078 162.524 62.2758 162.932 63.2118C163.364 64.1238 163.988 64.8318 164.804 65.3358C165.644 65.8398 166.604 66.0918 167.684 66.0918C168.764 66.0918 169.676 65.8638 170.42 65.4078C171.188 64.9518 171.788 64.3398 172.22 63.5718L176.036 65.4438C175.652 66.3798 175.052 67.2078 174.236 67.9278C173.42 68.6478 172.448 69.2118 171.32 69.6198C170.216 70.0278 168.992 70.2318 167.648 70.2318ZM180.403 69.7998V50.2158H184.831V54.5718L184.471 53.9238C184.927 52.4598 185.635 51.4398 186.595 50.8638C187.579 50.2878 188.755 49.9998 190.123 49.9998H191.275V54.1758H189.583C188.239 54.1758 187.159 54.5958 186.343 55.4358C185.527 56.2518 185.119 57.4038 185.119 58.8918V69.7998H180.403ZM193.868 69.7998V50.2158H198.584V69.7998H193.868ZM193.868 48.0198V42.9798H198.584V48.0198H193.868ZM211.866 70.0158C209.658 70.0158 207.942 69.4158 206.718 68.2158C205.518 66.9918 204.918 65.2758 204.918 63.0678V54.4278H201.534V50.2158H201.894C202.854 50.2158 203.598 49.9638 204.126 49.4598C204.654 48.9558 204.918 48.2238 204.918 47.2638V45.7518H209.634V50.2158H214.134V54.4278H209.634V62.8158C209.634 63.4638 209.742 64.0158 209.958 64.4718C210.198 64.9278 210.558 65.2758 211.038 65.5158C211.542 65.7558 212.178 65.8758 212.946 65.8758C213.114 65.8758 213.306 65.8638 213.522 65.8398C213.762 65.8158 213.99 65.7918 214.206 65.7678V69.7998C213.87 69.8478 213.486 69.8958 213.054 69.9438C212.622 69.9918 212.226 70.0158 211.866 70.0158ZM223.679 70.2318C222.311 70.2318 221.123 70.0038 220.115 69.5478C219.107 69.0918 218.327 68.4438 217.775 67.6038C217.223 66.7398 216.947 65.7438 216.947 64.6158C216.947 63.5358 217.187 62.5758 217.667 61.7358C218.147 60.8718 218.891 60.1518 219.899 59.5758C220.907 58.9998 222.179 58.5918 223.715 58.3518L230.123 57.3078V60.9078L224.615 61.8438C223.679 62.0118 222.983 62.3118 222.527 62.7438C222.071 63.1758 221.843 63.7398 221.843 64.4358C221.843 65.1078 222.095 65.6478 222.599 66.0558C223.127 66.4398 223.775 66.6318 224.543 66.6318C225.527 66.6318 226.391 66.4278 227.135 66.0198C227.903 65.5878 228.491 64.9998 228.899 64.2558C229.331 63.5118 229.547 62.6958 229.547 61.8078V56.7678C229.547 55.9278 229.211 55.2318 228.539 54.6798C227.891 54.1038 227.027 53.8158 225.947 53.8158C224.939 53.8158 224.039 54.0918 223.247 54.6438C222.479 55.1718 221.915 55.8798 221.555 56.7678L217.703 54.8958C218.087 53.8638 218.687 52.9758 219.503 52.2318C220.343 51.4638 221.327 50.8638 222.455 50.4318C223.583 49.9998 224.807 49.7838 226.127 49.7838C227.735 49.7838 229.151 50.0838 230.375 50.6838C231.599 51.2598 232.547 52.0758 233.219 53.1318C233.915 54.1638 234.263 55.3758 234.263 56.7678V69.7998H229.799V66.4518L230.807 66.3798C230.303 67.2198 229.703 67.9278 229.007 68.5038C228.311 69.0558 227.519 69.4878 226.631 69.7998C225.743 70.0878 224.759 70.2318 223.679 70.2318ZM254.128 70.2318C252.232 70.2318 250.54 69.7878 249.052 68.8998C247.564 67.9878 246.388 66.7518 245.524 65.1918C244.66 63.6318 244.228 61.9038 244.228 60.0078C244.228 58.0878 244.66 56.3598 245.524 54.8238C246.388 53.2878 247.564 52.0638 249.052 51.1518C250.564 50.2398 252.244 49.7838 254.092 49.7838C255.58 49.7838 256.9 50.0838 258.052 50.6838C259.228 51.2598 260.152 52.0758 260.824 53.1318L260.104 54.1038V42.5478H264.82V69.7998H260.356V66.0198L260.86 66.9558C260.188 68.0118 259.252 68.8278 258.052 69.4038C256.852 69.9558 255.544 70.2318 254.128 70.2318ZM254.632 65.9118C255.712 65.9118 256.66 65.6598 257.476 65.1558C258.292 64.6518 258.928 63.9558 259.384 63.0678C259.864 62.1798 260.104 61.1598 260.104 60.0078C260.104 58.8798 259.864 57.8718 259.384 56.9838C258.928 56.0718 258.292 55.3638 257.476 54.8598C256.66 54.3558 255.712 54.1038 254.632 54.1038C253.576 54.1038 252.628 54.3678 251.788 54.8958C250.948 55.3998 250.288 56.0958 249.808 56.9838C249.352 57.8478 249.124 58.8558 249.124 60.0078C249.124 61.1598 249.352 62.1798 249.808 63.0678C250.288 63.9558 250.948 64.6518 251.788 65.1558C252.628 65.6598 253.576 65.9118 254.632 65.9118ZM275.148 70.2318C273.78 70.2318 272.592 70.0038 271.584 69.5478C270.576 69.0918 269.796 68.4438 269.244 67.6038C268.692 66.7398 268.416 65.7438 268.416 64.6158C268.416 63.5358 268.656 62.5758 269.136 61.7358C269.616 60.8718 270.36 60.1518 271.368 59.5758C272.376 58.9998 273.648 58.5918 275.184 58.3518L281.592 57.3078V60.9078L276.084 61.8438C275.148 62.0118 274.452 62.3118 273.996 62.7438C273.54 63.1758 273.312 63.7398 273.312 64.4358C273.312 65.1078 273.564 65.6478 274.068 66.0558C274.596 66.4398 275.244 66.6318 276.012 66.6318C276.996 66.6318 277.86 66.4278 278.604 66.0198C279.372 65.5878 279.96 64.9998 280.368 64.2558C280.8 63.5118 281.016 62.6958 281.016 61.8078V56.7678C281.016 55.9278 280.68 55.2318 280.008 54.6798C279.36 54.1038 278.496 53.8158 277.416 53.8158C276.408 53.8158 275.508 54.0918 274.716 54.6438C273.948 55.1718 273.384 55.8798 273.024 56.7678L269.172 54.8958C269.556 53.8638 270.156 52.9758 270.972 52.2318C271.812 51.4638 272.796 50.8638 273.924 50.4318C275.052 49.9998 276.276 49.7838 277.596 49.7838C279.204 49.7838 280.62 50.0838 281.844 50.6838C283.068 51.2598 284.016 52.0758 284.688 53.1318C285.384 54.1638 285.732 55.3758 285.732 56.7678V69.7998H281.268V66.4518L282.276 66.3798C281.772 67.2198 281.172 67.9278 280.476 68.5038C279.78 69.0558 278.988 69.4878 278.1 69.7998C277.212 70.0878 276.228 70.2318 275.148 70.2318ZM290.091 69.7998V50.2158H294.519V54.5718L294.159 53.9238C294.615 52.4598 295.323 51.4398 296.283 50.8638C297.267 50.2878 298.443 49.9998 299.811 49.9998H300.963V54.1758H299.271C297.927 54.1758 296.847 54.5958 296.031 55.4358C295.215 56.2518 294.807 57.4038 294.807 58.8918V69.7998H290.091ZM303.555 69.7998V50.2158H308.271V69.7998H303.555ZM303.555 48.0198V42.9798H308.271V48.0198H303.555ZM326.476 70.2318C324.388 70.2318 322.564 69.7398 321.004 68.7558C319.468 67.7478 318.412 66.3918 317.836 64.6878L321.364 62.9958C321.868 64.0998 322.564 64.9638 323.452 65.5878C324.364 66.2118 325.372 66.5238 326.476 66.5238C327.34 66.5238 328.024 66.3318 328.528 65.9478C329.032 65.5638 329.284 65.0598 329.284 64.4358C329.284 64.0518 329.176 63.7398 328.96 63.4998C328.768 63.2358 328.492 63.0198 328.132 62.8518C327.796 62.6598 327.424 62.5038 327.016 62.3838L323.812 61.4838C322.156 61.0038 320.896 60.2718 320.032 59.2878C319.192 58.3038 318.772 57.1398 318.772 55.7958C318.772 54.5958 319.072 53.5518 319.672 52.6638C320.296 51.7518 321.148 51.0438 322.228 50.5398C323.332 50.0358 324.592 49.7838 326.008 49.7838C327.856 49.7838 329.488 50.2278 330.904 51.1158C332.32 52.0038 333.328 53.2518 333.928 54.8598L330.328 56.5518C329.992 55.6638 329.428 54.9558 328.636 54.4278C327.844 53.8998 326.956 53.6358 325.972 53.6358C325.18 53.6358 324.556 53.8158 324.1 54.1758C323.644 54.5358 323.416 55.0038 323.416 55.5798C323.416 55.9398 323.512 56.2518 323.704 56.5158C323.896 56.7798 324.16 56.9958 324.496 57.1638C324.856 57.3318 325.264 57.4878 325.72 57.6318L328.852 58.5678C330.46 59.0478 331.696 59.7678 332.56 60.7278C333.448 61.6878 333.892 62.8638 333.892 64.2558C333.892 65.4318 333.58 66.4758 332.956 67.3878C332.332 68.2758 331.468 68.9718 330.364 69.4758C329.26 69.9798 327.964 70.2318 326.476 70.2318ZM337.516 69.7998V50.2158H342.232V69.7998H337.516ZM337.516 48.0198V42.9798H342.232V48.0198H337.516ZM354.039 70.2318C351.951 70.2318 350.127 69.7398 348.567 68.7558C347.031 67.7478 345.975 66.3918 345.399 64.6878L348.927 62.9958C349.431 64.0998 350.127 64.9638 351.015 65.5878C351.927 66.2118 352.935 66.5238 354.039 66.5238C354.903 66.5238 355.587 66.3318 356.091 65.9478C356.595 65.5638 356.847 65.0598 356.847 64.4358C356.847 64.0518 356.739 63.7398 356.523 63.4998C356.331 63.2358 356.055 63.0198 355.695 62.8518C355.359 62.6598 354.987 62.5038 354.579 62.3838L351.375 61.4838C349.719 61.0038 348.459 60.2718 347.595 59.2878C346.755 58.3038 346.335 57.1398 346.335 55.7958C346.335 54.5958 346.635 53.5518 347.235 52.6638C347.859 51.7518 348.711 51.0438 349.791 50.5398C350.895 50.0358 352.155 49.7838 353.571 49.7838C355.419 49.7838 357.051 50.2278 358.467 51.1158C359.883 52.0038 360.891 53.2518 361.491 54.8598L357.891 56.5518C357.555 55.6638 356.991 54.9558 356.199 54.4278C355.407 53.8998 354.519 53.6358 353.535 53.6358C352.743 53.6358 352.119 53.8158 351.663 54.1758C351.207 54.5358 350.979 55.0038 350.979 55.5798C350.979 55.9398 351.075 56.2518 351.267 56.5158C351.459 56.7798 351.723 56.9958 352.059 57.1638C352.419 57.3318 352.827 57.4878 353.283 57.6318L356.415 58.5678C358.023 59.0478 359.259 59.7678 360.123 60.7278C361.011 61.6878 361.455 62.8638 361.455 64.2558C361.455 65.4318 361.143 66.4758 360.519 67.3878C359.895 68.2758 359.031 68.9718 357.927 69.4758C356.823 69.9798 355.527 70.2318 354.039 70.2318ZM369.659 69.7998L362.927 50.2158H367.895L372.827 65.0838L371.099 65.0478L376.355 50.2158H380.531L385.751 65.0478L384.023 65.0838L388.955 50.2158H393.923L387.191 69.7998H382.979L377.651 54.2838H379.235L373.835 69.7998H369.659ZM401.745 70.2318C400.377 70.2318 399.189 70.0038 398.181 69.5478C397.173 69.0918 396.393 68.4438 395.841 67.6038C395.289 66.7398 395.013 65.7438 395.013 64.6158C395.013 63.5358 395.253 62.5758 395.733 61.7358C396.213 60.8718 396.957 60.1518 397.965 59.5758C398.973 58.9998 400.245 58.5918 401.781 58.3518L408.189 57.3078V60.9078L402.681 61.8438C401.745 62.0118 401.049 62.3118 400.593 62.7438C400.137 63.1758 399.909 63.7398 399.909 64.4358C399.909 65.1078 400.161 65.6478 400.665 66.0558C401.193 66.4398 401.841 66.6318 402.609 66.6318C403.593 66.6318 404.457 66.4278 405.201 66.0198C405.969 65.5878 406.557 64.9998 406.965 64.2558C407.397 63.5118 407.613 62.6958 407.613 61.8078V56.7678C407.613 55.9278 407.277 55.2318 406.605 54.6798C405.957 54.1038 405.093 53.8158 404.013 53.8158C403.005 53.8158 402.105 54.0918 401.313 54.6438C400.545 55.1718 399.981 55.8798 399.621 56.7678L395.769 54.8958C396.153 53.8638 396.753 52.9758 397.569 52.2318C398.409 51.4638 399.393 50.8638 400.521 50.4318C401.649 49.9998 402.873 49.7838 404.193 49.7838C405.801 49.7838 407.217 50.0838 408.441 50.6838C409.665 51.2598 410.613 52.0758 411.285 53.1318C411.981 54.1638 412.329 55.3758 412.329 56.7678V69.7998H407.865V66.4518L408.873 66.3798C408.369 67.2198 407.769 67.9278 407.073 68.5038C406.377 69.0558 405.585 69.4878 404.697 69.7998C403.809 70.0878 402.825 70.2318 401.745 70.2318ZM432.015 70.0158C429.807 70.0158 428.091 69.4158 426.867 68.2158C425.667 66.9918 425.067 65.2758 425.067 63.0678V54.4278H421.683V50.2158H422.043C423.003 50.2158 423.747 49.9638 424.275 49.4598C424.803 48.9558 425.067 48.2238 425.067 47.2638V45.7518H429.783V50.2158H434.283V54.4278H429.783V62.8158C429.783 63.4638 429.891 64.0158 430.107 64.4718C430.347 64.9278 430.707 65.2758 431.187 65.5158C431.691 65.7558 432.327 65.8758 433.095 65.8758C433.263 65.8758 433.455 65.8638 433.671 65.8398C433.911 65.8158 434.139 65.7918 434.355 65.7678V69.7998C434.019 69.8478 433.635 69.8958 433.203 69.9438C432.771 69.9918 432.375 70.0158 432.015 70.0158ZM447.07 70.2318C445.054 70.2318 443.29 69.7758 441.778 68.8638C440.266 67.9518 439.09 66.7158 438.25 65.1558C437.41 63.5958 436.99 61.8678 436.99 59.9718C436.99 58.0038 437.41 56.2638 438.25 54.7518C439.114 53.2158 440.278 52.0038 441.742 51.1158C443.23 50.2278 444.886 49.7838 446.71 49.7838C448.246 49.7838 449.59 50.0358 450.742 50.5398C451.918 51.0438 452.914 51.7398 453.73 52.6278C454.546 53.5158 455.17 54.5358 455.602 55.6878C456.034 56.8158 456.25 58.0398 456.25 59.3598C456.25 59.6958 456.226 60.0438 456.178 60.4038C456.154 60.7638 456.094 61.0758 455.998 61.3398H440.878V57.7398H453.334L451.102 59.4318C451.318 58.3278 451.258 57.3438 450.922 56.4798C450.61 55.6158 450.082 54.9318 449.338 54.4278C448.618 53.9238 447.742 53.6718 446.71 53.6718C445.726 53.6718 444.85 53.9238 444.082 54.4278C443.314 54.9078 442.726 55.6278 442.318 56.5878C441.934 57.5238 441.79 58.6638 441.886 60.0078C441.79 61.2078 441.946 62.2758 442.354 63.2118C442.786 64.1238 443.41 64.8318 444.226 65.3358C445.066 65.8398 446.026 66.0918 447.106 66.0918C448.186 66.0918 449.098 65.8638 449.842 65.4078C450.61 64.9518 451.21 64.3398 451.642 63.5718L455.458 65.4438C455.074 66.3798 454.474 67.2078 453.658 67.9278C452.842 68.6478 451.87 69.2118 450.742 69.6198C449.638 70.0278 448.414 70.2318 447.07 70.2318ZM459.825 69.7998V50.2158H464.253V54.5718L463.893 53.9238C464.349 52.4598 465.057 51.4398 466.017 50.8638C467.001 50.2878 468.177 49.9998 469.545 49.9998H470.697V54.1758H469.005C467.661 54.1758 466.581 54.5958 465.765 55.4358C464.949 56.2518 464.541 57.4038 464.541 58.8918V69.7998H459.825ZM482.722 70.2318C480.778 70.2318 479.026 69.7878 477.466 68.8998C475.93 67.9878 474.718 66.7638 473.83 65.2278C472.942 63.6678 472.498 61.9158 472.498 59.9718C472.498 58.0278 472.942 56.2878 473.83 54.7518C474.718 53.2158 475.93 52.0038 477.466 51.1158C479.026 50.2278 480.778 49.7838 482.722 49.7838C484.114 49.7838 485.41 50.0358 486.61 50.5398C487.81 51.0198 488.842 51.6918 489.706 52.5558C490.594 53.3958 491.23 54.4038 491.614 55.5798L487.474 57.3798C487.114 56.3958 486.502 55.6038 485.638 55.0038C484.798 54.4038 483.826 54.1038 482.722 54.1038C481.69 54.1038 480.766 54.3558 479.95 54.8598C479.158 55.3638 478.534 56.0598 478.078 56.9478C477.622 57.8358 477.394 58.8558 477.394 60.0078C477.394 61.1598 477.622 62.1798 478.078 63.0678C478.534 63.9558 479.158 64.6518 479.95 65.1558C480.766 65.6598 481.69 65.9118 482.722 65.9118C483.85 65.9118 484.834 65.6118 485.674 65.0118C486.514 64.4118 487.114 63.6078 487.474 62.5998L491.614 64.4718C491.23 65.5758 490.606 66.5718 489.742 67.4598C488.878 68.3238 487.846 69.0078 486.646 69.5118C485.446 69.9918 484.138 70.2318 482.722 70.2318ZM495.192 69.7998V50.2158H499.908V69.7998H495.192ZM495.192 48.0198V42.9798H499.908V48.0198H495.192ZM504.262 69.7998V50.2158H508.69V54.0678L508.33 53.3838C508.786 52.2078 509.53 51.3198 510.562 50.7198C511.618 50.0958 512.842 49.7838 514.234 49.7838C515.674 49.7838 516.946 50.0958 518.05 50.7198C519.178 51.3438 520.054 52.2198 520.678 53.3478C521.302 54.4518 521.614 55.7358 521.614 57.1998V69.7998H516.898V58.3158C516.898 57.4518 516.73 56.7078 516.394 56.0838C516.058 55.4598 515.59 54.9798 514.99 54.6438C514.414 54.2838 513.73 54.1038 512.938 54.1038C512.17 54.1038 511.486 54.2838 510.886 54.6438C510.286 54.9798 509.818 55.4598 509.482 56.0838C509.146 56.7078 508.978 57.4518 508.978 58.3158V69.7998H504.262ZM534.53 70.0158C532.322 70.0158 530.606 69.4158 529.382 68.2158C528.182 66.9918 527.582 65.2758 527.582 63.0678V54.4278H524.198V50.2158H524.558C525.518 50.2158 526.262 49.9638 526.79 49.4598C527.318 48.9558 527.582 48.2238 527.582 47.2638V45.7518H532.298V50.2158H536.798V54.4278H532.298V62.8158C532.298 63.4638 532.406 64.0158 532.622 64.4718C532.862 64.9278 533.222 65.2758 533.702 65.5158C534.206 65.7558 534.842 65.8758 535.61 65.8758C535.778 65.8758 535.97 65.8638 536.186 65.8398C536.426 65.8158 536.654 65.7918 536.87 65.7678V69.7998C536.534 69.8478 536.15 69.8958 535.718 69.9438C535.286 69.9918 534.89 70.0158 534.53 70.0158ZM546.343 70.2318C544.975 70.2318 543.787 70.0038 542.779 69.5478C541.771 69.0918 540.991 68.4438 540.439 67.6038C539.887 66.7398 539.611 65.7438 539.611 64.6158C539.611 63.5358 539.851 62.5758 540.331 61.7358C540.811 60.8718 541.555 60.1518 542.563 59.5758C543.571 58.9998 544.843 58.5918 546.379 58.3518L552.787 57.3078V60.9078L547.279 61.8438C546.343 62.0118 545.647 62.3118 545.191 62.7438C544.735 63.1758 544.507 63.7398 544.507 64.4358C544.507 65.1078 544.759 65.6478 545.263 66.0558C545.791 66.4398 546.439 66.6318 547.207 66.6318C548.191 66.6318 549.055 66.4278 549.799 66.0198C550.567 65.5878 551.155 64.9998 551.563 64.2558C551.995 63.5118 552.211 62.6958 552.211 61.8078V56.7678C552.211 55.9278 551.875 55.2318 551.203 54.6798C550.555 54.1038 549.691 53.8158 548.611 53.8158C547.603 53.8158 546.703 54.0918 545.911 54.6438C545.143 55.1718 544.579 55.8798 544.219 56.7678L540.367 54.8958C540.751 53.8638 541.351 52.9758 542.167 52.2318C543.007 51.4638 543.991 50.8638 545.119 50.4318C546.247 49.9998 547.471 49.7838 548.791 49.7838C550.399 49.7838 551.815 50.0838 553.039 50.6838C554.263 51.2598 555.211 52.0758 555.883 53.1318C556.579 54.1638 556.927 55.3758 556.927 56.7678V69.7998H552.463V66.4518L553.471 66.3798C552.967 67.2198 552.367 67.9278 551.671 68.5038C550.975 69.0558 550.183 69.4878 549.295 69.7998C548.407 70.0878 547.423 70.2318 546.343 70.2318ZM567.684 69.7998V42.5478H572.4V60.4038L570.6 59.8638L579.816 50.2158H585.684L578.448 58.0998L585.828 69.7998H580.428L574.02 59.6478L576.828 59.0718L570.924 65.4078L572.4 62.5278V69.7998H567.684ZM594.402 70.2318C593.034 70.2318 591.846 70.0038 590.838 69.5478C589.83 69.0918 589.05 68.4438 588.498 67.6038C587.946 66.7398 587.67 65.7438 587.67 64.6158C587.67 63.5358 587.91 62.5758 588.39 61.7358C588.87 60.8718 589.614 60.1518 590.622 59.5758C591.63 58.9998 592.902 58.5918 594.438 58.3518L600.846 57.3078V60.9078L595.338 61.8438C594.402 62.0118 593.706 62.3118 593.25 62.7438C592.794 63.1758 592.566 63.7398 592.566 64.4358C592.566 65.1078 592.818 65.6478 593.322 66.0558C593.85 66.4398 594.498 66.6318 595.266 66.6318C596.25 66.6318 597.114 66.4278 597.858 66.0198C598.626 65.5878 599.214 64.9998 599.622 64.2558C600.054 63.5118 600.27 62.6958 600.27 61.8078V56.7678C600.27 55.9278 599.934 55.2318 599.262 54.6798C598.614 54.1038 597.75 53.8158 596.67 53.8158C595.662 53.8158 594.762 54.0918 593.97 54.6438C593.202 55.1718 592.638 55.8798 592.278 56.7678L588.426 54.8958C588.81 53.8638 589.41 52.9758 590.226 52.2318C591.066 51.4638 592.05 50.8638 593.178 50.4318C594.306 49.9998 595.53 49.7838 596.85 49.7838C598.458 49.7838 599.874 50.0838 601.098 50.6838C602.322 51.2598 603.27 52.0758 603.942 53.1318C604.638 54.1638 604.986 55.3758 604.986 56.7678V69.7998H600.522V66.4518L601.53 66.3798C601.026 67.2198 600.426 67.9278 599.73 68.5038C599.034 69.0558 598.242 69.4878 597.354 69.7998C596.466 70.0878 595.482 70.2318 594.402 70.2318ZM609.344 69.7998V50.2158H613.772V54.7518L613.268 53.9958C613.628 52.5798 614.348 51.5238 615.428 50.8278C616.508 50.1318 617.78 49.7838 619.244 49.7838C620.852 49.7838 622.268 50.2038 623.492 51.0438C624.716 51.8838 625.508 52.9878 625.868 54.3558L624.536 54.4638C625.136 52.9038 626.036 51.7398 627.236 50.9718C628.436 50.1798 629.816 49.7838 631.376 49.7838C632.768 49.7838 634.004 50.0958 635.084 50.7198C636.188 51.3438 637.052 52.2198 637.676 53.3478C638.3 54.4518 638.612 55.7358 638.612 57.1998V69.7998H633.896V58.3158C633.896 57.4518 633.74 56.7078 633.428 56.0838C633.116 55.4598 632.684 54.9798 632.132 54.6438C631.58 54.2838 630.908 54.1038 630.116 54.1038C629.372 54.1038 628.712 54.2838 628.136 54.6438C627.56 54.9798 627.116 55.4598 626.804 56.0838C626.492 56.7078 626.336 57.4518 626.336 58.3158V69.7998H621.62V58.3158C621.62 57.4518 621.464 56.7078 621.152 56.0838C620.84 55.4598 620.396 54.9798 619.82 54.6438C619.268 54.2838 618.608 54.1038 617.84 54.1038C617.096 54.1038 616.436 54.2838 615.86 54.6438C615.284 54.9798 614.84 55.4598 614.528 56.0838C614.216 56.7078 614.06 57.4518 614.06 58.3158V69.7998H609.344ZM642.602 69.7998V50.2158H647.318V69.7998H642.602ZM642.602 48.0198V42.9798H647.318V48.0198H642.602Z" fill="#212447"/>
</svg>
