<svg width="688" height="222" viewBox="0 0 688 222" fill="none" xmlns="http://www.w3.org/2000/svg">
<path d="M653.255 17.8262L655.758 2.00001" stroke="#667AFB" stroke-width="3.06909" stroke-linecap="round"/>
<path d="M666.368 29.6819L684.066 25.0177" stroke="#667AFB" stroke-width="3.06909" stroke-linecap="round"/>
<path d="M659.467 23.928L676.799 6.94853" stroke="#667AFB" stroke-width="3.06909" stroke-linecap="round"/>
<path d="M3.564 74V33.77H20.574C23.346 33.77 25.722 34.238 27.702 35.174C29.682 36.11 31.194 37.46 32.238 39.224C33.282 40.952 33.804 43.058 33.804 45.542C33.804 47.306 33.318 48.998 32.346 50.618C31.374 52.202 29.772 53.534 27.54 54.614V50.51C29.664 51.338 31.302 52.328 32.454 53.48C33.606 54.632 34.398 55.892 34.83 57.26C35.262 58.592 35.478 59.996 35.478 61.472C35.478 65.432 34.164 68.51 31.536 70.706C28.908 72.902 25.254 74 20.574 74H3.564ZM11.934 66.71H21.546C23.238 66.71 24.588 66.224 25.596 65.252C26.604 64.28 27.108 63.02 27.108 61.472C27.108 59.888 26.604 58.61 25.596 57.638C24.588 56.666 23.238 56.18 21.546 56.18H11.934V66.71ZM11.934 48.89H21.168C22.464 48.89 23.49 48.53 24.246 47.81C25.038 47.054 25.434 46.064 25.434 44.84C25.434 43.616 25.038 42.644 24.246 41.924C23.49 41.168 22.464 40.79 21.168 40.79H11.934V48.89ZM54.4552 74.648C51.3232 74.648 48.6052 73.964 46.3012 72.596C43.9972 71.192 42.2152 69.32 40.9552 66.98C39.6952 64.64 39.0652 62.048 39.0652 59.204C39.0652 56.252 39.7132 53.624 41.0092 51.32C42.3412 49.016 44.1232 47.198 46.3552 45.866C48.5872 44.534 51.1072 43.868 53.9152 43.868C56.2552 43.868 58.3252 44.246 60.1252 45.002C61.9252 45.722 63.4372 46.748 64.6612 48.08C65.9212 49.412 66.8752 50.96 67.5232 52.724C68.1712 54.452 68.4952 56.342 68.4952 58.394C68.4952 58.97 68.4592 59.546 68.3872 60.122C68.3512 60.662 68.2612 61.13 68.1172 61.526H46.0312V55.586H63.5272L59.6932 58.394C60.0532 56.846 60.0352 55.478 59.6392 54.29C59.2432 53.066 58.5412 52.112 57.5332 51.428C56.5612 50.708 55.3552 50.348 53.9152 50.348C52.5112 50.348 51.3052 50.69 50.2972 51.374C49.2892 52.058 48.5332 53.066 48.0292 54.398C47.5252 55.73 47.3272 57.35 47.4352 59.258C47.2912 60.914 47.4892 62.372 48.0292 63.632C48.5692 64.892 49.3972 65.882 50.5132 66.602C51.6292 67.286 52.9792 67.628 54.5632 67.628C56.0032 67.628 57.2272 67.34 58.2352 66.764C59.2792 66.188 60.0892 65.396 60.6652 64.388L67.1452 67.466C66.5692 68.906 65.6512 70.166 64.3912 71.246C63.1672 72.326 61.7092 73.172 60.0172 73.784C58.3252 74.36 56.4712 74.648 54.4552 74.648ZM73.2649 74V33.122H81.3649V74H73.2649ZM96.4183 74.648C94.2943 74.648 92.4583 74.306 90.9103 73.622C89.3623 72.938 88.1743 71.966 87.3463 70.706C86.5183 69.41 86.1043 67.88 86.1043 66.116C86.1043 64.46 86.4823 63.002 87.2383 61.742C87.9943 60.446 89.1463 59.366 90.6943 58.502C92.2783 57.638 94.2403 57.026 96.5803 56.666L105.598 55.208V61.148L98.0383 62.498C96.8863 62.714 96.0043 63.092 95.3923 63.632C94.7803 64.136 94.4743 64.874 94.4743 65.846C94.4743 66.746 94.8163 67.448 95.5003 67.952C96.1843 68.456 97.0303 68.708 98.0383 68.708C99.3703 68.708 100.54 68.42 101.548 67.844C102.556 67.268 103.33 66.494 103.87 65.522C104.446 64.514 104.734 63.416 104.734 62.228V54.56C104.734 53.444 104.284 52.508 103.384 51.752C102.52 50.996 101.332 50.618 99.8203 50.618C98.3803 50.618 97.1023 51.014 95.9863 51.806C94.9063 52.598 94.1143 53.642 93.6103 54.938L87.1303 51.86C87.7063 50.204 88.6243 48.782 89.8843 47.594C91.1443 46.406 92.6563 45.488 94.4203 44.84C96.1843 44.192 98.1103 43.868 100.198 43.868C102.682 43.868 104.878 44.318 106.786 45.218C108.694 46.118 110.17 47.378 111.214 48.998C112.294 50.582 112.834 52.436 112.834 54.56V74H105.274V69.248L107.11 68.924C106.246 70.22 105.292 71.3 104.248 72.164C103.204 72.992 102.034 73.604 100.738 74C99.4423 74.432 98.0023 74.648 96.4183 74.648ZM115.211 85.988C114.671 85.988 114.149 85.952 113.645 85.88C113.105 85.844 112.655 85.79 112.295 85.718V78.806C112.907 78.914 113.519 78.968 114.131 78.968C115.679 78.968 116.831 78.644 117.587 77.996C118.379 77.348 118.775 76.376 118.775 75.08V44.516H126.875V75.08C126.875 77.384 126.407 79.346 125.471 80.966C124.571 82.622 123.239 83.864 121.475 84.692C119.747 85.556 117.659 85.988 115.211 85.988ZM118.775 41.87V33.77H126.875V41.87H118.775ZM141.928 74.648C139.804 74.648 137.968 74.306 136.42 73.622C134.872 72.938 133.684 71.966 132.856 70.706C132.028 69.41 131.614 67.88 131.614 66.116C131.614 64.46 131.992 63.002 132.748 61.742C133.504 60.446 134.656 59.366 136.204 58.502C137.788 57.638 139.75 57.026 142.09 56.666L151.108 55.208V61.148L143.548 62.498C142.396 62.714 141.514 63.092 140.902 63.632C140.29 64.136 139.984 64.874 139.984 65.846C139.984 66.746 140.326 67.448 141.01 67.952C141.694 68.456 142.54 68.708 143.548 68.708C144.88 68.708 146.05 68.42 147.058 67.844C148.066 67.268 148.84 66.494 149.38 65.522C149.956 64.514 150.244 63.416 150.244 62.228V54.56C150.244 53.444 149.794 52.508 148.894 51.752C148.03 50.996 146.842 50.618 145.33 50.618C143.89 50.618 142.612 51.014 141.496 51.806C140.416 52.598 139.624 53.642 139.12 54.938L132.64 51.86C133.216 50.204 134.134 48.782 135.394 47.594C136.654 46.406 138.166 45.488 139.93 44.84C141.694 44.192 143.62 43.868 145.708 43.868C148.192 43.868 150.388 44.318 152.296 45.218C154.204 46.118 155.68 47.378 156.724 48.998C157.804 50.582 158.344 52.436 158.344 54.56V74H150.784V69.248L152.62 68.924C151.756 70.22 150.802 71.3 149.758 72.164C148.714 72.992 147.544 73.604 146.248 74C144.952 74.432 143.512 74.648 141.928 74.648ZM164.284 74V44.516H171.844V51.59L171.304 50.564C171.952 48.08 173.014 46.406 174.49 45.542C176.002 44.642 177.784 44.192 179.836 44.192H181.564V51.212H179.026C177.046 51.212 175.444 51.824 174.22 53.048C172.996 54.236 172.384 55.928 172.384 58.124V74H164.284ZM208.696 74.648C205.816 74.648 203.242 73.964 200.974 72.596C198.706 71.228 196.906 69.374 195.574 67.034C194.278 64.694 193.63 62.102 193.63 59.258C193.63 56.378 194.296 53.786 195.628 51.482C196.96 49.142 198.76 47.288 201.028 45.92C203.296 44.552 205.834 43.868 208.642 43.868C210.802 43.868 212.71 44.282 214.366 45.11C216.058 45.902 217.39 47.036 218.362 48.512L217.12 50.132V33.122H225.22V74H217.66V68.6L218.416 70.274C217.408 71.714 216.04 72.812 214.312 73.568C212.584 74.288 210.712 74.648 208.696 74.648ZM209.668 67.358C211.144 67.358 212.44 67.016 213.556 66.332C214.672 65.648 215.536 64.694 216.148 63.47C216.796 62.246 217.12 60.842 217.12 59.258C217.12 57.674 216.796 56.27 216.148 55.046C215.536 53.822 214.672 52.868 213.556 52.184C212.44 51.5 211.144 51.158 209.668 51.158C208.192 51.158 206.86 51.518 205.672 52.238C204.52 52.922 203.62 53.876 202.972 55.1C202.324 56.288 202 57.674 202 59.258C202 60.842 202.324 62.246 202.972 63.47C203.62 64.694 204.52 65.648 205.672 66.332C206.86 67.016 208.192 67.358 209.668 67.358ZM245.354 74.648C242.222 74.648 239.504 73.964 237.2 72.596C234.896 71.192 233.114 69.32 231.854 66.98C230.594 64.64 229.964 62.048 229.964 59.204C229.964 56.252 230.612 53.624 231.908 51.32C233.24 49.016 235.022 47.198 237.254 45.866C239.486 44.534 242.006 43.868 244.814 43.868C247.154 43.868 249.224 44.246 251.024 45.002C252.824 45.722 254.336 46.748 255.56 48.08C256.82 49.412 257.774 50.96 258.422 52.724C259.07 54.452 259.394 56.342 259.394 58.394C259.394 58.97 259.358 59.546 259.286 60.122C259.25 60.662 259.16 61.13 259.016 61.526H236.93V55.586H254.426L250.592 58.394C250.952 56.846 250.934 55.478 250.538 54.29C250.142 53.066 249.44 52.112 248.432 51.428C247.46 50.708 246.254 50.348 244.814 50.348C243.41 50.348 242.204 50.69 241.196 51.374C240.188 52.058 239.432 53.066 238.928 54.398C238.424 55.73 238.226 57.35 238.334 59.258C238.19 60.914 238.388 62.372 238.928 63.632C239.468 64.892 240.296 65.882 241.412 66.602C242.528 67.286 243.878 67.628 245.462 67.628C246.902 67.628 248.126 67.34 249.134 66.764C250.178 66.188 250.988 65.396 251.564 64.388L258.044 67.466C257.468 68.906 256.55 70.166 255.29 71.246C254.066 72.326 252.608 73.172 250.916 73.784C249.224 74.36 247.37 74.648 245.354 74.648ZM264.163 74V44.516H271.723V50.348L271.291 49.052C271.975 47.288 273.073 45.992 274.585 45.164C276.133 44.3 277.933 43.868 279.985 43.868C282.217 43.868 284.161 44.336 285.817 45.272C287.509 46.208 288.823 47.522 289.759 49.214C290.695 50.87 291.163 52.814 291.163 55.046V74H283.063V56.774C283.063 55.622 282.829 54.632 282.361 53.804C281.929 52.976 281.299 52.328 280.471 51.86C279.679 51.392 278.743 51.158 277.663 51.158C276.619 51.158 275.683 51.392 274.855 51.86C274.027 52.328 273.379 52.976 272.911 53.804C272.479 54.632 272.263 55.622 272.263 56.774V74H264.163ZM310.962 85.88C308.694 85.88 306.588 85.502 304.644 84.746C302.7 83.99 301.026 82.928 299.622 81.56C298.254 80.228 297.264 78.644 296.652 76.808L304.158 74.162C304.554 75.53 305.364 76.61 306.588 77.402C307.812 78.194 309.27 78.59 310.962 78.59C312.294 78.59 313.446 78.338 314.418 77.834C315.39 77.366 316.128 76.664 316.632 75.728C317.172 74.792 317.442 73.694 317.442 72.434V65.684L319.008 67.628C318 69.284 316.704 70.526 315.12 71.354C313.536 72.146 311.682 72.542 309.558 72.542C306.822 72.542 304.374 71.93 302.214 70.706C300.054 69.446 298.362 67.736 297.138 65.576C295.914 63.38 295.302 60.896 295.302 58.124C295.302 55.352 295.914 52.904 297.138 50.78C298.362 48.62 300.036 46.928 302.16 45.704C304.284 44.48 306.696 43.868 309.396 43.868C311.52 43.868 313.374 44.3 314.958 45.164C316.542 45.992 317.892 47.27 319.008 48.998L317.982 50.942V44.516H325.542V72.434C325.542 75.026 324.912 77.33 323.652 79.346C322.392 81.398 320.664 83 318.468 84.152C316.308 85.304 313.806 85.88 310.962 85.88ZM310.692 65.198C312.06 65.198 313.248 64.91 314.256 64.334C315.264 63.758 316.038 62.948 316.578 61.904C317.154 60.86 317.442 59.636 317.442 58.232C317.442 56.828 317.154 55.604 316.578 54.56C316.002 53.48 315.21 52.652 314.202 52.076C313.194 51.464 312.024 51.158 310.692 51.158C309.324 51.158 308.1 51.464 307.02 52.076C305.976 52.652 305.148 53.48 304.536 54.56C303.96 55.604 303.672 56.828 303.672 58.232C303.672 59.6 303.96 60.806 304.536 61.85C305.148 62.894 305.976 63.722 307.02 64.334C308.1 64.91 309.324 65.198 310.692 65.198ZM340.631 74.648C338.507 74.648 336.671 74.306 335.123 73.622C333.575 72.938 332.387 71.966 331.559 70.706C330.731 69.41 330.317 67.88 330.317 66.116C330.317 64.46 330.695 63.002 331.451 61.742C332.207 60.446 333.359 59.366 334.907 58.502C336.491 57.638 338.453 57.026 340.793 56.666L349.811 55.208V61.148L342.251 62.498C341.099 62.714 340.217 63.092 339.605 63.632C338.993 64.136 338.687 64.874 338.687 65.846C338.687 66.746 339.029 67.448 339.713 67.952C340.397 68.456 341.243 68.708 342.251 68.708C343.583 68.708 344.753 68.42 345.761 67.844C346.769 67.268 347.543 66.494 348.083 65.522C348.659 64.514 348.947 63.416 348.947 62.228V54.56C348.947 53.444 348.497 52.508 347.597 51.752C346.733 50.996 345.545 50.618 344.033 50.618C342.593 50.618 341.315 51.014 340.199 51.806C339.119 52.598 338.327 53.642 337.823 54.938L331.343 51.86C331.919 50.204 332.837 48.782 334.097 47.594C335.357 46.406 336.869 45.488 338.633 44.84C340.397 44.192 342.323 43.868 344.411 43.868C346.895 43.868 349.091 44.318 350.999 45.218C352.907 46.118 354.383 47.378 355.427 48.998C356.507 50.582 357.047 52.436 357.047 54.56V74H349.487V69.248L351.323 68.924C350.459 70.22 349.505 71.3 348.461 72.164C347.417 72.992 346.247 73.604 344.951 74C343.655 74.432 342.215 74.648 340.631 74.648ZM362.988 74V44.516H370.548V50.348L370.116 49.052C370.8 47.288 371.898 45.992 373.41 45.164C374.958 44.3 376.758 43.868 378.81 43.868C381.042 43.868 382.986 44.336 384.642 45.272C386.334 46.208 387.648 47.522 388.584 49.214C389.52 50.87 389.988 52.814 389.988 55.046V74H381.888V56.774C381.888 55.622 381.654 54.632 381.186 53.804C380.754 52.976 380.124 52.328 379.296 51.86C378.504 51.392 377.568 51.158 376.488 51.158C375.444 51.158 374.508 51.392 373.68 51.86C372.852 52.328 372.204 52.976 371.736 53.804C371.304 54.632 371.088 55.622 371.088 56.774V74H362.988ZM16.848 142.648C13.968 142.648 11.394 141.964 9.126 140.596C6.858 139.228 5.058 137.374 3.726 135.034C2.43 132.694 1.782 130.102 1.782 127.258C1.782 124.378 2.448 121.786 3.78 119.482C5.112 117.142 6.912 115.288 9.18 113.92C11.448 112.552 13.986 111.868 16.794 111.868C18.954 111.868 20.862 112.282 22.518 113.11C24.21 113.902 25.542 115.036 26.514 116.512L25.272 118.132V101.122H33.372V142H25.812V136.6L26.568 138.274C25.56 139.714 24.192 140.812 22.464 141.568C20.736 142.288 18.864 142.648 16.848 142.648ZM17.82 135.358C19.296 135.358 20.592 135.016 21.708 134.332C22.824 133.648 23.688 132.694 24.3 131.47C24.948 130.246 25.272 128.842 25.272 127.258C25.272 125.674 24.948 124.27 24.3 123.046C23.688 121.822 22.824 120.868 21.708 120.184C20.592 119.5 19.296 119.158 17.82 119.158C16.344 119.158 15.012 119.518 13.824 120.238C12.672 120.922 11.772 121.876 11.124 123.1C10.476 124.288 10.152 125.674 10.152 127.258C10.152 128.842 10.476 130.246 11.124 131.47C11.772 132.694 12.672 133.648 13.824 134.332C15.012 135.016 16.344 135.358 17.82 135.358ZM48.43 142.648C46.306 142.648 44.47 142.306 42.922 141.622C41.374 140.938 40.186 139.966 39.358 138.706C38.53 137.41 38.116 135.88 38.116 134.116C38.116 132.46 38.494 131.002 39.25 129.742C40.006 128.446 41.158 127.366 42.706 126.502C44.29 125.638 46.252 125.026 48.592 124.666L57.61 123.208V129.148L50.05 130.498C48.898 130.714 48.016 131.092 47.404 131.632C46.792 132.136 46.486 132.874 46.486 133.846C46.486 134.746 46.828 135.448 47.512 135.952C48.196 136.456 49.042 136.708 50.05 136.708C51.382 136.708 52.552 136.42 53.56 135.844C54.568 135.268 55.342 134.494 55.882 133.522C56.458 132.514 56.746 131.416 56.746 130.228V122.56C56.746 121.444 56.296 120.508 55.396 119.752C54.532 118.996 53.344 118.618 51.832 118.618C50.392 118.618 49.114 119.014 47.998 119.806C46.918 120.598 46.126 121.642 45.622 122.938L39.142 119.86C39.718 118.204 40.636 116.782 41.896 115.594C43.156 114.406 44.668 113.488 46.432 112.84C48.196 112.192 50.122 111.868 52.21 111.868C54.694 111.868 56.89 112.318 58.798 113.218C60.706 114.118 62.182 115.378 63.226 116.998C64.306 118.582 64.846 120.436 64.846 122.56V142H57.286V137.248L59.122 136.924C58.258 138.22 57.304 139.3 56.26 140.164C55.216 140.992 54.046 141.604 52.75 142C51.454 142.432 50.014 142.648 48.43 142.648ZM70.7864 142V112.516H78.3464V118.348L77.9144 117.052C78.5984 115.288 79.6964 113.992 81.2084 113.164C82.7564 112.3 84.5564 111.868 86.6084 111.868C88.8404 111.868 90.7844 112.336 92.4404 113.272C94.1324 114.208 95.4464 115.522 96.3824 117.214C97.3184 118.87 97.7864 120.814 97.7864 123.046V142H89.6864V124.774C89.6864 123.622 89.4524 122.632 88.9844 121.804C88.5524 120.976 87.9224 120.328 87.0944 119.86C86.3024 119.392 85.3664 119.158 84.2864 119.158C83.2424 119.158 82.3064 119.392 81.4784 119.86C80.6504 120.328 80.0024 120.976 79.5344 121.804C79.1024 122.632 78.8864 123.622 78.8864 124.774V142H70.7864ZM120.646 142V109.06H110.44V101.77H139.06V109.06H129.016V142H120.646ZM142.611 142V112.516H150.711V142H142.611ZM142.611 109.87V101.77H150.711V109.87H142.611ZM156.638 142V112.516H164.198V118.348L163.766 117.052C164.45 115.288 165.548 113.992 167.06 113.164C168.608 112.3 170.408 111.868 172.46 111.868C174.692 111.868 176.636 112.336 178.292 113.272C179.984 114.208 181.298 115.522 182.234 117.214C183.17 118.87 183.638 120.814 183.638 123.046V142H175.538V124.774C175.538 123.622 175.304 122.632 174.836 121.804C174.404 120.976 173.774 120.328 172.946 119.86C172.154 119.392 171.218 119.158 170.138 119.158C169.094 119.158 168.158 119.392 167.33 119.86C166.502 120.328 165.854 120.976 165.386 121.804C164.954 122.632 164.738 123.622 164.738 124.774V142H156.638ZM203.436 153.88C201.168 153.88 199.062 153.502 197.118 152.746C195.174 151.99 193.5 150.928 192.096 149.56C190.728 148.228 189.738 146.644 189.126 144.808L196.632 142.162C197.028 143.53 197.838 144.61 199.062 145.402C200.286 146.194 201.744 146.59 203.436 146.59C204.768 146.59 205.92 146.338 206.892 145.834C207.864 145.366 208.602 144.664 209.106 143.728C209.646 142.792 209.916 141.694 209.916 140.434V133.684L211.482 135.628C210.474 137.284 209.178 138.526 207.594 139.354C206.01 140.146 204.156 140.542 202.032 140.542C199.296 140.542 196.848 139.93 194.688 138.706C192.528 137.446 190.836 135.736 189.612 133.576C188.388 131.38 187.776 128.896 187.776 126.124C187.776 123.352 188.388 120.904 189.612 118.78C190.836 116.62 192.51 114.928 194.634 113.704C196.758 112.48 199.17 111.868 201.87 111.868C203.994 111.868 205.848 112.3 207.432 113.164C209.016 113.992 210.366 115.27 211.482 116.998L210.456 118.942V112.516H218.016V140.434C218.016 143.026 217.386 145.33 216.126 147.346C214.866 149.398 213.138 151 210.942 152.152C208.782 153.304 206.28 153.88 203.436 153.88ZM203.166 133.198C204.534 133.198 205.722 132.91 206.73 132.334C207.738 131.758 208.512 130.948 209.052 129.904C209.628 128.86 209.916 127.636 209.916 126.232C209.916 124.828 209.628 123.604 209.052 122.56C208.476 121.48 207.684 120.652 206.676 120.076C205.668 119.464 204.498 119.158 203.166 119.158C201.798 119.158 200.574 119.464 199.494 120.076C198.45 120.652 197.622 121.48 197.01 122.56C196.434 123.604 196.146 124.828 196.146 126.232C196.146 127.6 196.434 128.806 197.01 129.85C197.622 130.894 198.45 131.722 199.494 132.334C200.574 132.91 201.798 133.198 203.166 133.198ZM223.98 142V101.122H232.08V127.312L229.056 126.34L242.07 112.516H252.06L241.368 124.396L252.006 142H242.826L233.916 127.042L238.614 125.854L229.596 135.682L232.08 130.984V142H223.98ZM264.746 142.648C262.622 142.648 260.786 142.306 259.238 141.622C257.69 140.938 256.502 139.966 255.674 138.706C254.846 137.41 254.432 135.88 254.432 134.116C254.432 132.46 254.81 131.002 255.566 129.742C256.322 128.446 257.474 127.366 259.022 126.502C260.606 125.638 262.568 125.026 264.908 124.666L273.926 123.208V129.148L266.366 130.498C265.214 130.714 264.332 131.092 263.72 131.632C263.108 132.136 262.802 132.874 262.802 133.846C262.802 134.746 263.144 135.448 263.828 135.952C264.512 136.456 265.358 136.708 266.366 136.708C267.698 136.708 268.868 136.42 269.876 135.844C270.884 135.268 271.658 134.494 272.198 133.522C272.774 132.514 273.062 131.416 273.062 130.228V122.56C273.062 121.444 272.612 120.508 271.712 119.752C270.848 118.996 269.66 118.618 268.148 118.618C266.708 118.618 265.43 119.014 264.314 119.806C263.234 120.598 262.442 121.642 261.938 122.938L255.458 119.86C256.034 118.204 256.952 116.782 258.212 115.594C259.472 114.406 260.984 113.488 262.748 112.84C264.512 112.192 266.438 111.868 268.526 111.868C271.01 111.868 273.206 112.318 275.114 113.218C277.022 114.118 278.498 115.378 279.542 116.998C280.622 118.582 281.162 120.436 281.162 122.56V142H273.602V137.248L275.438 136.924C274.574 138.22 273.62 139.3 272.576 140.164C271.532 140.992 270.362 141.604 269.066 142C267.77 142.432 266.33 142.648 264.746 142.648ZM300.777 142.324C297.213 142.324 294.441 141.37 292.461 139.462C290.517 137.518 289.545 134.818 289.545 131.362V119.536H284.577V112.516H284.847C286.359 112.516 287.511 112.138 288.303 111.382C289.131 110.626 289.545 109.492 289.545 107.98V105.82H297.645V112.516H304.557V119.536H297.645V130.822C297.645 131.83 297.825 132.676 298.185 133.36C298.545 134.008 299.103 134.494 299.859 134.818C300.615 135.142 301.551 135.304 302.667 135.304C302.919 135.304 303.207 135.286 303.531 135.25C303.855 135.214 304.197 135.178 304.557 135.142V142C304.017 142.072 303.405 142.144 302.721 142.216C302.037 142.288 301.389 142.324 300.777 142.324ZM309.304 142V101.122H317.404V127.312L314.38 126.34L327.394 112.516H337.384L326.692 124.396L337.33 142H328.15L319.24 127.042L323.938 125.854L314.92 135.682L317.404 130.984V142H309.304ZM350.071 142.648C347.947 142.648 346.111 142.306 344.563 141.622C343.015 140.938 341.827 139.966 340.999 138.706C340.171 137.41 339.757 135.88 339.757 134.116C339.757 132.46 340.135 131.002 340.891 129.742C341.647 128.446 342.799 127.366 344.347 126.502C345.931 125.638 347.893 125.026 350.233 124.666L359.251 123.208V129.148L351.691 130.498C350.539 130.714 349.657 131.092 349.045 131.632C348.433 132.136 348.127 132.874 348.127 133.846C348.127 134.746 348.469 135.448 349.153 135.952C349.837 136.456 350.683 136.708 351.691 136.708C353.023 136.708 354.193 136.42 355.201 135.844C356.209 135.268 356.983 134.494 357.523 133.522C358.099 132.514 358.387 131.416 358.387 130.228V122.56C358.387 121.444 357.937 120.508 357.037 119.752C356.173 118.996 354.985 118.618 353.473 118.618C352.033 118.618 350.755 119.014 349.639 119.806C348.559 120.598 347.767 121.642 347.263 122.938L340.783 119.86C341.359 118.204 342.277 116.782 343.537 115.594C344.797 114.406 346.309 113.488 348.073 112.84C349.837 112.192 351.763 111.868 353.851 111.868C356.335 111.868 358.531 112.318 360.439 113.218C362.347 114.118 363.823 115.378 364.867 116.998C365.947 118.582 366.487 120.436 366.487 122.56V142H358.927V137.248L360.763 136.924C359.899 138.22 358.945 139.3 357.901 140.164C356.857 140.992 355.687 141.604 354.391 142C353.095 142.432 351.655 142.648 350.071 142.648ZM372.427 142V112.516H379.987V118.348L379.555 117.052C380.239 115.288 381.337 113.992 382.849 113.164C384.397 112.3 386.197 111.868 388.249 111.868C390.481 111.868 392.425 112.336 394.081 113.272C395.773 114.208 397.087 115.522 398.023 117.214C398.959 118.87 399.427 120.814 399.427 123.046V142H391.327V124.774C391.327 123.622 391.093 122.632 390.625 121.804C390.193 120.976 389.563 120.328 388.735 119.86C387.943 119.392 387.007 119.158 385.927 119.158C384.883 119.158 383.947 119.392 383.119 119.86C382.291 120.328 381.643 120.976 381.175 121.804C380.743 122.632 380.527 123.622 380.527 124.774V142H372.427ZM11.124 210L0.594 169.77H9.666L17.604 203.466H15.174L23.544 169.77H32.184L40.554 203.466H38.124L46.062 169.77H55.134L44.604 210H34.884L26.46 177.6H29.268L20.844 210H11.124ZM65.6741 210.648C63.5501 210.648 61.7141 210.306 60.1661 209.622C58.6181 208.938 57.4301 207.966 56.6021 206.706C55.7741 205.41 55.3601 203.88 55.3601 202.116C55.3601 200.46 55.7381 199.002 56.4941 197.742C57.2501 196.446 58.4021 195.366 59.9501 194.502C61.5341 193.638 63.4961 193.026 65.8361 192.666L74.8541 191.208V197.148L67.2941 198.498C66.1421 198.714 65.2601 199.092 64.6481 199.632C64.0361 200.136 63.7301 200.874 63.7301 201.846C63.7301 202.746 64.0721 203.448 64.7561 203.952C65.4401 204.456 66.2861 204.708 67.2941 204.708C68.6261 204.708 69.7961 204.42 70.8041 203.844C71.8121 203.268 72.5861 202.494 73.1261 201.522C73.7021 200.514 73.9901 199.416 73.9901 198.228V190.56C73.9901 189.444 73.5401 188.508 72.6401 187.752C71.7761 186.996 70.5881 186.618 69.0761 186.618C67.6361 186.618 66.3581 187.014 65.2421 187.806C64.1621 188.598 63.3701 189.642 62.8661 190.938L56.3861 187.86C56.9621 186.204 57.8801 184.782 59.1401 183.594C60.4001 182.406 61.9121 181.488 63.6761 180.84C65.4401 180.192 67.3661 179.868 69.4541 179.868C71.9381 179.868 74.1341 180.318 76.0421 181.218C77.9501 182.118 79.4261 183.378 80.4701 184.998C81.5501 186.582 82.0901 188.436 82.0901 190.56V210H74.5301V205.248L76.3661 204.924C75.5021 206.22 74.5481 207.3 73.5041 208.164C72.4601 208.992 71.2901 209.604 69.9941 210C68.6981 210.432 67.2581 210.648 65.6741 210.648ZM95.8065 210L85.6545 180.516H94.0245L101.153 201.792L98.2365 201.738L106.175 180.516H113.195L121.079 201.738L118.163 201.792L125.291 180.516H133.715L123.509 210H116.489L108.281 187.212H111.089L102.827 210H95.8065ZM145.356 210.648C143.232 210.648 141.396 210.306 139.848 209.622C138.3 208.938 137.112 207.966 136.284 206.706C135.456 205.41 135.042 203.88 135.042 202.116C135.042 200.46 135.42 199.002 136.176 197.742C136.932 196.446 138.084 195.366 139.632 194.502C141.216 193.638 143.178 193.026 145.518 192.666L154.536 191.208V197.148L146.976 198.498C145.824 198.714 144.942 199.092 144.33 199.632C143.718 200.136 143.412 200.874 143.412 201.846C143.412 202.746 143.754 203.448 144.438 203.952C145.122 204.456 145.968 204.708 146.976 204.708C148.308 204.708 149.478 204.42 150.486 203.844C151.494 203.268 152.268 202.494 152.808 201.522C153.384 200.514 153.672 199.416 153.672 198.228V190.56C153.672 189.444 153.222 188.508 152.322 187.752C151.458 186.996 150.27 186.618 148.758 186.618C147.318 186.618 146.04 187.014 144.924 187.806C143.844 188.598 143.052 189.642 142.548 190.938L136.068 187.86C136.644 186.204 137.562 184.782 138.822 183.594C140.082 182.406 141.594 181.488 143.358 180.84C145.122 180.192 147.048 179.868 149.136 179.868C151.62 179.868 153.816 180.318 155.724 181.218C157.632 182.118 159.108 183.378 160.152 184.998C161.232 186.582 161.772 188.436 161.772 190.56V210H154.212V205.248L156.048 204.924C155.184 206.22 154.23 207.3 153.186 208.164C152.142 208.992 150.972 209.604 149.676 210C148.38 210.432 146.94 210.648 145.356 210.648ZM179.268 210.648C176.028 210.648 173.202 209.892 170.79 208.38C168.414 206.832 166.794 204.762 165.93 202.17L171.87 199.362C172.626 200.946 173.652 202.188 174.948 203.088C176.244 203.988 177.684 204.438 179.268 204.438C180.42 204.438 181.302 204.204 181.914 203.736C182.526 203.268 182.832 202.62 182.832 201.792C182.832 201.36 182.724 201 182.508 200.712C182.292 200.388 181.968 200.1 181.536 199.848C181.104 199.596 180.564 199.38 179.916 199.2L174.894 197.796C172.482 197.112 170.628 196.014 169.332 194.502C168.036 192.954 167.388 191.136 167.388 189.048C167.388 187.212 167.856 185.61 168.792 184.242C169.728 182.874 171.042 181.812 172.734 181.056C174.426 180.264 176.37 179.868 178.566 179.868C181.446 179.868 183.966 180.552 186.126 181.92C188.322 183.252 189.87 185.142 190.77 187.59L184.776 190.398C184.344 189.174 183.552 188.202 182.4 187.482C181.284 186.726 180.006 186.348 178.566 186.348C177.522 186.348 176.694 186.564 176.082 186.996C175.506 187.428 175.218 188.022 175.218 188.778C175.218 189.174 175.326 189.534 175.542 189.858C175.758 190.182 176.1 190.47 176.568 190.722C177.072 190.974 177.684 191.208 178.404 191.424L183.102 192.828C185.55 193.548 187.422 194.646 188.718 196.122C190.014 197.562 190.662 199.344 190.662 201.468C190.662 203.304 190.176 204.906 189.204 206.274C188.268 207.642 186.954 208.722 185.262 209.514C183.57 210.27 181.572 210.648 179.268 210.648ZM204.629 210.648C202.505 210.648 200.669 210.306 199.121 209.622C197.573 208.938 196.385 207.966 195.557 206.706C194.729 205.41 194.315 203.88 194.315 202.116C194.315 200.46 194.693 199.002 195.449 197.742C196.205 196.446 197.357 195.366 198.905 194.502C200.489 193.638 202.451 193.026 204.791 192.666L213.809 191.208V197.148L206.249 198.498C205.097 198.714 204.215 199.092 203.603 199.632C202.991 200.136 202.685 200.874 202.685 201.846C202.685 202.746 203.027 203.448 203.711 203.952C204.395 204.456 205.241 204.708 206.249 204.708C207.581 204.708 208.751 204.42 209.759 203.844C210.767 203.268 211.541 202.494 212.081 201.522C212.657 200.514 212.945 199.416 212.945 198.228V190.56C212.945 189.444 212.495 188.508 211.595 187.752C210.731 186.996 209.543 186.618 208.031 186.618C206.591 186.618 205.313 187.014 204.197 187.806C203.117 188.598 202.325 189.642 201.821 190.938L195.341 187.86C195.917 186.204 196.835 184.782 198.095 183.594C199.355 182.406 200.867 181.488 202.631 180.84C204.395 180.192 206.321 179.868 208.409 179.868C210.893 179.868 213.089 180.318 214.997 181.218C216.905 182.118 218.381 183.378 219.425 184.998C220.505 186.582 221.045 188.436 221.045 190.56V210H213.485V205.248L215.321 204.924C214.457 206.22 213.503 207.3 212.459 208.164C211.415 208.992 210.245 209.604 208.949 210C207.653 210.432 206.213 210.648 204.629 210.648ZM226.986 210V180.516H234.546V186.348L234.114 185.052C234.798 183.288 235.896 181.992 237.408 181.164C238.956 180.3 240.756 179.868 242.808 179.868C245.04 179.868 246.984 180.336 248.64 181.272C250.332 182.208 251.646 183.522 252.582 185.214C253.518 186.87 253.986 188.814 253.986 191.046V210H245.886V192.774C245.886 191.622 245.652 190.632 245.184 189.804C244.752 188.976 244.122 188.328 243.294 187.86C242.502 187.392 241.566 187.158 240.486 187.158C239.442 187.158 238.506 187.392 237.678 187.86C236.85 188.328 236.202 188.976 235.734 189.804C235.302 190.632 235.086 191.622 235.086 192.774V210H226.986ZM259.312 210V180.516H266.872V187.698L266.062 186.51C266.494 184.242 267.538 182.568 269.194 181.488C270.85 180.408 272.83 179.868 275.134 179.868C277.582 179.868 279.724 180.498 281.56 181.758C283.432 182.982 284.602 184.638 285.07 186.726L282.748 186.942C283.72 184.53 285.106 182.748 286.906 181.596C288.706 180.444 290.812 179.868 293.224 179.868C295.348 179.868 297.22 180.336 298.84 181.272C300.496 182.208 301.792 183.522 302.728 185.214C303.664 186.87 304.132 188.814 304.132 191.046V210H296.032V192.774C296.032 191.622 295.816 190.632 295.384 189.804C294.988 188.976 294.412 188.328 293.656 187.86C292.9 187.392 291.982 187.158 290.902 187.158C289.858 187.158 288.94 187.392 288.148 187.86C287.392 188.328 286.798 188.976 286.366 189.804C285.97 190.632 285.772 191.622 285.772 192.774V210H277.672V192.774C277.672 191.622 277.456 190.632 277.024 189.804C276.628 188.976 276.052 188.328 275.296 187.86C274.54 187.392 273.622 187.158 272.542 187.158C271.498 187.158 270.58 187.392 269.788 187.86C269.032 188.328 268.438 188.976 268.006 189.804C267.61 190.632 267.412 191.622 267.412 192.774V210H259.312ZM320.046 210.648C317.67 210.648 315.636 210.144 313.944 209.136C312.288 208.092 311.028 206.652 310.164 204.816C309.3 202.98 308.868 200.838 308.868 198.39V180.516H316.968V197.742C316.968 198.858 317.184 199.848 317.616 200.712C318.084 201.54 318.732 202.188 319.56 202.656C320.388 203.124 321.324 203.358 322.368 203.358C323.448 203.358 324.384 203.124 325.176 202.656C326.004 202.188 326.634 201.54 327.066 200.712C327.534 199.848 327.768 198.858 327.768 197.742V180.516H335.868V210H328.308V204.168L328.74 205.464C328.056 207.228 326.94 208.542 325.392 209.406C323.88 210.234 322.098 210.648 320.046 210.648ZM346.108 197.58L345.568 169.77H353.668L353.128 197.58H346.108ZM345.568 210V201.9H353.668V210H345.568Z" fill="#212447"/>
<path d="M424.727 74.648C421.847 74.648 419.165 74.126 416.681 73.082C414.233 72.038 412.091 70.58 410.255 68.708C408.419 66.836 406.979 64.64 405.935 62.12C404.927 59.6 404.423 56.846 404.423 53.858C404.423 50.87 404.927 48.116 405.935 45.596C406.943 43.04 408.365 40.844 410.201 39.008C412.037 37.136 414.179 35.696 416.627 34.688C419.111 33.644 421.811 33.122 424.727 33.122C427.643 33.122 430.253 33.608 432.557 34.58C434.897 35.552 436.877 36.848 438.497 38.468C440.117 40.088 441.269 41.888 441.953 43.868L434.555 47.432C433.871 45.488 432.665 43.886 430.937 42.626C429.245 41.33 427.175 40.682 424.727 40.682C422.351 40.682 420.263 41.24 418.463 42.356C416.663 43.472 415.259 45.02 414.251 47C413.279 48.944 412.793 51.23 412.793 53.858C412.793 56.486 413.279 58.79 414.251 60.77C415.259 62.75 416.663 64.298 418.463 65.414C420.263 66.53 422.351 67.088 424.727 67.088C427.175 67.088 429.245 66.458 430.937 65.198C432.665 63.902 433.871 62.282 434.555 60.338L441.953 63.902C441.269 65.882 440.117 67.682 438.497 69.302C436.877 70.922 434.897 72.218 432.557 73.19C430.253 74.162 427.643 74.648 424.727 74.648ZM455.328 74.648C453.204 74.648 451.368 74.306 449.82 73.622C448.272 72.938 447.084 71.966 446.256 70.706C445.428 69.41 445.014 67.88 445.014 66.116C445.014 64.46 445.392 63.002 446.148 61.742C446.904 60.446 448.056 59.366 449.604 58.502C451.188 57.638 453.15 57.026 455.49 56.666L464.508 55.208V61.148L456.948 62.498C455.796 62.714 454.914 63.092 454.302 63.632C453.69 64.136 453.384 64.874 453.384 65.846C453.384 66.746 453.726 67.448 454.41 67.952C455.094 68.456 455.94 68.708 456.948 68.708C458.28 68.708 459.45 68.42 460.458 67.844C461.466 67.268 462.24 66.494 462.78 65.522C463.356 64.514 463.644 63.416 463.644 62.228V54.56C463.644 53.444 463.194 52.508 462.294 51.752C461.43 50.996 460.242 50.618 458.73 50.618C457.29 50.618 456.012 51.014 454.896 51.806C453.816 52.598 453.024 53.642 452.52 54.938L446.04 51.86C446.616 50.204 447.534 48.782 448.794 47.594C450.054 46.406 451.566 45.488 453.33 44.84C455.094 44.192 457.02 43.868 459.108 43.868C461.592 43.868 463.788 44.318 465.696 45.218C467.604 46.118 469.08 47.378 470.124 48.998C471.204 50.582 471.744 52.436 471.744 54.56V74H464.184V69.248L466.02 68.924C465.156 70.22 464.202 71.3 463.158 72.164C462.114 72.992 460.944 73.604 459.648 74C458.352 74.432 456.912 74.648 455.328 74.648ZM477.685 74V44.516H485.245V51.59L484.705 50.564C485.353 48.08 486.415 46.406 487.891 45.542C489.403 44.642 491.185 44.192 493.237 44.192H494.965V51.212H492.427C490.447 51.212 488.845 51.824 487.621 53.048C486.397 54.236 485.785 55.928 485.785 58.124V74H477.685ZM507.641 74.648C505.517 74.648 503.681 74.306 502.133 73.622C500.585 72.938 499.397 71.966 498.569 70.706C497.741 69.41 497.327 67.88 497.327 66.116C497.327 64.46 497.705 63.002 498.461 61.742C499.217 60.446 500.369 59.366 501.917 58.502C503.501 57.638 505.463 57.026 507.803 56.666L516.821 55.208V61.148L509.261 62.498C508.109 62.714 507.227 63.092 506.615 63.632C506.003 64.136 505.697 64.874 505.697 65.846C505.697 66.746 506.039 67.448 506.723 67.952C507.407 68.456 508.253 68.708 509.261 68.708C510.593 68.708 511.763 68.42 512.771 67.844C513.779 67.268 514.553 66.494 515.093 65.522C515.669 64.514 515.957 63.416 515.957 62.228V54.56C515.957 53.444 515.507 52.508 514.607 51.752C513.743 50.996 512.555 50.618 511.043 50.618C509.603 50.618 508.325 51.014 507.209 51.806C506.129 52.598 505.337 53.642 504.833 54.938L498.353 51.86C498.929 50.204 499.847 48.782 501.107 47.594C502.367 46.406 503.879 45.488 505.643 44.84C507.407 44.192 509.333 43.868 511.421 43.868C513.905 43.868 516.101 44.318 518.009 45.218C519.917 46.118 521.393 47.378 522.437 48.998C523.517 50.582 524.057 52.436 524.057 54.56V74H516.497V69.248L518.333 68.924C517.469 70.22 516.515 71.3 515.471 72.164C514.427 72.992 513.257 73.604 511.961 74C510.665 74.432 509.225 74.648 507.641 74.648ZM537.324 74L550.932 33.77H562.056L575.664 74H566.538L563.838 65.792H549.096L546.396 74H537.324ZM551.418 58.502H561.516L555.36 39.494H557.628L551.418 58.502ZM590.807 74.648C587.567 74.648 584.741 73.892 582.329 72.38C579.953 70.832 578.333 68.762 577.469 66.17L583.409 63.362C584.165 64.946 585.191 66.188 586.487 67.088C587.783 67.988 589.223 68.438 590.807 68.438C591.959 68.438 592.841 68.204 593.453 67.736C594.065 67.268 594.371 66.62 594.371 65.792C594.371 65.36 594.263 65 594.047 64.712C593.831 64.388 593.507 64.1 593.075 63.848C592.643 63.596 592.103 63.38 591.455 63.2L586.433 61.796C584.021 61.112 582.167 60.014 580.871 58.502C579.575 56.954 578.927 55.136 578.927 53.048C578.927 51.212 579.395 49.61 580.331 48.242C581.267 46.874 582.581 45.812 584.273 45.056C585.965 44.264 587.909 43.868 590.105 43.868C592.985 43.868 595.505 44.552 597.665 45.92C599.861 47.252 601.409 49.142 602.309 51.59L596.315 54.398C595.883 53.174 595.091 52.202 593.939 51.482C592.823 50.726 591.545 50.348 590.105 50.348C589.061 50.348 588.233 50.564 587.621 50.996C587.045 51.428 586.757 52.022 586.757 52.778C586.757 53.174 586.865 53.534 587.081 53.858C587.297 54.182 587.639 54.47 588.107 54.722C588.611 54.974 589.223 55.208 589.943 55.424L594.641 56.828C597.089 57.548 598.961 58.646 600.257 60.122C601.553 61.562 602.201 63.344 602.201 65.468C602.201 67.304 601.715 68.906 600.743 70.274C599.807 71.642 598.493 72.722 596.801 73.514C595.109 74.27 593.111 74.648 590.807 74.648ZM607.042 74V44.516H615.142V74H607.042ZM607.042 41.87V33.77H615.142V41.87H607.042ZM621.07 74V33.122H629.17V59.312L626.146 58.34L639.16 44.516H649.15L638.458 56.396L649.096 74H639.916L631.006 59.042L635.704 57.854L626.686 67.682L629.17 62.984V74H621.07Z" fill="#667AFB"/>
<path d="M396 184.559C401.405 178.537 420.066 184.203 418.237 193.362C416.998 199.571 411.751 208.186 405.266 203.09C398.78 197.994 402.486 183.077 430.282 179C434.813 179 442.082 180.734 446.369 186.412M446.369 186.412C448.804 189.638 451.833 195.133 449.74 200.311C446.812 207.552 438.807 215.321 430.282 204.944C428.344 200.774 428.848 191.231 446.369 186.412ZM446.369 186.412C454.442 185.64 472.07 187.895 478 203.09" stroke="#667AFB" stroke-width="1.85311"/>
</svg>
