<svg width="855" height="42" viewBox="0 0 855 42" fill="none" xmlns="http://www.w3.org/2000/svg">
<path d="M83.5 15.5593C78.0951 9.53673 59.4341 15.2026 61.2627 24.3616C62.5025 30.5713 67.7486 39.1864 74.2345 34.0904C80.7203 28.9944 77.0141 14.0768 49.2175 10C44.687 10 37.4178 11.7337 33.1307 17.4124M33.1307 17.4124C30.6958 20.6376 27.6665 26.1329 29.7599 31.3107C32.6877 38.5524 40.6932 46.3209 49.2175 35.9435C51.1559 31.774 50.6522 22.2305 33.1307 17.4124ZM33.1307 17.4124C25.0579 16.6403 7.42994 18.8949 1.5 34.0904" stroke="#667AFB" stroke-width="1.85311"/>
<path d="M771.5 15.5593C776.905 9.53673 795.566 15.2026 793.737 24.3616C792.498 30.5713 787.251 39.1864 780.766 34.0904C774.28 28.9944 777.986 14.0768 805.782 10C810.313 10 817.582 11.7337 821.869 17.4124M821.869 17.4124C824.304 20.6376 827.333 26.1329 825.24 31.3107C822.312 38.5524 814.307 46.3209 805.782 35.9435C803.844 31.774 804.348 22.2305 821.869 17.4124ZM821.869 17.4124C829.942 16.6403 847.57 18.8949 853.5 34.0904" stroke="#667AFB" stroke-width="1.85311"/>
<path d="M106.904 33V28.5H108.452C109.604 28.5 110.516 28.176 111.188 27.528C111.884 26.856 112.232 25.968 112.232 24.864V6.18H117.164V24.684C117.164 26.34 116.804 27.792 116.084 29.04C115.388 30.288 114.38 31.26 113.06 31.956C111.764 32.652 110.228 33 108.452 33H106.904ZM131.117 33.432C129.101 33.432 127.337 32.976 125.825 32.064C124.313 31.152 123.137 29.916 122.297 28.356C121.457 26.796 121.037 25.068 121.037 23.172C121.037 21.204 121.457 19.464 122.297 17.952C123.161 16.416 124.325 15.204 125.789 14.316C127.277 13.428 128.933 12.984 130.757 12.984C132.293 12.984 133.637 13.236 134.789 13.74C135.965 14.244 136.961 14.94 137.777 15.828C138.593 16.716 139.217 17.736 139.649 18.888C140.081 20.016 140.297 21.24 140.297 22.56C140.297 22.896 140.273 23.244 140.225 23.604C140.201 23.964 140.141 24.276 140.045 24.54H124.925V20.94H137.381L135.149 22.632C135.365 21.528 135.305 20.544 134.969 19.68C134.657 18.816 134.129 18.132 133.385 17.628C132.665 17.124 131.789 16.872 130.757 16.872C129.773 16.872 128.897 17.124 128.129 17.628C127.361 18.108 126.773 18.828 126.365 19.788C125.981 20.724 125.837 21.864 125.933 23.208C125.837 24.408 125.993 25.476 126.401 26.412C126.833 27.324 127.457 28.032 128.273 28.536C129.113 29.04 130.073 29.292 131.153 29.292C132.233 29.292 133.145 29.064 133.889 28.608C134.657 28.152 135.257 27.54 135.689 26.772L139.505 28.644C139.121 29.58 138.521 30.408 137.705 31.128C136.889 31.848 135.917 32.412 134.789 32.82C133.685 33.228 132.461 33.432 131.117 33.432ZM143.872 33V5.748H148.588V33H143.872ZM158.882 33.432C157.514 33.432 156.326 33.204 155.318 32.748C154.31 32.292 153.53 31.644 152.978 30.804C152.426 29.94 152.15 28.944 152.15 27.816C152.15 26.736 152.39 25.776 152.87 24.936C153.35 24.072 154.094 23.352 155.102 22.776C156.11 22.2 157.382 21.792 158.918 21.552L165.326 20.508V24.108L159.818 25.044C158.882 25.212 158.186 25.512 157.73 25.944C157.274 26.376 157.046 26.94 157.046 27.636C157.046 28.308 157.298 28.848 157.802 29.256C158.33 29.64 158.978 29.832 159.746 29.832C160.73 29.832 161.594 29.628 162.338 29.22C163.106 28.788 163.694 28.2 164.102 27.456C164.534 26.712 164.75 25.896 164.75 25.008V19.968C164.75 19.128 164.414 18.432 163.742 17.88C163.094 17.304 162.23 17.016 161.15 17.016C160.142 17.016 159.242 17.292 158.45 17.844C157.682 18.372 157.118 19.08 156.758 19.968L152.906 18.096C153.29 17.064 153.89 16.176 154.706 15.432C155.546 14.664 156.53 14.064 157.658 13.632C158.786 13.2 160.01 12.984 161.33 12.984C162.938 12.984 164.354 13.284 165.578 13.884C166.802 14.46 167.75 15.276 168.422 16.332C169.118 17.364 169.466 18.576 169.466 19.968V33H165.002V29.652L166.01 29.58C165.506 30.42 164.906 31.128 164.21 31.704C163.514 32.256 162.722 32.688 161.834 33C160.946 33.288 159.962 33.432 158.882 33.432ZM171.125 40.956C170.813 40.956 170.489 40.944 170.153 40.92C169.817 40.896 169.541 40.86 169.325 40.812V36.708C169.757 36.78 170.189 36.816 170.621 36.816C171.629 36.816 172.409 36.576 172.961 36.096C173.537 35.64 173.825 34.932 173.825 33.972V13.416H178.541V33.972C178.541 35.46 178.241 36.72 177.641 37.752C177.041 38.808 176.177 39.6 175.049 40.128C173.945 40.68 172.637 40.956 171.125 40.956ZM173.825 11.22V6.18H178.541V11.22H173.825ZM188.835 33.432C187.467 33.432 186.279 33.204 185.271 32.748C184.263 32.292 183.483 31.644 182.931 30.804C182.379 29.94 182.103 28.944 182.103 27.816C182.103 26.736 182.343 25.776 182.823 24.936C183.303 24.072 184.047 23.352 185.055 22.776C186.063 22.2 187.335 21.792 188.871 21.552L195.279 20.508V24.108L189.771 25.044C188.835 25.212 188.139 25.512 187.683 25.944C187.227 26.376 186.999 26.94 186.999 27.636C186.999 28.308 187.251 28.848 187.755 29.256C188.283 29.64 188.931 29.832 189.699 29.832C190.683 29.832 191.547 29.628 192.291 29.22C193.059 28.788 193.647 28.2 194.055 27.456C194.487 26.712 194.703 25.896 194.703 25.008V19.968C194.703 19.128 194.367 18.432 193.695 17.88C193.047 17.304 192.183 17.016 191.103 17.016C190.095 17.016 189.195 17.292 188.403 17.844C187.635 18.372 187.071 19.08 186.711 19.968L182.859 18.096C183.243 17.064 183.843 16.176 184.659 15.432C185.499 14.664 186.483 14.064 187.611 13.632C188.739 13.2 189.963 12.984 191.283 12.984C192.891 12.984 194.307 13.284 195.531 13.884C196.755 14.46 197.703 15.276 198.375 16.332C199.071 17.364 199.419 18.576 199.419 19.968V33H194.955V29.652L195.963 29.58C195.459 30.42 194.859 31.128 194.163 31.704C193.467 32.256 192.675 32.688 191.787 33C190.899 33.288 189.915 33.432 188.835 33.432ZM203.778 33V5.748H208.494V17.268L207.846 16.584C208.302 15.408 209.046 14.52 210.078 13.92C211.134 13.296 212.358 12.984 213.75 12.984C215.19 12.984 216.462 13.296 217.566 13.92C218.694 14.544 219.57 15.42 220.194 16.548C220.818 17.652 221.13 18.936 221.13 20.4V33H216.414V21.516C216.414 20.652 216.246 19.908 215.91 19.284C215.574 18.66 215.106 18.18 214.506 17.844C213.93 17.484 213.246 17.304 212.454 17.304C211.686 17.304 211.002 17.484 210.402 17.844C209.802 18.18 209.334 18.66 208.998 19.284C208.662 19.908 208.494 20.652 208.494 21.516V33H203.778ZM225.118 33V13.416H229.834V33H225.118ZM225.118 11.22V6.18H229.834V11.22H225.118ZM240.983 33V6.18H245.879V28.68H257.363V33H240.983ZM269.422 33.432C267.406 33.432 265.642 32.976 264.13 32.064C262.618 31.152 261.442 29.916 260.602 28.356C259.762 26.796 259.342 25.068 259.342 23.172C259.342 21.204 259.762 19.464 260.602 17.952C261.466 16.416 262.63 15.204 264.094 14.316C265.582 13.428 267.238 12.984 269.062 12.984C270.598 12.984 271.942 13.236 273.094 13.74C274.27 14.244 275.266 14.94 276.082 15.828C276.898 16.716 277.522 17.736 277.954 18.888C278.386 20.016 278.602 21.24 278.602 22.56C278.602 22.896 278.578 23.244 278.53 23.604C278.506 23.964 278.446 24.276 278.35 24.54H263.229V20.94H275.686L273.454 22.632C273.67 21.528 273.61 20.544 273.274 19.68C272.962 18.816 272.434 18.132 271.69 17.628C270.97 17.124 270.094 16.872 269.062 16.872C268.078 16.872 267.202 17.124 266.434 17.628C265.666 18.108 265.078 18.828 264.67 19.788C264.286 20.724 264.142 21.864 264.238 23.208C264.142 24.408 264.298 25.476 264.706 26.412C265.138 27.324 265.762 28.032 266.578 28.536C267.418 29.04 268.378 29.292 269.458 29.292C270.538 29.292 271.45 29.064 272.194 28.608C272.962 28.152 273.562 27.54 273.994 26.772L277.81 28.644C277.426 29.58 276.826 30.408 276.01 31.128C275.194 31.848 274.222 32.412 273.094 32.82C271.99 33.228 270.766 33.432 269.422 33.432ZM292.868 33.432C291.452 33.432 290.144 33.156 288.944 32.604C287.768 32.028 286.832 31.212 286.136 30.156L286.604 29.22V33H282.176V5.748H286.892V17.304L286.172 16.332C286.844 15.276 287.756 14.46 288.908 13.884C290.06 13.284 291.392 12.984 292.904 12.984C294.752 12.984 296.42 13.44 297.908 14.352C299.396 15.264 300.572 16.488 301.436 18.024C302.324 19.56 302.768 21.288 302.768 23.208C302.768 25.104 302.336 26.832 301.472 28.392C300.608 29.952 299.432 31.188 297.944 32.1C296.456 32.988 294.764 33.432 292.868 33.432ZM292.328 29.112C293.408 29.112 294.368 28.86 295.208 28.356C296.048 27.852 296.696 27.156 297.152 26.268C297.632 25.38 297.872 24.36 297.872 23.208C297.872 22.056 297.632 21.048 297.152 20.184C296.696 19.296 296.048 18.6 295.208 18.096C294.368 17.568 293.408 17.304 292.328 17.304C291.296 17.304 290.36 17.556 289.52 18.06C288.704 18.564 288.056 19.272 287.576 20.184C287.12 21.072 286.892 22.08 286.892 23.208C286.892 24.36 287.12 25.38 287.576 26.268C288.056 27.156 288.704 27.852 289.52 28.356C290.36 28.86 291.296 29.112 292.328 29.112ZM306.364 33V13.416H311.08V33H306.364ZM306.364 11.22V6.18H311.08V11.22H306.364ZM315.434 33V5.748H320.15V17.268L319.502 16.584C319.958 15.408 320.702 14.52 321.734 13.92C322.79 13.296 324.014 12.984 325.406 12.984C326.846 12.984 328.118 13.296 329.222 13.92C330.35 14.544 331.226 15.42 331.85 16.548C332.474 17.652 332.786 18.936 332.786 20.4V33H328.07V21.516C328.07 20.652 327.902 19.908 327.566 19.284C327.23 18.66 326.762 18.18 326.162 17.844C325.586 17.484 324.902 17.304 324.11 17.304C323.342 17.304 322.658 17.484 322.058 17.844C321.458 18.18 320.99 18.66 320.654 19.284C320.318 19.908 320.15 20.652 320.15 21.516V33H315.434ZM352.281 33.432C350.385 33.432 348.693 32.988 347.205 32.1C345.717 31.188 344.541 29.952 343.677 28.392C342.813 26.832 342.381 25.104 342.381 23.208C342.381 21.288 342.813 19.56 343.677 18.024C344.541 16.488 345.717 15.264 347.205 14.352C348.717 13.44 350.397 12.984 352.245 12.984C353.733 12.984 355.053 13.284 356.205 13.884C357.381 14.46 358.305 15.276 358.977 16.332L358.257 17.304V5.748H362.973V33H358.509V29.22L359.013 30.156C358.341 31.212 357.405 32.028 356.205 32.604C355.005 33.156 353.697 33.432 352.281 33.432ZM352.785 29.112C353.865 29.112 354.813 28.86 355.629 28.356C356.445 27.852 357.081 27.156 357.537 26.268C358.017 25.38 358.257 24.36 358.257 23.208C358.257 22.08 358.017 21.072 357.537 20.184C357.081 19.272 356.445 18.564 355.629 18.06C354.813 17.556 353.865 17.304 352.785 17.304C351.729 17.304 350.781 17.568 349.941 18.096C349.101 18.6 348.441 19.296 347.961 20.184C347.505 21.048 347.277 22.056 347.277 23.208C347.277 24.36 347.505 25.38 347.961 26.268C348.441 27.156 349.101 27.852 349.941 28.356C350.781 28.86 351.729 29.112 352.785 29.112ZM373.3 33.432C371.932 33.432 370.744 33.204 369.736 32.748C368.728 32.292 367.948 31.644 367.396 30.804C366.844 29.94 366.568 28.944 366.568 27.816C366.568 26.736 366.808 25.776 367.288 24.936C367.768 24.072 368.512 23.352 369.52 22.776C370.528 22.2 371.8 21.792 373.336 21.552L379.744 20.508V24.108L374.236 25.044C373.3 25.212 372.604 25.512 372.148 25.944C371.692 26.376 371.464 26.94 371.464 27.636C371.464 28.308 371.716 28.848 372.22 29.256C372.748 29.64 373.396 29.832 374.164 29.832C375.148 29.832 376.012 29.628 376.756 29.22C377.524 28.788 378.112 28.2 378.52 27.456C378.952 26.712 379.168 25.896 379.168 25.008V19.968C379.168 19.128 378.832 18.432 378.16 17.88C377.512 17.304 376.648 17.016 375.568 17.016C374.56 17.016 373.66 17.292 372.868 17.844C372.1 18.372 371.536 19.08 371.176 19.968L367.324 18.096C367.708 17.064 368.308 16.176 369.124 15.432C369.964 14.664 370.948 14.064 372.076 13.632C373.204 13.2 374.428 12.984 375.748 12.984C377.356 12.984 378.772 13.284 379.996 13.884C381.22 14.46 382.168 15.276 382.84 16.332C383.536 17.364 383.884 18.576 383.884 19.968V33H379.42V29.652L380.428 29.58C379.924 30.42 379.324 31.128 378.628 31.704C377.932 32.256 377.14 32.688 376.252 33C375.364 33.288 374.38 33.432 373.3 33.432ZM388.243 33V13.416H392.671V17.772L392.311 17.124C392.767 15.66 393.475 14.64 394.435 14.064C395.419 13.488 396.595 13.2 397.963 13.2H399.115V17.376H397.423C396.079 17.376 394.999 17.796 394.183 18.636C393.367 19.452 392.959 20.604 392.959 22.092V33H388.243ZM401.708 33V13.416H406.424V33H401.708ZM401.708 11.22V6.18H406.424V11.22H401.708ZM421.208 33V10.356H416.024V6.18H426.104V33H421.208ZM442.244 33.432C440.108 33.432 438.236 32.856 436.628 31.704C435.02 30.552 433.76 28.932 432.848 26.844C431.96 24.756 431.516 22.332 431.516 19.572C431.516 16.788 431.96 14.364 432.848 12.3C433.736 10.236 434.984 8.628 436.592 7.476C438.2 6.324 440.072 5.748 442.208 5.748C444.392 5.748 446.276 6.324 447.86 7.476C449.468 8.628 450.728 10.248 451.64 12.336C452.552 14.4 453.008 16.812 453.008 19.572C453.008 22.332 452.552 24.756 451.64 26.844C450.752 28.908 449.504 30.528 447.896 31.704C446.288 32.856 444.404 33.432 442.244 33.432ZM442.28 28.968C443.504 28.968 444.548 28.596 445.412 27.852C446.276 27.084 446.936 26.004 447.392 24.612C447.872 23.196 448.112 21.516 448.112 19.572C448.112 17.628 447.872 15.96 447.392 14.568C446.936 13.152 446.264 12.072 445.376 11.328C444.512 10.584 443.456 10.212 442.208 10.212C441.008 10.212 439.976 10.584 439.112 11.328C438.248 12.072 437.576 13.152 437.096 14.568C436.64 15.96 436.412 17.628 436.412 19.572C436.412 21.492 436.64 23.16 437.096 24.576C437.576 25.968 438.248 27.048 439.112 27.816C440 28.584 441.056 28.968 442.28 28.968ZM467.732 33.432C465.596 33.432 463.724 32.856 462.116 31.704C460.508 30.552 459.248 28.932 458.336 26.844C457.448 24.756 457.004 22.332 457.004 19.572C457.004 16.788 457.448 14.364 458.336 12.3C459.224 10.236 460.472 8.628 462.08 7.476C463.688 6.324 465.56 5.748 467.696 5.748C469.88 5.748 471.764 6.324 473.348 7.476C474.956 8.628 476.216 10.248 477.128 12.336C478.04 14.4 478.496 16.812 478.496 19.572C478.496 22.332 478.04 24.756 477.128 26.844C476.24 28.908 474.992 30.528 473.384 31.704C471.776 32.856 469.892 33.432 467.732 33.432ZM467.768 28.968C468.992 28.968 470.036 28.596 470.9 27.852C471.764 27.084 472.424 26.004 472.88 24.612C473.36 23.196 473.6 21.516 473.6 19.572C473.6 17.628 473.36 15.96 472.88 14.568C472.424 13.152 471.752 12.072 470.864 11.328C470 10.584 468.944 10.212 467.696 10.212C466.496 10.212 465.464 10.584 464.6 11.328C463.736 12.072 463.064 13.152 462.584 14.568C462.128 15.96 461.9 17.628 461.9 19.572C461.9 21.492 462.128 23.16 462.584 24.576C463.064 25.968 463.736 27.048 464.6 27.816C465.488 28.584 466.544 28.968 467.768 28.968ZM490.341 33V26.016H483.357V21.948H490.341V15H494.409V21.948H501.357V26.016H494.409V33H490.341ZM513.233 33V6.18H518.129V20.148L516.797 19.68L528.209 6.18H534.365L523.673 18.852L523.961 15.396L534.689 33H528.929L521.729 21.192L518.129 25.476V33H513.233ZM544.254 33.432C542.742 33.432 541.422 33.096 540.294 32.424C539.19 31.752 538.338 30.816 537.738 29.616C537.162 28.416 536.874 27.012 536.874 25.404V13.416H541.59V25.008C541.59 25.824 541.746 26.544 542.058 27.168C542.394 27.768 542.862 28.248 543.462 28.608C544.086 28.944 544.782 29.112 545.55 29.112C546.318 29.112 547.002 28.944 547.602 28.608C548.202 28.248 548.67 27.756 549.006 27.132C549.342 26.508 549.51 25.764 549.51 24.9V13.416H554.226V33H549.762V29.148L550.158 29.832C549.702 31.032 548.946 31.932 547.89 32.532C546.858 33.132 545.646 33.432 544.254 33.432ZM558.61 33V13.416H563.038V17.772L562.678 17.124C563.134 15.66 563.842 14.64 564.802 14.064C565.786 13.488 566.962 13.2 568.33 13.2H569.482V17.376H567.79C566.446 17.376 565.366 17.796 564.55 18.636C563.734 19.452 563.326 20.604 563.326 22.092V33H558.61ZM579.527 33.432C577.439 33.432 575.615 32.94 574.055 31.956C572.519 30.948 571.463 29.592 570.887 27.888L574.415 26.196C574.919 27.3 575.615 28.164 576.503 28.788C577.415 29.412 578.423 29.724 579.527 29.724C580.391 29.724 581.075 29.532 581.579 29.148C582.083 28.764 582.335 28.26 582.335 27.636C582.335 27.252 582.227 26.94 582.011 26.7C581.819 26.436 581.543 26.22 581.183 26.052C580.847 25.86 580.475 25.704 580.067 25.584L576.863 24.684C575.207 24.204 573.947 23.472 573.083 22.488C572.243 21.504 571.823 20.34 571.823 18.996C571.823 17.796 572.123 16.752 572.723 15.864C573.347 14.952 574.199 14.244 575.279 13.74C576.383 13.236 577.643 12.984 579.059 12.984C580.907 12.984 582.539 13.428 583.955 14.316C585.371 15.204 586.379 16.452 586.979 18.06L583.379 19.752C583.043 18.864 582.479 18.156 581.687 17.628C580.895 17.1 580.007 16.836 579.023 16.836C578.231 16.836 577.607 17.016 577.151 17.376C576.695 17.736 576.467 18.204 576.467 18.78C576.467 19.14 576.563 19.452 576.755 19.716C576.947 19.98 577.211 20.196 577.547 20.364C577.907 20.532 578.315 20.688 578.771 20.832L581.903 21.768C583.511 22.248 584.747 22.968 585.611 23.928C586.499 24.888 586.943 26.064 586.943 27.456C586.943 28.632 586.631 29.676 586.007 30.588C585.383 31.476 584.519 32.172 583.415 32.676C582.311 33.18 581.015 33.432 579.527 33.432ZM597.551 33.432C596.039 33.432 594.719 33.096 593.591 32.424C592.487 31.752 591.635 30.816 591.035 29.616C590.459 28.416 590.171 27.012 590.171 25.404V13.416H594.887V25.008C594.887 25.824 595.043 26.544 595.355 27.168C595.691 27.768 596.159 28.248 596.759 28.608C597.383 28.944 598.079 29.112 598.847 29.112C599.615 29.112 600.299 28.944 600.899 28.608C601.499 28.248 601.967 27.756 602.303 27.132C602.639 26.508 602.807 25.764 602.807 24.9V13.416H607.523V33H603.059V29.148L603.455 29.832C602.999 31.032 602.243 31.932 601.187 32.532C600.155 33.132 598.943 33.432 597.551 33.432ZM619.359 33.432C617.271 33.432 615.447 32.94 613.887 31.956C612.351 30.948 611.295 29.592 610.719 27.888L614.247 26.196C614.751 27.3 615.447 28.164 616.335 28.788C617.247 29.412 618.255 29.724 619.359 29.724C620.223 29.724 620.907 29.532 621.411 29.148C621.915 28.764 622.167 28.26 622.167 27.636C622.167 27.252 622.059 26.94 621.843 26.7C621.651 26.436 621.375 26.22 621.015 26.052C620.679 25.86 620.307 25.704 619.899 25.584L616.695 24.684C615.039 24.204 613.779 23.472 612.915 22.488C612.075 21.504 611.655 20.34 611.655 18.996C611.655 17.796 611.955 16.752 612.555 15.864C613.179 14.952 614.031 14.244 615.111 13.74C616.215 13.236 617.475 12.984 618.891 12.984C620.739 12.984 622.371 13.428 623.787 14.316C625.203 15.204 626.211 16.452 626.811 18.06L623.211 19.752C622.875 18.864 622.311 18.156 621.519 17.628C620.727 17.1 619.839 16.836 618.855 16.836C618.063 16.836 617.439 17.016 616.983 17.376C616.527 17.736 616.299 18.204 616.299 18.78C616.299 19.14 616.395 19.452 616.587 19.716C616.779 19.98 617.043 20.196 617.379 20.364C617.739 20.532 618.147 20.688 618.603 20.832L621.735 21.768C623.343 22.248 624.579 22.968 625.443 23.928C626.331 24.888 626.775 26.064 626.775 27.456C626.775 28.632 626.463 29.676 625.839 30.588C625.215 31.476 624.351 32.172 623.247 32.676C622.143 33.18 620.847 33.432 619.359 33.432ZM650.406 33.432C648.438 33.432 646.602 33.084 644.898 32.388C643.194 31.692 641.706 30.72 640.434 29.472C639.162 28.224 638.166 26.76 637.446 25.08C636.75 23.376 636.402 21.54 636.402 19.572C636.402 17.58 636.75 15.744 637.446 14.064C638.142 12.384 639.126 10.92 640.398 9.672C641.67 8.424 643.158 7.464 644.862 6.792C646.566 6.096 648.414 5.748 650.406 5.748C652.398 5.748 654.246 6.096 655.95 6.792C657.654 7.488 659.142 8.46 660.414 9.708C661.686 10.932 662.67 12.384 663.366 14.064C664.086 15.744 664.446 17.58 664.446 19.572C664.446 21.54 664.086 23.376 663.366 25.08C662.646 26.76 661.65 28.224 660.378 29.472C659.106 30.72 657.618 31.692 655.914 32.388C654.234 33.084 652.398 33.432 650.406 33.432ZM650.406 28.968C651.726 28.968 652.938 28.74 654.042 28.284C655.146 27.804 656.106 27.144 656.922 26.304C657.762 25.464 658.398 24.468 658.83 23.316C659.286 22.164 659.514 20.916 659.514 19.572C659.514 18.228 659.286 16.992 658.83 15.864C658.398 14.712 657.762 13.716 656.922 12.876C656.106 12.012 655.146 11.352 654.042 10.896C652.938 10.44 651.726 10.212 650.406 10.212C649.11 10.212 647.91 10.44 646.806 10.896C645.702 11.352 644.73 12.012 643.89 12.876C643.074 13.716 642.438 14.712 641.982 15.864C641.526 16.992 641.298 18.228 641.298 19.572C641.298 20.916 641.526 22.164 641.982 23.316C642.438 24.468 643.074 25.464 643.89 26.304C644.73 27.144 645.702 27.804 646.806 28.284C647.91 28.74 649.11 28.968 650.406 28.968ZM668.403 33V13.416H672.831V17.268L672.471 16.584C672.927 15.408 673.671 14.52 674.703 13.92C675.759 13.296 676.983 12.984 678.375 12.984C679.815 12.984 681.087 13.296 682.191 13.92C683.319 14.544 684.195 15.42 684.819 16.548C685.443 17.652 685.755 18.936 685.755 20.4V33H681.039V21.516C681.039 20.652 680.871 19.908 680.535 19.284C680.199 18.66 679.731 18.18 679.131 17.844C678.555 17.484 677.871 17.304 677.079 17.304C676.311 17.304 675.627 17.484 675.027 17.844C674.427 18.18 673.959 18.66 673.623 19.284C673.287 19.908 673.119 20.652 673.119 21.516V33H668.403ZM689.743 33V5.748H694.459V33H689.743ZM698.813 33V13.416H703.529V33H698.813ZM698.813 11.22V6.18H703.529V11.22H698.813ZM707.884 33V13.416H712.312V17.268L711.952 16.584C712.408 15.408 713.152 14.52 714.184 13.92C715.24 13.296 716.464 12.984 717.856 12.984C719.296 12.984 720.568 13.296 721.672 13.92C722.8 14.544 723.676 15.42 724.3 16.548C724.924 17.652 725.236 18.936 725.236 20.4V33H720.52V21.516C720.52 20.652 720.352 19.908 720.016 19.284C719.68 18.66 719.212 18.18 718.612 17.844C718.036 17.484 717.352 17.304 716.56 17.304C715.792 17.304 715.108 17.484 714.508 17.844C713.908 18.18 713.44 18.66 713.104 19.284C712.768 19.908 712.6 20.652 712.6 21.516V33H707.884ZM738.511 33.432C736.495 33.432 734.731 32.976 733.219 32.064C731.707 31.152 730.531 29.916 729.691 28.356C728.851 26.796 728.431 25.068 728.431 23.172C728.431 21.204 728.851 19.464 729.691 17.952C730.555 16.416 731.719 15.204 733.183 14.316C734.671 13.428 736.327 12.984 738.151 12.984C739.687 12.984 741.031 13.236 742.183 13.74C743.359 14.244 744.355 14.94 745.171 15.828C745.987 16.716 746.611 17.736 747.043 18.888C747.475 20.016 747.691 21.24 747.691 22.56C747.691 22.896 747.667 23.244 747.619 23.604C747.595 23.964 747.535 24.276 747.439 24.54H732.319V20.94H744.775L742.543 22.632C742.759 21.528 742.699 20.544 742.363 19.68C742.051 18.816 741.523 18.132 740.779 17.628C740.059 17.124 739.183 16.872 738.151 16.872C737.167 16.872 736.291 17.124 735.523 17.628C734.755 18.108 734.167 18.828 733.759 19.788C733.375 20.724 733.231 21.864 733.327 23.208C733.231 24.408 733.387 25.476 733.795 26.412C734.227 27.324 734.851 28.032 735.667 28.536C736.507 29.04 737.467 29.292 738.547 29.292C739.627 29.292 740.539 29.064 741.283 28.608C742.051 28.152 742.651 27.54 743.083 26.772L746.899 28.644C746.515 29.58 745.915 30.408 745.099 31.128C744.283 31.848 743.311 32.412 742.183 32.82C741.079 33.228 739.855 33.432 738.511 33.432Z" fill="#2A2A2A"/>
</svg>
