<svg width="547" height="78" viewBox="0 0 547 78" fill="none" xmlns="http://www.w3.org/2000/svg">
<path d="M512.929 17.8262L515.432 2.00001" stroke="#667AFB" stroke-width="3.06909" stroke-linecap="round"/>
<path d="M526.041 29.6819L543.739 25.0177" stroke="#667AFB" stroke-width="3.06909" stroke-linecap="round"/>
<path d="M519.14 23.928L536.473 6.94853" stroke="#667AFB" stroke-width="3.06909" stroke-linecap="round"/>
<path d="M2.592 69.7998V42.9798H7.488V56.9478L6.156 56.4798L17.568 42.9798H23.724L13.032 55.6518L13.32 52.1958L24.048 69.7998H18.288L11.088 57.9918L7.488 62.2758V69.7998H2.592ZM35.2145 70.2318C33.1985 70.2318 31.4345 69.7758 29.9225 68.8638C28.4105 67.9518 27.2345 66.7158 26.3945 65.1558C25.5545 63.5958 25.1345 61.8678 25.1345 59.9718C25.1345 58.0038 25.5545 56.2638 26.3945 54.7518C27.2585 53.2158 28.4225 52.0038 29.8865 51.1158C31.3745 50.2278 33.0305 49.7838 34.8545 49.7838C36.3905 49.7838 37.7345 50.0358 38.8865 50.5398C40.0625 51.0438 41.0585 51.7398 41.8745 52.6278C42.6905 53.5158 43.3145 54.5358 43.7465 55.6878C44.1785 56.8158 44.3945 58.0398 44.3945 59.3598C44.3945 59.6958 44.3705 60.0438 44.3225 60.4038C44.2985 60.7638 44.2385 61.0758 44.1425 61.3398H29.0225V57.7398H41.4785L39.2465 59.4318C39.4625 58.3278 39.4025 57.3438 39.0665 56.4798C38.7545 55.6158 38.2265 54.9318 37.4825 54.4278C36.7625 53.9238 35.8865 53.6718 34.8545 53.6718C33.8705 53.6718 32.9945 53.9238 32.2265 54.4278C31.4585 54.9078 30.8705 55.6278 30.4625 56.5878C30.0785 57.5238 29.9345 58.6638 30.0305 60.0078C29.9345 61.2078 30.0905 62.2758 30.4985 63.2118C30.9305 64.1238 31.5545 64.8318 32.3705 65.3358C33.2105 65.8398 34.1705 66.0918 35.2505 66.0918C36.3305 66.0918 37.2425 65.8638 37.9865 65.4078C38.7545 64.9518 39.3545 64.3398 39.7865 63.5718L43.6025 65.4438C43.2185 66.3798 42.6185 67.2078 41.8025 67.9278C40.9865 68.6478 40.0145 69.2118 38.8865 69.6198C37.7825 70.0278 36.5585 70.2318 35.2145 70.2318ZM47.9694 69.7998V42.5478H52.6854V69.7998H47.9694ZM62.9798 70.2318C61.6118 70.2318 60.4238 70.0038 59.4158 69.5478C58.4078 69.0918 57.6278 68.4438 57.0758 67.6038C56.5238 66.7398 56.2478 65.7438 56.2478 64.6158C56.2478 63.5358 56.4878 62.5758 56.9678 61.7358C57.4478 60.8718 58.1918 60.1518 59.1998 59.5758C60.2078 58.9998 61.4798 58.5918 63.0158 58.3518L69.4238 57.3078V60.9078L63.9158 61.8438C62.9798 62.0118 62.2838 62.3118 61.8278 62.7438C61.3718 63.1758 61.1438 63.7398 61.1438 64.4358C61.1438 65.1078 61.3958 65.6478 61.8998 66.0558C62.4278 66.4398 63.0758 66.6318 63.8438 66.6318C64.8278 66.6318 65.6918 66.4278 66.4358 66.0198C67.2038 65.5878 67.7918 64.9998 68.1998 64.2558C68.6318 63.5118 68.8478 62.6958 68.8478 61.8078V56.7678C68.8478 55.9278 68.5118 55.2318 67.8398 54.6798C67.1918 54.1038 66.3278 53.8158 65.2478 53.8158C64.2398 53.8158 63.3398 54.0918 62.5478 54.6438C61.7798 55.1718 61.2158 55.8798 60.8558 56.7678L57.0038 54.8958C57.3878 53.8638 57.9878 52.9758 58.8038 52.2318C59.6438 51.4638 60.6278 50.8638 61.7558 50.4318C62.8838 49.9998 64.1078 49.7838 65.4277 49.7838C67.0358 49.7838 68.4518 50.0838 69.6758 50.6838C70.8998 51.2598 71.8478 52.0758 72.5198 53.1318C73.2158 54.1638 73.5638 55.3758 73.5638 56.7678V69.7998H69.0998V66.4518L70.1078 66.3798C69.6038 67.2198 69.0038 67.9278 68.3078 68.5038C67.6118 69.0558 66.8198 69.4878 65.9318 69.7998C65.0438 70.0878 64.0598 70.2318 62.9798 70.2318ZM85.3746 70.2318C83.2866 70.2318 81.4626 69.7398 79.9026 68.7558C78.3666 67.7478 77.3106 66.3918 76.7346 64.6878L80.2626 62.9958C80.7666 64.0998 81.4626 64.9638 82.3506 65.5878C83.2626 66.2118 84.2706 66.5238 85.3746 66.5238C86.2386 66.5238 86.9226 66.3318 87.4266 65.9478C87.9306 65.5638 88.1826 65.0598 88.1826 64.4358C88.1826 64.0518 88.0746 63.7398 87.8586 63.4998C87.6666 63.2358 87.3906 63.0198 87.0306 62.8518C86.6946 62.6598 86.3226 62.5038 85.9146 62.3838L82.7106 61.4838C81.0546 61.0038 79.7946 60.2718 78.9306 59.2878C78.0906 58.3038 77.6706 57.1398 77.6706 55.7958C77.6706 54.5958 77.9706 53.5518 78.5706 52.6638C79.1946 51.7518 80.0466 51.0438 81.1266 50.5398C82.2306 50.0358 83.4906 49.7838 84.9066 49.7838C86.7546 49.7838 88.3866 50.2278 89.8026 51.1158C91.2186 52.0038 92.2266 53.2518 92.8266 54.8598L89.2266 56.5518C88.8906 55.6638 88.3266 54.9558 87.5346 54.4278C86.7426 53.8998 85.8546 53.6358 84.8706 53.6358C84.0786 53.6358 83.4546 53.8158 82.9986 54.1758C82.5426 54.5358 82.3146 55.0038 82.3146 55.5798C82.3146 55.9398 82.4106 56.2518 82.6026 56.5158C82.7946 56.7798 83.0586 56.9958 83.3946 57.1638C83.7546 57.3318 84.1626 57.4878 84.6186 57.6318L87.7506 58.5678C89.3586 59.0478 90.5946 59.7678 91.4586 60.7278C92.3466 61.6878 92.7906 62.8638 92.7906 64.2558C92.7906 65.4318 92.4786 66.4758 91.8546 67.3878C91.2306 68.2758 90.3666 68.9718 89.2626 69.4758C88.1586 69.9798 86.8626 70.2318 85.3746 70.2318ZM103.209 69.7998V42.9798H113.217C115.041 42.9798 116.649 43.3158 118.041 43.9878C119.457 44.6358 120.561 45.5958 121.353 46.8678C122.145 48.1158 122.541 49.6398 122.541 51.4398C122.541 53.2158 122.133 54.7398 121.317 56.0118C120.525 57.2598 119.433 58.2198 118.041 58.8918C116.649 59.5638 115.041 59.8998 113.217 59.8998H108.105V69.7998H103.209ZM108.105 55.5798H113.289C114.177 55.5798 114.945 55.4118 115.593 55.0758C116.241 54.7158 116.745 54.2238 117.105 53.5998C117.465 52.9758 117.645 52.2558 117.645 51.4398C117.645 50.5998 117.465 49.8798 117.105 49.2798C116.745 48.6558 116.241 48.1758 115.593 47.8398C114.945 47.4798 114.177 47.2998 113.289 47.2998H108.105V55.5798ZM130.937 70.2318C129.569 70.2318 128.381 70.0038 127.373 69.5478C126.365 69.0918 125.585 68.4438 125.033 67.6038C124.481 66.7398 124.205 65.7438 124.205 64.6158C124.205 63.5358 124.445 62.5758 124.925 61.7358C125.405 60.8718 126.149 60.1518 127.157 59.5758C128.165 58.9998 129.437 58.5918 130.973 58.3518L137.381 57.3078V60.9078L131.873 61.8438C130.937 62.0118 130.241 62.3118 129.785 62.7438C129.329 63.1758 129.101 63.7398 129.101 64.4358C129.101 65.1078 129.353 65.6478 129.857 66.0558C130.385 66.4398 131.033 66.6318 131.801 66.6318C132.785 66.6318 133.649 66.4278 134.393 66.0198C135.161 65.5878 135.749 64.9998 136.157 64.2558C136.589 63.5118 136.805 62.6958 136.805 61.8078V56.7678C136.805 55.9278 136.469 55.2318 135.797 54.6798C135.149 54.1038 134.285 53.8158 133.205 53.8158C132.197 53.8158 131.297 54.0918 130.505 54.6438C129.737 55.1718 129.173 55.8798 128.813 56.7678L124.961 54.8958C125.345 53.8638 125.945 52.9758 126.761 52.2318C127.601 51.4638 128.585 50.8638 129.713 50.4318C130.841 49.9998 132.065 49.7838 133.385 49.7838C134.993 49.7838 136.409 50.0838 137.633 50.6838C138.857 51.2598 139.805 52.0758 140.477 53.1318C141.173 54.1638 141.521 55.3758 141.521 56.7678V69.7998H137.057V66.4518L138.065 66.3798C137.561 67.2198 136.961 67.9278 136.265 68.5038C135.569 69.0558 134.777 69.4878 133.889 69.7998C133.001 70.0878 132.017 70.2318 130.937 70.2318ZM145.88 69.7998V42.5478H150.596V69.7998H145.88ZM154.95 69.7998V50.2158H159.666V69.7998H154.95ZM154.95 48.0198V42.9798H159.666V48.0198H154.95ZM164.02 69.7998V50.2158H168.448V54.0678L168.088 53.3838C168.544 52.2078 169.288 51.3198 170.32 50.7198C171.376 50.0958 172.6 49.7838 173.992 49.7838C175.432 49.7838 176.704 50.0958 177.808 50.7198C178.936 51.3438 179.812 52.2198 180.436 53.3478C181.06 54.4518 181.372 55.7358 181.372 57.1998V69.7998H176.656V58.3158C176.656 57.4518 176.488 56.7078 176.152 56.0838C175.816 55.4598 175.348 54.9798 174.748 54.6438C174.172 54.2838 173.488 54.1038 172.696 54.1038C171.928 54.1038 171.244 54.2838 170.644 54.6438C170.044 54.9798 169.576 55.4598 169.24 56.0838C168.904 56.7078 168.736 57.4518 168.736 58.3158V69.7998H164.02ZM194.864 77.7198C193.4 77.7198 192.044 77.4798 190.796 76.9998C189.548 76.5198 188.468 75.8478 187.556 74.9838C186.668 74.1438 186.02 73.1478 185.612 71.9958L190.004 70.3398C190.292 71.2518 190.856 71.9838 191.696 72.5358C192.56 73.1118 193.616 73.3998 194.864 73.3998C195.824 73.3998 196.664 73.2198 197.384 72.8598C198.128 72.4998 198.704 71.9718 199.112 71.2758C199.52 70.6038 199.724 69.7878 199.724 68.8278V64.3638L200.624 65.4438C199.952 66.6198 199.052 67.5078 197.924 68.1078C196.796 68.7078 195.512 69.0078 194.072 69.0078C192.248 69.0078 190.616 68.5878 189.176 67.7478C187.736 66.9078 186.608 65.7558 185.792 64.2918C184.976 62.8278 184.568 61.1838 184.568 59.3598C184.568 57.5118 184.976 55.8678 185.792 54.4278C186.608 52.9878 187.724 51.8598 189.14 51.0438C190.556 50.2038 192.164 49.7838 193.964 49.7838C195.428 49.7838 196.712 50.0958 197.816 50.7198C198.944 51.3198 199.88 52.1958 200.624 53.3478L199.976 54.5358V50.2158H204.44V68.8278C204.44 70.5318 204.02 72.0558 203.18 73.3998C202.364 74.7438 201.236 75.7998 199.796 76.5678C198.38 77.3358 196.736 77.7198 194.864 77.7198ZM194.648 64.6518C195.656 64.6518 196.532 64.4358 197.276 64.0038C198.044 63.5478 198.644 62.9238 199.076 62.1318C199.508 61.3398 199.724 60.4278 199.724 59.3958C199.724 58.3878 199.496 57.4878 199.04 56.6958C198.608 55.8798 198.008 55.2438 197.24 54.7878C196.496 54.3318 195.632 54.1038 194.648 54.1038C193.664 54.1038 192.776 54.3318 191.984 54.7878C191.192 55.2438 190.568 55.8798 190.112 56.6958C189.68 57.4878 189.464 58.3878 189.464 59.3958C189.464 60.4038 189.68 61.3038 190.112 62.0958C190.568 62.8878 191.18 63.5118 191.948 63.9678C192.74 64.4238 193.64 64.6518 194.648 64.6518ZM215.639 69.7998V42.9798H220.535V54.6798H231.947V42.9798H236.879V69.7998H231.947V58.9998H220.535V69.7998H215.639ZM241.645 69.7998V50.2158H246.361V69.7998H241.645ZM241.645 48.0198V42.9798H246.361V48.0198H241.645ZM259.644 70.0158C257.436 70.0158 255.72 69.4158 254.496 68.2158C253.296 66.9918 252.696 65.2758 252.696 63.0678V54.4278H249.312V50.2158H249.672C250.632 50.2158 251.376 49.9638 251.904 49.4598C252.432 48.9558 252.696 48.2238 252.696 47.2638V45.7518H257.412V50.2158H261.912V54.4278H257.412V62.8158C257.412 63.4638 257.52 64.0158 257.736 64.4718C257.976 64.9278 258.336 65.2758 258.816 65.5158C259.32 65.7558 259.956 65.8758 260.724 65.8758C260.892 65.8758 261.084 65.8638 261.3 65.8398C261.54 65.8158 261.768 65.7918 261.984 65.7678V69.7998C261.648 69.8478 261.264 69.8958 260.832 69.9438C260.4 69.9918 260.004 70.0158 259.644 70.0158ZM273.039 70.2318C270.951 70.2318 269.127 69.7398 267.567 68.7558C266.031 67.7478 264.975 66.3918 264.399 64.6878L267.927 62.9958C268.431 64.0998 269.127 64.9638 270.015 65.5878C270.927 66.2118 271.935 66.5238 273.039 66.5238C273.903 66.5238 274.587 66.3318 275.091 65.9478C275.595 65.5638 275.847 65.0598 275.847 64.4358C275.847 64.0518 275.739 63.7398 275.523 63.4998C275.331 63.2358 275.055 63.0198 274.695 62.8518C274.359 62.6598 273.987 62.5038 273.579 62.3838L270.375 61.4838C268.719 61.0038 267.459 60.2718 266.595 59.2878C265.755 58.3038 265.335 57.1398 265.335 55.7958C265.335 54.5958 265.635 53.5518 266.235 52.6638C266.859 51.7518 267.711 51.0438 268.791 50.5398C269.895 50.0358 271.155 49.7838 272.571 49.7838C274.419 49.7838 276.051 50.2278 277.467 51.1158C278.883 52.0038 279.891 53.2518 280.491 54.8598L276.891 56.5518C276.555 55.6638 275.991 54.9558 275.199 54.4278C274.407 53.8998 273.519 53.6358 272.535 53.6358C271.743 53.6358 271.119 53.8158 270.663 54.1758C270.207 54.5358 269.979 55.0038 269.979 55.5798C269.979 55.9398 270.075 56.2518 270.267 56.5158C270.459 56.7798 270.723 56.9958 271.059 57.1638C271.419 57.3318 271.827 57.4878 272.283 57.6318L275.415 58.5678C277.023 59.0478 278.259 59.7678 279.123 60.7278C280.011 61.6878 280.455 62.8638 280.455 64.2558C280.455 65.4318 280.143 66.4758 279.519 67.3878C278.895 68.2758 278.031 68.9718 276.927 69.4758C275.823 69.9798 274.527 70.2318 273.039 70.2318ZM297.461 70.2318C295.949 70.2318 294.629 69.8958 293.501 69.2238C292.397 68.5518 291.545 67.6158 290.945 66.4158C290.369 65.2158 290.081 63.8118 290.081 62.2038V50.2158H294.797V61.8078C294.797 62.6238 294.953 63.3438 295.265 63.9678C295.601 64.5678 296.069 65.0478 296.669 65.4078C297.293 65.7438 297.989 65.9118 298.757 65.9118C299.525 65.9118 300.209 65.7438 300.809 65.4078C301.409 65.0478 301.877 64.5558 302.213 63.9318C302.549 63.3078 302.717 62.5638 302.717 61.6998V50.2158H307.433V69.7998H302.969V65.9478L303.365 66.6318C302.909 67.8318 302.153 68.7318 301.097 69.3318C300.065 69.9318 298.853 70.2318 297.461 70.2318ZM311.817 69.7998V50.2158H316.245V54.0678L315.885 53.3838C316.341 52.2078 317.085 51.3198 318.117 50.7198C319.173 50.0958 320.397 49.7838 321.789 49.7838C323.229 49.7838 324.501 50.0958 325.605 50.7198C326.733 51.3438 327.609 52.2198 328.233 53.3478C328.857 54.4518 329.169 55.7358 329.169 57.1998V69.7998H324.453V58.3158C324.453 57.4518 324.285 56.7078 323.949 56.0838C323.613 55.4598 323.145 54.9798 322.545 54.6438C321.969 54.2838 321.285 54.1038 320.493 54.1038C319.725 54.1038 319.041 54.2838 318.441 54.6438C317.841 54.9798 317.373 55.4598 317.037 56.0838C316.701 56.7078 316.533 57.4518 316.533 58.3158V69.7998H311.817ZM342.085 70.0158C339.877 70.0158 338.161 69.4158 336.937 68.2158C335.737 66.9918 335.137 65.2758 335.137 63.0678V54.4278H331.753V50.2158H332.113C333.073 50.2158 333.817 49.9638 334.345 49.4598C334.873 48.9558 335.137 48.2238 335.137 47.2638V45.7518H339.853V50.2158H344.353V54.4278H339.853V62.8158C339.853 63.4638 339.961 64.0158 340.177 64.4718C340.417 64.9278 340.777 65.2758 341.257 65.5158C341.761 65.7558 342.397 65.8758 343.165 65.8758C343.333 65.8758 343.525 65.8638 343.741 65.8398C343.981 65.8158 344.209 65.7918 344.425 65.7678V69.7998C344.089 69.8478 343.705 69.8958 343.273 69.9438C342.841 69.9918 342.445 70.0158 342.085 70.0158ZM355.012 70.2318C353.5 70.2318 352.18 69.8958 351.052 69.2238C349.948 68.5518 349.096 67.6158 348.496 66.4158C347.92 65.2158 347.632 63.8118 347.632 62.2038V50.2158H352.348V61.8078C352.348 62.6238 352.504 63.3438 352.816 63.9678C353.152 64.5678 353.62 65.0478 354.22 65.4078C354.844 65.7438 355.54 65.9118 356.308 65.9118C357.076 65.9118 357.76 65.7438 358.36 65.4078C358.96 65.0478 359.428 64.5558 359.764 63.9318C360.1 63.3078 360.268 62.5638 360.268 61.6998V50.2158H364.984V69.7998H360.52V65.9478L360.916 66.6318C360.46 67.8318 359.704 68.7318 358.648 69.3318C357.616 69.9318 356.404 70.2318 355.012 70.2318ZM369.368 69.7998V42.5478H374.084V60.4038L372.284 59.8638L381.5 50.2158H387.368L380.132 58.0998L387.512 69.7998H382.112L375.704 59.6478L378.512 59.0718L372.608 65.4078L374.084 62.5278V69.7998H369.368ZM396.94 69.7998V42.9798H401.836V56.9478L400.504 56.4798L411.916 42.9798H418.072L407.38 55.6518L407.668 52.1958L418.396 69.7998H412.636L405.436 57.9918L401.836 62.2758V69.7998H396.94ZM426.566 70.2318C425.198 70.2318 424.01 70.0038 423.002 69.5478C421.994 69.0918 421.214 68.4438 420.662 67.6038C420.11 66.7398 419.834 65.7438 419.834 64.6158C419.834 63.5358 420.074 62.5758 420.554 61.7358C421.034 60.8718 421.778 60.1518 422.786 59.5758C423.794 58.9998 425.066 58.5918 426.602 58.3518L433.01 57.3078V60.9078L427.502 61.8438C426.566 62.0118 425.87 62.3118 425.414 62.7438C424.958 63.1758 424.73 63.7398 424.73 64.4358C424.73 65.1078 424.982 65.6478 425.486 66.0558C426.014 66.4398 426.662 66.6318 427.43 66.6318C428.414 66.6318 429.278 66.4278 430.022 66.0198C430.79 65.5878 431.378 64.9998 431.786 64.2558C432.218 63.5118 432.434 62.6958 432.434 61.8078V56.7678C432.434 55.9278 432.098 55.2318 431.426 54.6798C430.778 54.1038 429.914 53.8158 428.834 53.8158C427.826 53.8158 426.926 54.0918 426.134 54.6438C425.366 55.1718 424.802 55.8798 424.442 56.7678L420.59 54.8958C420.974 53.8638 421.574 52.9758 422.39 52.2318C423.23 51.4638 424.214 50.8638 425.342 50.4318C426.47 49.9998 427.694 49.7838 429.014 49.7838C430.622 49.7838 432.038 50.0838 433.262 50.6838C434.486 51.2598 435.434 52.0758 436.106 53.1318C436.802 54.1638 437.15 55.3758 437.15 56.7678V69.7998H432.686V66.4518L433.694 66.3798C433.19 67.2198 432.59 67.9278 431.894 68.5038C431.198 69.0558 430.406 69.4878 429.518 69.7998C428.63 70.0878 427.646 70.2318 426.566 70.2318ZM441.509 69.7998V50.2158H445.937V54.7518L445.433 53.9958C445.793 52.5798 446.513 51.5238 447.593 50.8278C448.673 50.1318 449.945 49.7838 451.409 49.7838C453.017 49.7838 454.433 50.2038 455.657 51.0438C456.881 51.8838 457.673 52.9878 458.033 54.3558L456.701 54.4638C457.301 52.9038 458.201 51.7398 459.401 50.9718C460.601 50.1798 461.981 49.7838 463.541 49.7838C464.933 49.7838 466.169 50.0958 467.249 50.7198C468.353 51.3438 469.217 52.2198 469.841 53.3478C470.465 54.4518 470.777 55.7358 470.777 57.1998V69.7998H466.061V58.3158C466.061 57.4518 465.905 56.7078 465.593 56.0838C465.281 55.4598 464.849 54.9798 464.297 54.6438C463.745 54.2838 463.073 54.1038 462.281 54.1038C461.537 54.1038 460.877 54.2838 460.301 54.6438C459.725 54.9798 459.281 55.4598 458.969 56.0838C458.657 56.7078 458.501 57.4518 458.501 58.3158V69.7998H453.785V58.3158C453.785 57.4518 453.629 56.7078 453.317 56.0838C453.005 55.4598 452.561 54.9798 451.985 54.6438C451.433 54.2838 450.773 54.1038 450.005 54.1038C449.261 54.1038 448.601 54.2838 448.025 54.6438C447.449 54.9798 447.005 55.4598 446.693 56.0838C446.381 56.7078 446.225 57.4518 446.225 58.3158V69.7998H441.509ZM481.75 70.2318C480.238 70.2318 478.918 69.8958 477.79 69.2238C476.686 68.5518 475.834 67.6158 475.234 66.4158C474.658 65.2158 474.37 63.8118 474.37 62.2038V50.2158H479.086V61.8078C479.086 62.6238 479.242 63.3438 479.554 63.9678C479.89 64.5678 480.358 65.0478 480.958 65.4078C481.582 65.7438 482.278 65.9118 483.046 65.9118C483.814 65.9118 484.498 65.7438 485.098 65.4078C485.698 65.0478 486.166 64.5558 486.502 63.9318C486.838 63.3078 487.006 62.5638 487.006 61.6998V50.2158H491.722V69.7998H487.258V65.9478L487.654 66.6318C487.198 67.8318 486.442 68.7318 485.386 69.3318C484.354 69.9318 483.142 70.2318 481.75 70.2318ZM498.518 61.6638L498.194 42.9798H502.982L502.658 61.6638H498.518ZM498.194 69.7998V64.7598H502.982V69.7998H498.194Z" fill="#212447"/>
</svg>
