<svg width="88" height="88" viewBox="0 0 88 88" fill="none" xmlns="http://www.w3.org/2000/svg">
<rect x="0.5" y="0.471802" width="87" height="87" rx="43.5" fill="url(#paint0_linear_7_762)"/>
<path d="M70.3889 38.0443C67.9739 26.1018 56.5337 17.0968 43.7737 17.0968C29.0787 17.0968 17.1238 29.1543 17.1238 43.9718C17.1238 58.7893 29.1788 70.8468 43.9988 70.8468C46.9013 70.8468 48.9663 69.5768 49.5263 67.4468C50.1488 65.0793 48.6538 62.5468 45.6238 60.8368C44.8388 60.3943 44.4188 59.5968 44.6014 58.8993C44.8363 58.0043 46.2838 56.9593 49.5838 56.9593H55.1462C57.1237 56.9593 63.8863 56.5768 67.9388 51.6418C70.6888 48.2918 71.5139 43.7193 70.3889 38.0443ZM65.0413 49.2593C62.0313 52.9243 56.7087 53.2093 55.1462 53.2093H49.5838C42.7513 53.2093 41.2662 56.8368 40.9737 57.9468C40.3562 60.2918 41.5112 62.8218 43.7787 64.1018C45.5687 65.1118 45.9838 66.1668 45.8988 66.4943C45.8338 66.7443 45.1988 67.0968 43.9963 67.0968C31.2438 67.0968 20.8713 56.7243 20.8713 43.9718C20.8713 31.2193 31.1438 20.8468 43.7713 20.8468C54.7813 20.8468 64.6437 28.5593 66.7087 38.7818C67.6062 43.2943 67.0438 46.8193 65.0413 49.2593ZM59.6738 38.9718C59.6738 40.6968 58.2738 42.0968 56.5488 42.0968C54.8238 42.0968 53.4113 40.6968 53.4113 38.9718C53.4113 37.2468 54.7988 35.8468 56.5238 35.8468H56.5488C58.2738 35.8468 59.6738 37.2468 59.6738 38.9718ZM42.1738 31.4718C42.1738 33.1968 40.7738 34.5968 39.0488 34.5968C37.3238 34.5968 35.9113 33.1968 35.9113 31.4718C35.9113 29.7468 37.2988 28.3468 39.0238 28.3468H39.0488C40.7738 28.3468 42.1738 29.7468 42.1738 31.4718ZM52.1738 31.4718C52.1738 33.1968 50.7738 34.5968 49.0488 34.5968C47.3238 34.5968 45.9113 33.1968 45.9113 31.4718C45.9113 29.7468 47.2988 28.3468 49.0238 28.3468H49.0488C50.7738 28.3468 52.1738 29.7468 52.1738 31.4718ZM34.6738 38.9718C34.6738 40.6968 33.2738 42.0968 31.5488 42.0968C29.8238 42.0968 28.4113 40.6968 28.4113 38.9718C28.4113 37.2468 29.7988 35.8468 31.5238 35.8468H31.5488C33.2738 35.8468 34.6738 37.2468 34.6738 38.9718ZM34.6738 48.9718C34.6738 50.6968 33.2738 52.0968 31.5488 52.0968C29.8238 52.0968 28.4113 50.6968 28.4113 48.9718C28.4113 47.2468 29.7988 45.8468 31.5238 45.8468H31.5488C33.2738 45.8468 34.6738 47.2468 34.6738 48.9718Z" fill="white"/>
<defs>
<linearGradient id="paint0_linear_7_762" x1="44" y1="0.471802" x2="44" y2="112.781" gradientUnits="userSpaceOnUse">
<stop stop-color="#667AFB"/>
<stop offset="1" stop-color="#BDC6FF"/>
</linearGradient>
</defs>
</svg>
