<svg width="88" height="88" viewBox="0 0 88 88" fill="none" xmlns="http://www.w3.org/2000/svg">
<rect x="0.5" y="0.471802" width="87" height="87" rx="43.5" fill="url(#paint0_linear_7_746)"/>
<path d="M58.0625 68.3468H29.9375C23.2875 68.3468 19.625 64.6843 19.625 58.0343V29.9093C19.625 23.2593 23.2875 19.5968 29.9375 19.5968H58.0625C64.7125 19.5968 68.375 23.2593 68.375 29.9093V58.0343C68.375 64.6843 64.7125 68.3468 58.0625 68.3468ZM29.9375 23.3468C25.3375 23.3468 23.375 25.3093 23.375 29.9093V58.0343C23.375 62.6343 25.3375 64.5968 29.9375 64.5968H58.0625C62.6625 64.5968 64.625 62.6343 64.625 58.0343V29.9093C64.625 25.3093 62.6625 23.3468 58.0625 23.3468H29.9375ZM39.7074 55.8517C38.8324 55.8517 37.9575 55.6267 37.15 55.1742C35.4825 54.2392 34.4874 52.542 34.4874 50.632V37.3116C34.4874 35.4016 35.4825 33.7044 37.15 32.7694C38.8275 31.8319 40.7976 31.8694 42.4326 32.8719L53.6301 39.7219C55.1226 40.6369 56.0151 42.2242 56.0151 43.9742C56.0151 45.7242 55.1226 47.3116 53.6301 48.2266L42.4326 55.0765C41.5851 55.5915 40.6474 55.8517 39.7074 55.8517ZM39.7126 35.8468C39.3826 35.8468 39.1176 35.964 38.9826 36.0415C38.7576 36.1665 38.2349 36.5441 38.2349 37.3116V50.632C38.2349 51.402 38.7576 51.7771 38.9826 51.9021C39.2101 52.0296 39.8074 52.284 40.4749 51.874L51.6724 45.024C52.2074 44.6965 52.2651 44.1793 52.2651 43.9718C52.2651 43.7643 52.2074 43.247 51.6724 42.922L40.4749 36.072C40.2024 35.902 39.9426 35.8468 39.7126 35.8468Z" fill="white"/>
<defs>
<linearGradient id="paint0_linear_7_746" x1="44" y1="0.471802" x2="44" y2="112.781" gradientUnits="userSpaceOnUse">
<stop stop-color="#667AFB"/>
<stop offset="1" stop-color="#BDC6FF"/>
</linearGradient>
</defs>
</svg>
