<svg width="88" height="88" viewBox="0 0 88 88" fill="none" xmlns="http://www.w3.org/2000/svg">
<rect x="0.5" y="0.471802" width="87" height="87" rx="43.5" fill="url(#paint0_linear_7_738)"/>
<path d="M28.5987 53.2886C26.9737 53.2886 25.3737 53.9136 24.1487 55.1386C22.1237 57.1636 20.1987 63.9636 19.6737 65.9886C19.4987 66.6386 19.6737 67.3136 20.1487 67.7886C20.4987 68.1636 20.9988 68.3636 21.4988 68.3636C21.6488 68.3636 21.7987 68.3636 21.9487 68.3136C23.8987 67.8386 30.4237 66.1136 32.4737 64.0886C35.0237 61.5386 35.1987 57.5386 32.8487 55.1636C31.6987 54.0136 30.1987 53.3636 28.6487 53.3136L28.5987 53.2886ZM29.7987 61.3886C29.1737 62.0136 26.7987 62.9386 24.2487 63.7386C25.1487 60.9886 26.1738 58.4386 26.8238 57.7636C27.3238 57.2636 27.8987 56.9886 28.5237 57.0136C29.1237 57.0136 29.6988 57.2886 30.1738 57.7636C31.0738 58.6636 30.8987 60.2886 29.7987 61.3636V61.3886ZM52.1238 28.4136C47.9988 28.4136 44.6238 31.7636 44.6238 35.8886C44.6238 40.0136 47.9988 43.3636 52.1238 43.3636C56.2488 43.3636 59.6238 40.0136 59.6238 35.8886C59.6238 31.7636 56.2488 28.4136 52.1238 28.4136ZM52.1238 39.6386C50.0488 39.6386 48.3738 37.9636 48.3738 35.9136C48.3738 33.8636 50.0488 32.1886 52.1238 32.1886C54.1988 32.1886 55.8738 33.8636 55.8738 35.9136C55.8738 37.9636 54.1988 39.6386 52.1238 39.6386ZM67.5737 21.6386C67.3987 20.9636 66.8738 20.4386 66.1988 20.2886C65.5988 20.1386 51.1487 16.7636 41.7237 26.1886C40.4487 27.4636 39.3738 28.7136 38.3738 29.9136L33.1488 31.0386C28.1988 31.8386 23.9987 35.2136 22.1487 39.8386L19.7487 45.8136C19.4987 46.4636 19.5987 47.1886 20.0487 47.7136C20.3987 48.1386 20.9237 48.3636 21.4737 48.3636C21.5987 48.3636 21.7487 48.3636 21.8737 48.3136L30.2987 46.4386C30.1737 46.8636 30.0487 47.2886 29.8987 47.7386C29.5737 48.8636 29.8487 50.0636 30.6737 50.8636L36.9738 57.1636C37.5738 57.7636 38.3737 58.0886 39.1987 58.0886C39.4737 58.0886 39.7487 58.0636 39.9987 57.9886C40.5237 57.8386 41.0237 57.7136 41.5237 57.5636L39.6238 66.0386C39.4738 66.7136 39.6988 67.4136 40.2488 67.8636C40.5988 68.1636 41.0237 68.3136 41.4737 68.3136C41.6987 68.3136 41.9487 68.2636 42.1737 68.1886L48.1488 65.7886C52.7988 63.9386 56.1988 59.7386 56.9738 54.9136L58.0738 49.8636C59.3238 48.8386 60.5987 47.7386 61.9487 46.3886C71.3737 36.9386 67.7237 22.2386 67.5737 21.6136V21.6386ZM24.5737 43.9136L25.6488 41.2386C26.9988 37.8136 30.1238 35.3386 33.8488 34.7386L35.2237 34.4386C34.5987 35.4886 34.0737 36.5386 33.5737 37.6386C33.5487 37.6886 33.5237 37.7386 33.4987 37.7886C32.8237 39.2386 32.2237 40.7636 31.6737 42.3386L24.5737 43.9136ZM39.3988 54.2886L33.6237 48.5136C34.3737 45.9886 35.0987 43.7886 35.8987 41.7386L46.3737 52.1886C44.3237 52.9386 42.0737 53.5886 39.4237 54.3136L39.3988 54.2886ZM53.2988 54.2386C52.7238 57.8636 50.2237 60.9636 46.7737 62.3136L44.0987 63.3886L45.6737 56.3636C47.3487 55.8386 48.8987 55.2386 50.3737 54.6136C50.3987 54.6136 50.4487 54.5886 50.4737 54.5636C51.5487 54.0886 52.5737 53.5636 53.5737 52.9886L53.2988 54.2386ZM50.0988 50.6136L37.4987 38.0386C39.0737 34.9636 41.1237 32.0886 44.3737 28.8386C50.8987 22.3136 60.8237 23.1886 64.1737 23.7136C64.7737 27.0886 65.8487 37.2136 59.2987 43.7636C56.0487 47.0136 53.2488 49.0636 50.0988 50.6136Z" fill="white"/>
<defs>
<linearGradient id="paint0_linear_7_738" x1="44" y1="0.471802" x2="44" y2="112.781" gradientUnits="userSpaceOnUse">
<stop stop-color="#667AFB"/>
<stop offset="1" stop-color="#BDC6FF"/>
</linearGradient>
</defs>
</svg>
