<svg width="853" height="42" viewBox="0 0 853 42" fill="none" xmlns="http://www.w3.org/2000/svg">
<path d="M151.566 15.5875C146.161 9.56493 127.5 15.2308 129.328 24.3898C130.568 30.5995 135.814 39.2146 142.3 34.1186C148.786 29.0225 145.08 14.105 117.283 10.0282C112.753 10.0282 105.483 11.7619 101.196 17.4406M101.196 17.4406C98.7614 20.6658 95.7321 26.1611 97.8254 31.3389C100.753 38.5806 108.759 46.3491 117.283 35.9717C119.221 31.8022 118.718 22.2587 101.196 17.4406ZM101.196 17.4406C93.1235 16.6685 75.4955 18.9231 69.5656 34.1186" stroke="#667AFB" stroke-width="1.85311"/>
<path d="M702.566 15.5875C707.97 9.56493 726.631 15.2308 724.803 24.3898C723.563 30.5995 718.317 39.2146 711.831 34.1186C705.345 29.0225 709.051 14.105 736.848 10.0282C741.379 10.0282 748.648 11.7619 752.935 17.4406M752.935 17.4406C755.37 20.6658 758.399 26.1611 756.306 31.3389C753.378 38.5806 745.372 46.3491 736.848 35.9717C734.91 31.8022 735.413 22.2587 752.935 17.4406ZM752.935 17.4406C761.008 16.6685 778.636 18.9231 784.566 34.1186" stroke="#667AFB" stroke-width="1.85311"/>
<path d="M199.734 33.432C198.03 33.432 196.446 33.12 194.982 32.496C193.542 31.872 192.294 31.008 191.238 29.904C190.206 28.776 189.45 27.468 188.97 25.98L193.038 24.216C193.686 25.752 194.622 26.964 195.846 27.852C197.07 28.716 198.45 29.148 199.986 29.148C200.85 29.148 201.594 29.016 202.218 28.752C202.866 28.464 203.358 28.08 203.694 27.6C204.054 27.12 204.234 26.544 204.234 25.872C204.234 25.08 203.994 24.432 203.514 23.928C203.058 23.4 202.362 22.992 201.426 22.704L196.278 21.048C194.19 20.4 192.618 19.428 191.562 18.132C190.506 16.836 189.978 15.312 189.978 13.56C189.978 12.024 190.35 10.668 191.094 9.492C191.862 8.316 192.918 7.404 194.262 6.756C195.63 6.084 197.19 5.748 198.942 5.748C200.55 5.748 202.026 6.036 203.37 6.612C204.714 7.164 205.866 7.944 206.826 8.952C207.81 9.936 208.542 11.1 209.022 12.444L204.99 14.244C204.462 12.9 203.67 11.868 202.614 11.148C201.558 10.404 200.334 10.032 198.942 10.032C198.126 10.032 197.406 10.176 196.782 10.464C196.158 10.728 195.666 11.112 195.306 11.616C194.97 12.096 194.802 12.672 194.802 13.344C194.802 14.088 195.042 14.748 195.522 15.324C196.002 15.876 196.734 16.308 197.718 16.62L202.65 18.168C204.786 18.864 206.382 19.824 207.438 21.048C208.518 22.272 209.058 23.784 209.058 25.584C209.058 27.12 208.662 28.476 207.87 29.652C207.078 30.828 205.986 31.752 204.594 32.424C203.202 33.096 201.582 33.432 199.734 33.432ZM222.646 33.432C220.726 33.432 218.974 32.988 217.39 32.1C215.83 31.212 214.582 30 213.646 28.464C212.734 26.928 212.278 25.176 212.278 23.208C212.278 21.24 212.734 19.488 213.646 17.952C214.582 16.416 215.83 15.204 217.39 14.316C218.95 13.428 220.702 12.984 222.646 12.984C224.566 12.984 226.306 13.428 227.866 14.316C229.426 15.204 230.662 16.416 231.574 17.952C232.51 19.464 232.978 21.216 232.978 23.208C232.978 25.176 232.51 26.928 231.574 28.464C230.638 30 229.39 31.212 227.83 32.1C226.27 32.988 224.542 33.432 222.646 33.432ZM222.646 29.112C223.702 29.112 224.626 28.86 225.418 28.356C226.234 27.852 226.87 27.156 227.326 26.268C227.806 25.356 228.046 24.336 228.046 23.208C228.046 22.056 227.806 21.048 227.326 20.184C226.87 19.296 226.234 18.6 225.418 18.096C224.626 17.568 223.702 17.304 222.646 17.304C221.566 17.304 220.618 17.568 219.802 18.096C218.986 18.6 218.338 19.296 217.858 20.184C217.402 21.048 217.174 22.056 217.174 23.208C217.174 24.336 217.402 25.356 217.858 26.268C218.338 27.156 218.986 27.852 219.802 28.356C220.618 28.86 221.566 29.112 222.646 29.112ZM236.555 33V13.416H240.983V17.772L240.623 17.124C241.079 15.66 241.787 14.64 242.747 14.064C243.731 13.488 244.907 13.2 246.275 13.2H247.427V17.376H245.735C244.391 17.376 243.311 17.796 242.495 18.636C241.679 19.452 241.271 20.604 241.271 22.092V33H236.555ZM259.595 33.432C257.675 33.432 255.923 32.988 254.339 32.1C252.779 31.212 251.531 30 250.595 28.464C249.683 26.928 249.227 25.176 249.227 23.208C249.227 21.24 249.683 19.488 250.595 17.952C251.531 16.416 252.779 15.204 254.339 14.316C255.899 13.428 257.651 12.984 259.595 12.984C261.515 12.984 263.255 13.428 264.815 14.316C266.375 15.204 267.611 16.416 268.523 17.952C269.459 19.464 269.927 21.216 269.927 23.208C269.927 25.176 269.459 26.928 268.523 28.464C267.587 30 266.339 31.212 264.779 32.1C263.219 32.988 261.491 33.432 259.595 33.432ZM259.595 29.112C260.651 29.112 261.575 28.86 262.367 28.356C263.183 27.852 263.819 27.156 264.275 26.268C264.755 25.356 264.995 24.336 264.995 23.208C264.995 22.056 264.755 21.048 264.275 20.184C263.819 19.296 263.183 18.6 262.367 18.096C261.575 17.568 260.651 17.304 259.595 17.304C258.515 17.304 257.567 17.568 256.751 18.096C255.935 18.6 255.287 19.296 254.807 20.184C254.351 21.048 254.123 22.056 254.123 23.208C254.123 24.336 254.351 25.356 254.807 26.268C255.287 27.156 255.935 27.852 256.751 28.356C257.567 28.86 258.515 29.112 259.595 29.112ZM282.08 33.216C279.872 33.216 278.156 32.616 276.932 31.416C275.732 30.192 275.132 28.476 275.132 26.268V17.628H271.748V13.416H272.108C273.068 13.416 273.812 13.164 274.34 12.66C274.868 12.156 275.132 11.424 275.132 10.464V8.952H279.848V13.416H284.348V17.628H279.848V26.016C279.848 26.664 279.956 27.216 280.172 27.672C280.412 28.128 280.772 28.476 281.252 28.716C281.756 28.956 282.392 29.076 283.16 29.076C283.328 29.076 283.52 29.064 283.736 29.04C283.976 29.016 284.204 28.992 284.42 28.968V33C284.084 33.048 283.7 33.096 283.268 33.144C282.836 33.192 282.44 33.216 282.08 33.216ZM293.893 33.432C292.525 33.432 291.337 33.204 290.329 32.748C289.321 32.292 288.541 31.644 287.989 30.804C287.437 29.94 287.161 28.944 287.161 27.816C287.161 26.736 287.401 25.776 287.881 24.936C288.361 24.072 289.105 23.352 290.113 22.776C291.121 22.2 292.393 21.792 293.929 21.552L300.337 20.508V24.108L294.829 25.044C293.893 25.212 293.197 25.512 292.741 25.944C292.285 26.376 292.057 26.94 292.057 27.636C292.057 28.308 292.309 28.848 292.813 29.256C293.341 29.64 293.989 29.832 294.757 29.832C295.741 29.832 296.605 29.628 297.349 29.22C298.117 28.788 298.705 28.2 299.113 27.456C299.545 26.712 299.761 25.896 299.761 25.008V19.968C299.761 19.128 299.425 18.432 298.753 17.88C298.105 17.304 297.241 17.016 296.161 17.016C295.153 17.016 294.253 17.292 293.461 17.844C292.693 18.372 292.129 19.08 291.769 19.968L287.917 18.096C288.301 17.064 288.901 16.176 289.717 15.432C290.557 14.664 291.541 14.064 292.669 13.632C293.797 13.2 295.021 12.984 296.341 12.984C297.949 12.984 299.365 13.284 300.589 13.884C301.813 14.46 302.761 15.276 303.433 16.332C304.129 17.364 304.477 18.576 304.477 19.968V33H300.013V29.652L301.021 29.58C300.517 30.42 299.917 31.128 299.221 31.704C298.525 32.256 297.733 32.688 296.845 33C295.957 33.288 294.973 33.432 293.893 33.432ZM308.836 33V13.416H313.264V17.268L312.904 16.584C313.36 15.408 314.104 14.52 315.136 13.92C316.192 13.296 317.416 12.984 318.808 12.984C320.248 12.984 321.52 13.296 322.624 13.92C323.752 14.544 324.628 15.42 325.252 16.548C325.876 17.652 326.188 18.936 326.188 20.4V33H321.472V21.516C321.472 20.652 321.304 19.908 320.968 19.284C320.632 18.66 320.164 18.18 319.564 17.844C318.988 17.484 318.304 17.304 317.512 17.304C316.744 17.304 316.06 17.484 315.46 17.844C314.86 18.18 314.392 18.66 314.056 19.284C313.72 19.908 313.552 20.652 313.552 21.516V33H308.836ZM336.97 33V6.18H341.866V20.148L340.534 19.68L351.946 6.18H358.102L347.41 18.852L347.698 15.396L358.426 33H352.666L345.466 21.192L341.866 25.476V33H336.97ZM367.992 33.432C366.48 33.432 365.16 33.096 364.032 32.424C362.928 31.752 362.076 30.816 361.476 29.616C360.9 28.416 360.612 27.012 360.612 25.404V13.416H365.328V25.008C365.328 25.824 365.484 26.544 365.796 27.168C366.132 27.768 366.6 28.248 367.2 28.608C367.824 28.944 368.52 29.112 369.288 29.112C370.056 29.112 370.74 28.944 371.34 28.608C371.94 28.248 372.408 27.756 372.744 27.132C373.08 26.508 373.248 25.764 373.248 24.9V13.416H377.964V33H373.5V29.148L373.896 29.832C373.44 31.032 372.684 31.932 371.628 32.532C370.596 33.132 369.384 33.432 367.992 33.432ZM382.347 33V13.416H386.775V17.772L386.415 17.124C386.871 15.66 387.579 14.64 388.539 14.064C389.523 13.488 390.699 13.2 392.067 13.2H393.219V17.376H391.527C390.183 17.376 389.103 17.796 388.287 18.636C387.471 19.452 387.063 20.604 387.063 22.092V33H382.347ZM403.264 33.432C401.176 33.432 399.352 32.94 397.792 31.956C396.256 30.948 395.2 29.592 394.624 27.888L398.152 26.196C398.656 27.3 399.352 28.164 400.24 28.788C401.152 29.412 402.16 29.724 403.264 29.724C404.128 29.724 404.812 29.532 405.316 29.148C405.82 28.764 406.072 28.26 406.072 27.636C406.072 27.252 405.964 26.94 405.748 26.7C405.556 26.436 405.28 26.22 404.92 26.052C404.584 25.86 404.212 25.704 403.804 25.584L400.6 24.684C398.944 24.204 397.684 23.472 396.82 22.488C395.98 21.504 395.56 20.34 395.56 18.996C395.56 17.796 395.86 16.752 396.46 15.864C397.084 14.952 397.936 14.244 399.016 13.74C400.12 13.236 401.38 12.984 402.796 12.984C404.644 12.984 406.276 13.428 407.692 14.316C409.108 15.204 410.116 16.452 410.716 18.06L407.116 19.752C406.78 18.864 406.216 18.156 405.424 17.628C404.632 17.1 403.744 16.836 402.76 16.836C401.968 16.836 401.344 17.016 400.888 17.376C400.432 17.736 400.204 18.204 400.204 18.78C400.204 19.14 400.3 19.452 400.492 19.716C400.684 19.98 400.948 20.196 401.284 20.364C401.644 20.532 402.052 20.688 402.508 20.832L405.64 21.768C407.248 22.248 408.484 22.968 409.348 23.928C410.236 24.888 410.68 26.064 410.68 27.456C410.68 28.632 410.368 29.676 409.744 30.588C409.12 31.476 408.256 32.172 407.152 32.676C406.048 33.18 404.752 33.432 403.264 33.432ZM421.289 33.432C419.777 33.432 418.457 33.096 417.329 32.424C416.225 31.752 415.373 30.816 414.773 29.616C414.197 28.416 413.909 27.012 413.909 25.404V13.416H418.625V25.008C418.625 25.824 418.781 26.544 419.093 27.168C419.429 27.768 419.897 28.248 420.497 28.608C421.121 28.944 421.817 29.112 422.585 29.112C423.353 29.112 424.037 28.944 424.637 28.608C425.237 28.248 425.705 27.756 426.041 27.132C426.377 26.508 426.545 25.764 426.545 24.9V13.416H431.261V33H426.797V29.148L427.193 29.832C426.737 31.032 425.981 31.932 424.925 32.532C423.893 33.132 422.681 33.432 421.289 33.432ZM443.096 33.432C441.008 33.432 439.184 32.94 437.624 31.956C436.088 30.948 435.032 29.592 434.456 27.888L437.984 26.196C438.488 27.3 439.184 28.164 440.072 28.788C440.984 29.412 441.992 29.724 443.096 29.724C443.96 29.724 444.644 29.532 445.148 29.148C445.652 28.764 445.904 28.26 445.904 27.636C445.904 27.252 445.796 26.94 445.58 26.7C445.388 26.436 445.112 26.22 444.752 26.052C444.416 25.86 444.044 25.704 443.636 25.584L440.432 24.684C438.776 24.204 437.516 23.472 436.652 22.488C435.812 21.504 435.392 20.34 435.392 18.996C435.392 17.796 435.692 16.752 436.292 15.864C436.916 14.952 437.768 14.244 438.848 13.74C439.952 13.236 441.212 12.984 442.628 12.984C444.476 12.984 446.108 13.428 447.524 14.316C448.94 15.204 449.948 16.452 450.548 18.06L446.948 19.752C446.612 18.864 446.048 18.156 445.256 17.628C444.464 17.1 443.576 16.836 442.592 16.836C441.8 16.836 441.176 17.016 440.72 17.376C440.264 17.736 440.036 18.204 440.036 18.78C440.036 19.14 440.132 19.452 440.324 19.716C440.516 19.98 440.78 20.196 441.116 20.364C441.476 20.532 441.884 20.688 442.34 20.832L445.472 21.768C447.08 22.248 448.316 22.968 449.18 23.928C450.068 24.888 450.512 26.064 450.512 27.456C450.512 28.632 450.2 29.676 449.576 30.588C448.952 31.476 448.088 32.172 446.984 32.676C445.88 33.18 444.584 33.432 443.096 33.432ZM474.143 33.432C472.175 33.432 470.339 33.084 468.635 32.388C466.931 31.692 465.443 30.72 464.171 29.472C462.899 28.224 461.903 26.76 461.183 25.08C460.487 23.376 460.139 21.54 460.139 19.572C460.139 17.58 460.487 15.744 461.183 14.064C461.879 12.384 462.863 10.92 464.135 9.672C465.407 8.424 466.895 7.464 468.599 6.792C470.303 6.096 472.151 5.748 474.143 5.748C476.135 5.748 477.983 6.096 479.687 6.792C481.391 7.488 482.879 8.46 484.151 9.708C485.423 10.932 486.407 12.384 487.103 14.064C487.823 15.744 488.183 17.58 488.183 19.572C488.183 21.54 487.823 23.376 487.103 25.08C486.383 26.76 485.387 28.224 484.115 29.472C482.843 30.72 481.355 31.692 479.651 32.388C477.971 33.084 476.135 33.432 474.143 33.432ZM474.143 28.968C475.463 28.968 476.675 28.74 477.779 28.284C478.883 27.804 479.843 27.144 480.659 26.304C481.499 25.464 482.135 24.468 482.567 23.316C483.023 22.164 483.251 20.916 483.251 19.572C483.251 18.228 483.023 16.992 482.567 15.864C482.135 14.712 481.499 13.716 480.659 12.876C479.843 12.012 478.883 11.352 477.779 10.896C476.675 10.44 475.463 10.212 474.143 10.212C472.847 10.212 471.647 10.44 470.543 10.896C469.439 11.352 468.467 12.012 467.627 12.876C466.811 13.716 466.175 14.712 465.719 15.864C465.263 16.992 465.035 18.228 465.035 19.572C465.035 20.916 465.263 22.164 465.719 23.316C466.175 24.468 466.811 25.464 467.627 26.304C468.467 27.144 469.439 27.804 470.543 28.284C471.647 28.74 472.847 28.968 474.143 28.968ZM492.14 33V13.416H496.568V17.268L496.208 16.584C496.664 15.408 497.408 14.52 498.44 13.92C499.496 13.296 500.72 12.984 502.112 12.984C503.552 12.984 504.824 13.296 505.928 13.92C507.056 14.544 507.932 15.42 508.556 16.548C509.18 17.652 509.492 18.936 509.492 20.4V33H504.776V21.516C504.776 20.652 504.608 19.908 504.272 19.284C503.936 18.66 503.468 18.18 502.868 17.844C502.292 17.484 501.608 17.304 500.816 17.304C500.048 17.304 499.364 17.484 498.764 17.844C498.164 18.18 497.696 18.66 497.36 19.284C497.024 19.908 496.856 20.652 496.856 21.516V33H492.14ZM513.48 33V5.748H518.196V33H513.48ZM522.551 33V13.416H527.267V33H522.551ZM522.551 11.22V6.18H527.267V11.22H522.551ZM531.621 33V13.416H536.049V17.268L535.689 16.584C536.145 15.408 536.889 14.52 537.921 13.92C538.977 13.296 540.201 12.984 541.593 12.984C543.033 12.984 544.305 13.296 545.409 13.92C546.537 14.544 547.413 15.42 548.037 16.548C548.661 17.652 548.973 18.936 548.973 20.4V33H544.257V21.516C544.257 20.652 544.089 19.908 543.753 19.284C543.417 18.66 542.949 18.18 542.349 17.844C541.773 17.484 541.089 17.304 540.297 17.304C539.529 17.304 538.845 17.484 538.245 17.844C537.645 18.18 537.177 18.66 536.841 19.284C536.505 19.908 536.337 20.652 536.337 21.516V33H531.621ZM562.249 33.432C560.233 33.432 558.469 32.976 556.957 32.064C555.445 31.152 554.269 29.916 553.429 28.356C552.589 26.796 552.169 25.068 552.169 23.172C552.169 21.204 552.589 19.464 553.429 17.952C554.293 16.416 555.457 15.204 556.921 14.316C558.409 13.428 560.065 12.984 561.889 12.984C563.425 12.984 564.769 13.236 565.921 13.74C567.097 14.244 568.093 14.94 568.909 15.828C569.725 16.716 570.349 17.736 570.781 18.888C571.213 20.016 571.429 21.24 571.429 22.56C571.429 22.896 571.405 23.244 571.357 23.604C571.333 23.964 571.273 24.276 571.177 24.54H556.057V20.94H568.513L566.281 22.632C566.497 21.528 566.437 20.544 566.101 19.68C565.789 18.816 565.261 18.132 564.517 17.628C563.797 17.124 562.921 16.872 561.889 16.872C560.905 16.872 560.029 17.124 559.261 17.628C558.493 18.108 557.905 18.828 557.497 19.788C557.113 20.724 556.969 21.864 557.065 23.208C556.969 24.408 557.125 25.476 557.533 26.412C557.965 27.324 558.589 28.032 559.405 28.536C560.245 29.04 561.205 29.292 562.285 29.292C563.365 29.292 564.277 29.064 565.021 28.608C565.789 28.152 566.389 27.54 566.821 26.772L570.637 28.644C570.253 29.58 569.653 30.408 568.837 31.128C568.021 31.848 567.049 32.412 565.921 32.82C564.817 33.228 563.593 33.432 562.249 33.432ZM581.798 33V6.18H586.694V20.148L585.362 19.68L596.774 6.18H602.93L592.238 18.852L592.526 15.396L603.254 33H597.494L590.294 21.192L586.694 25.476V33H581.798ZM611.424 33.432C610.056 33.432 608.868 33.204 607.86 32.748C606.852 32.292 606.072 31.644 605.52 30.804C604.968 29.94 604.692 28.944 604.692 27.816C604.692 26.736 604.932 25.776 605.412 24.936C605.892 24.072 606.636 23.352 607.644 22.776C608.652 22.2 609.924 21.792 611.46 21.552L617.868 20.508V24.108L612.36 25.044C611.424 25.212 610.728 25.512 610.272 25.944C609.816 26.376 609.588 26.94 609.588 27.636C609.588 28.308 609.84 28.848 610.344 29.256C610.872 29.64 611.52 29.832 612.288 29.832C613.272 29.832 614.136 29.628 614.88 29.22C615.648 28.788 616.236 28.2 616.644 27.456C617.076 26.712 617.292 25.896 617.292 25.008V19.968C617.292 19.128 616.956 18.432 616.284 17.88C615.636 17.304 614.772 17.016 613.692 17.016C612.684 17.016 611.784 17.292 610.992 17.844C610.224 18.372 609.66 19.08 609.3 19.968L605.448 18.096C605.832 17.064 606.432 16.176 607.248 15.432C608.088 14.664 609.072 14.064 610.2 13.632C611.328 13.2 612.552 12.984 613.872 12.984C615.48 12.984 616.896 13.284 618.12 13.884C619.344 14.46 620.292 15.276 620.964 16.332C621.66 17.364 622.008 18.576 622.008 19.968V33H617.544V29.652L618.552 29.58C618.048 30.42 617.448 31.128 616.752 31.704C616.056 32.256 615.264 32.688 614.376 33C613.488 33.288 612.504 33.432 611.424 33.432ZM626.367 33V13.416H630.795V17.952L630.291 17.196C630.651 15.78 631.371 14.724 632.451 14.028C633.531 13.332 634.803 12.984 636.267 12.984C637.875 12.984 639.291 13.404 640.515 14.244C641.739 15.084 642.531 16.188 642.891 17.556L641.559 17.664C642.159 16.104 643.059 14.94 644.259 14.172C645.459 13.38 646.839 12.984 648.399 12.984C649.791 12.984 651.027 13.296 652.107 13.92C653.211 14.544 654.075 15.42 654.699 16.548C655.323 17.652 655.635 18.936 655.635 20.4V33H650.919V21.516C650.919 20.652 650.763 19.908 650.451 19.284C650.139 18.66 649.707 18.18 649.155 17.844C648.603 17.484 647.931 17.304 647.139 17.304C646.395 17.304 645.735 17.484 645.159 17.844C644.583 18.18 644.139 18.66 643.827 19.284C643.515 19.908 643.359 20.652 643.359 21.516V33H638.643V21.516C638.643 20.652 638.487 19.908 638.175 19.284C637.863 18.66 637.419 18.18 636.843 17.844C636.291 17.484 635.631 17.304 634.863 17.304C634.119 17.304 633.459 17.484 632.883 17.844C632.307 18.18 631.863 18.66 631.551 19.284C631.239 19.908 631.083 20.652 631.083 21.516V33H626.367ZM659.625 33V13.416H664.341V33H659.625ZM659.625 11.22V6.18H664.341V11.22H659.625Z" fill="#2A2A2A"/>
</svg>
