<svg width="88" height="88" viewBox="0 0 88 88" fill="none" xmlns="http://www.w3.org/2000/svg">
<rect x="0.5" y="0.471802" width="87" height="87" rx="43.5" fill="url(#paint0_linear_7_750)"/>
<path d="M58.0625 19.5968H29.9375C23.2875 19.5968 19.625 23.2593 19.625 29.9093V58.0343C19.625 64.6843 23.2875 68.3468 29.9375 68.3468H58.0625C64.7125 68.3468 68.375 64.6843 68.375 58.0343V29.9093C68.375 23.2593 64.7125 19.5968 58.0625 19.5968ZM64.625 29.9093V34.5968H53.375V23.3468H58.0625C62.6625 23.3468 64.625 25.3093 64.625 29.9093ZM38.375 34.5968V23.3468H49.625V34.5968H38.375ZM29.9375 23.3468H34.625V34.5968H23.375V29.9093C23.375 25.3093 25.3375 23.3468 29.9375 23.3468ZM58.0625 64.5968H29.9375C25.3375 64.5968 23.375 62.6343 23.375 58.0343V38.3468H64.625V58.0343C64.625 62.6343 62.6625 64.5968 58.0625 64.5968ZM51.4326 46.7593L43.5624 41.9418C42.2574 41.1418 40.6175 41.1119 39.285 41.8594C37.9325 42.6169 37.1274 43.9917 37.1274 45.5392V54.9044C37.1274 56.4519 37.9325 57.8267 39.285 58.5842C39.9275 58.9442 40.6401 59.1244 41.3526 59.1244C42.1201 59.1244 42.8849 58.9168 43.5624 58.5018L51.4301 53.6868C52.6476 52.9418 53.375 51.6468 53.375 50.2218C53.375 48.7968 52.6476 47.5018 51.4326 46.7593ZM49.4724 50.4867L41.6025 55.3042C41.3975 55.4267 41.2276 55.3746 41.1176 55.3146C41.0076 55.2521 40.875 55.1319 40.875 54.9044V45.5392C40.875 45.3142 41.0076 45.1915 41.1176 45.129C41.1776 45.094 41.26 45.0643 41.355 45.0643C41.43 45.0643 41.515 45.0844 41.605 45.1394L49.4749 49.9569C49.4749 49.9569 49.4751 49.9569 49.4776 49.9569C49.5751 50.0169 49.6274 50.1069 49.6274 50.2194C49.6274 50.3319 49.5724 50.4267 49.4724 50.4867Z" fill="white"/>
<defs>
<linearGradient id="paint0_linear_7_750" x1="44" y1="0.471802" x2="44" y2="112.781" gradientUnits="userSpaceOnUse">
<stop stop-color="#667AFB"/>
<stop offset="1" stop-color="#BDC6FF"/>
</linearGradient>
</defs>
</svg>
